NotoSerifTamilSlanted-CondensedBlack.ufo
<glyph name="exclam" format="2">
  <advance width="389.9"/>
  <unicode hex="0021"/>
  <outline>
    <contour>
      <point x="156.9" y="238.0" type="line"/>
      <point x="227.9" y="238.0" type="line"/>
      <point x="404.59999999999997" y="714.0" type="line"/>
      <point x="209.3" y="714.0" type="line"/>
    </contour>
    <contour>
      <point x="164.70000000000002" y="-8.0" type="curve" smooth="yes"/>
      <point x="209.5" y="-8.0"/>
      <point x="258.29999999999995" y="17.0"/>
      <point x="258.29999999999995" y="90.6" type="curve" smooth="yes"/>
      <point x="258.29999999999995" y="141.1"/>
      <point x="223.9" y="165.7"/>
      <point x="175.9" y="165.7" type="curve" smooth="yes"/>
      <point x="118.8" y="165.7"/>
      <point x="82.3" y="125.7"/>
      <point x="82.3" y="66.4" type="curve" smooth="yes"/>
      <point x="82.3" y="15.600000000000001"/>
      <point x="115.7" y="-8.0"/>
    </contour>
  </outline>
</glyph>
<glyph name="quotedbl" format="2">
  <advance width="485.7"/>
  <unicode hex="0022"/>
  <outline>
    <contour>
      <point x="126.4" y="420.5" type="line"/>
      <point x="199.0" y="420.5" type="line"/>
      <point x="331.7" y="714.0" type="line"/>
      <point x="158.29999999999998" y="714.0" type="line"/>
    </contour>
    <contour>
      <point x="339.40000000000003" y="420.5" type="line"/>
      <point x="412.0" y="420.5" type="line"/>
      <point x="543.6999999999999" y="714.0" type="line"/>
      <point x="371.3" y="714.0" type="line"/>
    </contour>
  </outline>
</glyph>
<glyph name="numbersign" format="2">
  <advance width="486.90000000000003"/>
  <unicode hex="0023"/>
  <outline>
    <contour>
      <point x="51.300000000000004" y="0.0" type="line"/>
      <point x="121.2" y="0.0" type="line"/>
      <point x="178.10000000000002" y="198.7" type="line"/>
      <point x="270.7" y="198.7" type="line"/>
      <point x="215.1" y="0.0" type="line"/>
      <point x="285.7" y="0.0" type="line"/>
      <point x="340.59999999999997" y="198.7" type="line"/>
      <point x="443.2" y="198.7" type="line"/>
      <point x="450.9" y="271.9" type="line"/>
      <point x="362.9" y="271.9" type="line"/>
      <point x="410.79999999999995" y="446.09999999999997" type="line"/>
      <point x="500.5" y="446.09999999999997" type="line"/>
      <point x="511.2" y="521.3" type="line"/>
      <point x="434.09999999999997" y="521.3" type="line"/>
      <point x="488.0" y="714.0" type="line"/>
      <point x="418.09999999999997" y="714.0" type="line"/>
      <point x="364.2" y="521.3" type="line"/>
      <point x="270.6" y="521.3" type="line"/>
      <point x="323.5" y="714.0" type="line"/>
      <point x="253.3" y="714.0" type="line"/>
      <point x="201.4" y="521.3" type="line"/>
      <point x="101.1" y="521.3" type="line"/>
      <point x="90.39999999999999" y="446.09999999999997" type="line"/>
      <point x="178.10000000000002" y="446.09999999999997" type="line"/>
      <point x="128.5" y="271.9" type="line"/>
      <point x="41.800000000000004" y="271.9" type="line"/>
      <point x="34.1" y="198.7" type="line"/>
      <point x="108.2" y="198.7" type="line"/>
    </contour>
    <contour>
      <point x="197.4" y="271.9" type="line"/>
      <point x="247.3" y="446.09999999999997" type="line"/>
      <point x="341.9" y="446.09999999999997" type="line"/>
      <point x="292.0" y="271.9" type="line"/>
    </contour>
  </outline>
</glyph>
<glyph name="percent" format="2">
  <advance width="816.7"/>
  <unicode hex="0025"/>
  <outline>
    <contour>
      <point x="183.5" y="0.0" type="line"/>
      <point x="254.7" y="0.0" type="line"/>
      <point x="699.6" y="714.0" type="line"/>
      <point x="631.4" y="714.0" type="line"/>
    </contour>
    <contour>
      <point x="206.39999999999998" y="279.0" type="curve" smooth="yes"/>
      <point x="361.90000000000003" y="279.0"/>
      <point x="433.7" y="467.0"/>
      <point x="433.7" y="585.8000000000001" type="curve" smooth="yes"/>
      <point x="433.7" y="663.8000000000001"/>
      <point x="393.7" y="725.0"/>
      <point x="302.09999999999997" y="725.0" type="curve" smooth="yes"/>
      <point x="147.9" y="725.0"/>
      <point x="78.10000000000001" y="542.5999999999999"/>
      <point x="78.10000000000001" y="413.9" type="curve"/>
      <point x="78.10000000000001" y="327.9"/>
      <point x="128.0" y="279.0"/>
    </contour>
    <contour>
      <point x="224.10000000000002" y="335.2" type="curve" smooth="yes"/>
      <point x="203.0" y="335.2"/>
      <point x="194.1" y="363.40000000000003"/>
      <point x="194.1" y="406.0" type="curve" smooth="yes"/>
      <point x="194.1" y="481.5"/>
      <point x="234.8" y="666.1"/>
      <point x="298.7" y="666.1" type="curve" smooth="yes"/>
      <point x="321.09999999999997" y="666.1"/>
      <point x="328.70000000000005" y="640.6"/>
      <point x="328.70000000000005" y="599.1" type="curve" smooth="yes"/>
      <point x="328.70000000000005" y="520.9"/>
      <point x="288.0" y="335.2"/>
    </contour>
    <contour>
      <point x="578.0" y="-10.3" type="curve" smooth="yes"/>
      <point x="733.5" y="-10.3"/>
      <point x="805.3" y="176.70000000000002"/>
      <point x="805.3" y="295.5" type="curve" smooth="yes"/>
      <point x="805.3" y="372.8"/>
      <point x="765.3000000000001" y="434.0"/>
      <point x="673.6999999999999" y="434.0" type="curve" smooth="yes"/>
      <point x="519.5" y="434.0"/>
      <point x="449.7" y="252.3"/>
      <point x="449.7" y="123.60000000000001" type="curve"/>
      <point x="449.7" y="38.6"/>
      <point x="499.6" y="-10.3"/>
    </contour>
    <contour>
      <point x="594.0" y="44.9" type="curve" smooth="yes"/>
      <point x="573.6" y="44.9"/>
      <point x="564.6999999999999" y="73.1"/>
      <point x="564.6999999999999" y="115.7" type="curve" smooth="yes"/>
      <point x="564.6999999999999" y="190.5"/>
      <point x="605.4" y="375.8"/>
      <point x="669.3000000000001" y="375.8" type="curve" smooth="yes"/>
      <point x="691.7" y="375.8"/>
      <point x="699.3" y="349.59999999999997"/>
      <point x="699.3" y="308.40000000000003" type="curve" smooth="yes"/>
      <point x="699.3" y="230.9"/>
      <point x="658.6" y="44.9"/>
    </contour>
  </outline>
</glyph>
<glyph name="quotesingle" format="2">
  <advance width="286.3"/>
  <unicode hex="0027"/>
  <outline>
    <contour>
      <point x="143.7" y="420.5" type="line"/>
      <point x="216.3" y="420.5" type="line"/>
      <point x="331.7" y="714.0" type="line"/>
      <point x="160.0" y="714.0" type="line"/>
    </contour>
  </outline>
</glyph>
<glyph name="parenleft" format="2">
  <advance width="388.9"/>
  <unicode hex="0028"/>
  <outline>
    <contour>
      <point x="269.5" y="-144.20000000000002" type="curve"/>
      <point x="285.2" y="-72.10000000000001" type="line"/>
      <point x="235.8" y="-28.2"/>
      <point x="218.29999999999998" y="49.9"/>
      <point x="218.29999999999998" y="125.7" type="curve" smooth="yes"/>
      <point x="218.29999999999998" y="253.29999999999998"/>
      <point x="266.3" y="588.5"/>
      <point x="451.5" y="706.4000000000001" type="curve"/>
      <point x="462.2" y="777.5" type="line"/>
      <point x="180.5" y="709.1"/>
      <point x="41.300000000000004" y="424.0"/>
      <point x="41.300000000000004" y="174.8" type="curve" smooth="yes"/>
      <point x="41.300000000000004" y="33.1"/>
      <point x="108.8" y="-89.3"/>
    </contour>
  </outline>
</glyph>
<glyph name="parenright" format="2">
  <advance width="388.9"/>
  <unicode hex="0029"/>
  <outline>
    <contour>
      <point x="-38.9" y="-138.3" type="line"/>
      <point x="243.8" y="-70.89999999999999"/>
      <point x="382.0" y="215.20000000000002"/>
      <point x="382.0" y="463.4" type="curve" smooth="yes"/>
      <point x="382.0" y="605.1"/>
      <point x="315.2" y="727.5"/>
      <point x="154.8" y="782.4" type="curve"/>
      <point x="139.1" y="710.3" type="line"/>
      <point x="187.5" y="667.4"/>
      <point x="204.3" y="589.0"/>
      <point x="204.3" y="513.2" type="curve" smooth="yes"/>
      <point x="204.3" y="385.6"/>
      <point x="158.0" y="49.7"/>
      <point x="-28.2" y="-67.2" type="curve"/>
    </contour>
  </outline>
</glyph>
<glyph name="asterisk" format="2">
  <advance width="554.5"/>
  <unicode hex="002A"/>
  <outline>
    <contour>
      <point x="360.2" y="351.2" type="line"/>
      <point x="359.1" y="519.8000000000001" type="line"/>
      <point x="458.8" y="381.90000000000003" type="line"/>
      <point x="529.2" y="478.0" type="line"/>
      <point x="413.5" y="544.8000000000001" type="line"/>
      <point x="541.2" y="547.9" type="line"/>
      <point x="520.5" y="665.6" type="line"/>
      <point x="374.4" y="589.4000000000001" type="line"/>
      <point x="445.2" y="739.4" type="line"/>
      <point x="331.9" y="765.0" type="line"/>
      <point x="329.7" y="596.4" type="line"/>
      <point x="231.29999999999998" y="738.6" type="line"/>
      <point x="161.9" y="639.1999999999999" type="line"/>
      <point x="278.59999999999997" y="574.7" type="line"/>
      <point x="147.9" y="568.5999999999999" type="line"/>
      <point x="170.29999999999998" y="452.9" type="line"/>
      <point x="315.7" y="531.4000000000001" type="line"/>
      <point x="247.9" y="376.8" type="line"/>
    </contour>
  </outline>
</glyph>
<glyph name="plus" format="2">
  <advance width="468.2"/>
  <unicode hex="002B"/>
  <outline>
    <contour>
      <point x="220.20000000000002" y="140.6" type="line"/>
      <point x="298.09999999999997" y="140.6" type="line"/>
      <point x="298.09999999999997" y="320.09999999999997" type="line"/>
      <point x="451.6" y="320.09999999999997" type="line"/>
      <point x="451.6" y="394.90000000000003" type="line"/>
      <point x="298.09999999999997" y="394.90000000000003" type="line"/>
      <point x="298.09999999999997" y="574.4" type="line"/>
      <point x="220.20000000000002" y="574.4" type="line"/>
      <point x="220.20000000000002" y="394.90000000000003" type="line"/>
      <point x="67.0" y="394.90000000000003" type="line"/>
      <point x="67.0" y="320.09999999999997" type="line"/>
      <point x="220.20000000000002" y="320.09999999999997" type="line"/>
    </contour>
  </outline>
</glyph>
<glyph name="comma" format="2">
  <advance width="304.8"/>
  <unicode hex="002C"/>
  <outline>
    <contour>
      <point x="-9.1" y="-153.6" type="line"/>
      <point x="137.5" y="-123.3"/>
      <point x="217.20000000000002" y="-34.6"/>
      <point x="217.20000000000002" y="73.3" type="curve" smooth="yes"/>
      <point x="217.20000000000002" y="131.8"/>
      <point x="182.5" y="164.70000000000002"/>
      <point x="137.5" y="164.70000000000002" type="curve" smooth="yes"/>
      <point x="97.39999999999999" y="164.70000000000002"/>
      <point x="60.2" y="134.7"/>
      <point x="60.2" y="88.0" type="curve" smooth="yes"/>
      <point x="60.2" y="31.6"/>
      <point x="100.4" y="31.5"/>
      <point x="100.4" y="-10.3" type="curve" smooth="yes"/>
      <point x="100.4" y="-50.7"/>
      <point x="68.89999999999999" y="-78.4"/>
      <point x="6.900000000000001" y="-95.4" type="curve"/>
    </contour>
  </outline>
</glyph>
<glyph name="hyphen" format="2">
  <advance width="270.1"/>
  <unicode hex="002D"/>
  <outline>
    <contour>
      <point x="11.899999999999999" y="213.20000000000002" type="line"/>
      <point x="238.3" y="213.20000000000002" type="line"/>
      <point x="266.3" y="331.8" type="line"/>
      <point x="39.9" y="331.8" type="line"/>
    </contour>
  </outline>
</glyph>
<glyph name="period" format="2">
  <advance width="304.8"/>
  <unicode hex="002E"/>
  <outline>
    <contour>
      <point x="120.30000000000001" y="-8.0" type="curve" smooth="yes"/>
      <point x="164.39999999999998" y="-8.0"/>
      <point x="213.9" y="17.0"/>
      <point x="213.9" y="90.60000000000001" type="curve" smooth="yes"/>
      <point x="213.9" y="141.1"/>
      <point x="179.5" y="165.7"/>
      <point x="130.8" y="165.7" type="curve" smooth="yes"/>
      <point x="74.39999999999999" y="165.7"/>
      <point x="37.2" y="125.7"/>
      <point x="37.2" y="66.4" type="curve" smooth="yes"/>
      <point x="37.2" y="15.600000000000001"/>
      <point x="71.3" y="-8.0"/>
    </contour>
  </outline>
</glyph>
<glyph name="slash" format="2">
  <advance width="250.9"/>
  <unicode hex="002F"/>
  <outline>
    <contour>
      <point x="-101.2" y="-121.0" type="line"/>
      <point x="-22.0" y="-121.0" type="line"/>
      <point x="384.2" y="760.0" type="line"/>
      <point x="305.0" y="760.0" type="line"/>
    </contour>
  </outline>
</glyph>
<glyph name="zero" format="2">
  <advance width="524.1999999999999"/>
  <unicode hex="0030"/>
  <outline>
    <contour>
      <point x="236.4" y="-11.0" type="curve" smooth="yes"/>
      <point x="447.0" y="-11.0"/>
      <point x="544.8" y="310.1"/>
      <point x="544.8" y="507.2" type="curve" smooth="yes"/>
      <point x="544.8" y="657.8"/>
      <point x="466.2" y="725.0"/>
      <point x="363.0" y="725.0" type="curve" smooth="yes"/>
      <point x="152.10000000000002" y="725.0"/>
      <point x="51.0" y="423.29999999999995"/>
      <point x="51.0" y="219.10000000000002" type="curve" smooth="yes"/>
      <point x="51.0" y="69.5"/>
      <point x="125.0" y="-11.0"/>
    </contour>
    <contour>
      <point x="241.8" y="63.5" type="curve" smooth="yes"/>
      <point x="215.5" y="63.5"/>
      <point x="198.1" y="98.7"/>
      <point x="198.1" y="167.5" type="curve" smooth="yes"/>
      <point x="198.1" y="333.5"/>
      <point x="278.9" y="651.5"/>
      <point x="359.6" y="651.5" type="curve" smooth="yes"/>
      <point x="388.90000000000003" y="651.5"/>
      <point x="405.0" y="616.3"/>
      <point x="405.0" y="549.5" type="curve" smooth="yes"/>
      <point x="405.0" y="387.5"/>
      <point x="329.2" y="63.5"/>
    </contour>
  </outline>
</glyph>
<glyph name="one" format="2">
  <advance width="524.1999999999999"/>
  <unicode hex="0031"/>
  <outline>
    <contour>
      <point x="48.1" y="0.0" type="line"/>
      <point x="437.9" y="0.0" type="line"/>
      <point x="450.9" y="58.199999999999996" type="line"/>
      <point x="411.2" y="58.199999999999996" type="line" smooth="yes"/>
      <point x="374.5" y="58.199999999999996"/>
      <point x="344.70000000000005" y="61.199999999999996"/>
      <point x="344.70000000000005" y="86.9" type="curve" smooth="yes"/>
      <point x="344.70000000000005" y="95.89999999999999"/>
      <point x="349.3" y="116.80000000000001"/>
      <point x="352.7" y="131.8" type="curve" smooth="yes"/>
      <point x="477.70000000000005" y="718.0" type="line"/>
      <point x="344.7" y="718.0" type="line"/>
      <point x="272.79999999999995" y="666.0" type="line" smooth="yes"/>
      <point x="205.2" y="617.0"/>
      <point x="158.5" y="601.0"/>
      <point x="118.1" y="589.0" type="curve"/>
      <point x="116.7" y="534.1999999999999"/>
      <point x="139.2" y="505.6"/>
      <point x="163.70000000000002" y="505.6" type="curve" smooth="yes"/>
      <point x="201.1" y="505.6"/>
      <point x="237.70000000000002" y="542.5"/>
      <point x="292.09999999999997" y="609.6" type="curve"/>
      <point x="295.4" y="609.6" type="line"/>
      <point x="280.6" y="566.5"/>
      <point x="271.6" y="524.4000000000001"/>
      <point x="262.59999999999997" y="480.6" type="curve" smooth="yes"/>
      <point x="187.3" y="119.6" type="line" smooth="yes"/>
      <point x="178.60000000000002" y="79.1"/>
      <point x="159.1" y="58.199999999999996"/>
      <point x="117.39999999999999" y="58.199999999999996" type="curve" smooth="yes"/>
      <point x="61.1" y="58.199999999999996" type="line"/>
    </contour>
  </outline>
</glyph>
<glyph name="two" format="2">
  <advance width="524.1999999999999"/>
  <unicode hex="0032"/>
  <outline>
    <contour>
      <point x="-10.9" y="0.0" type="line"/>
      <point x="431.2" y="0.0" type="line"/>
      <point x="487.2" y="228.5" type="line"/>
      <point x="422.90000000000003" y="228.5" type="line"/>
      <point x="416.2" y="209.2" type="line" smooth="yes"/>
      <point x="401.5" y="165.6"/>
      <point x="378.40000000000003" y="124.29999999999998"/>
      <point x="319.1" y="124.29999999999998" type="curve" smooth="yes"/>
      <point x="116.2" y="124.29999999999998" type="line"/>
      <point x="262.3" y="248.6" type="line" smooth="yes"/>
      <point x="485.6" y="418.6"/>
      <point x="543.7" y="486.8"/>
      <point x="543.7" y="591.4" type="curve" smooth="yes"/>
      <point x="543.7" y="673.6999999999999"/>
      <point x="470.90000000000003" y="724.0"/>
      <point x="345.5" y="724.0" type="curve" smooth="yes"/>
      <point x="202.3" y="724.0"/>
      <point x="125.4" y="656.9"/>
      <point x="125.4" y="573.0" type="curve" smooth="yes"/>
      <point x="125.4" y="509.59999999999997"/>
      <point x="180.70000000000002" y="478.7"/>
      <point x="255.6" y="478.7" type="curve"/>
      <point x="258.0" y="581.1999999999999"/>
      <point x="288.2" y="656.5"/>
      <point x="330.8" y="656.5" type="curve" smooth="yes"/>
      <point x="358.8" y="656.5"/>
      <point x="373.6" y="621.6"/>
      <point x="373.6" y="573.8" type="curve" smooth="yes"/>
      <point x="373.6" y="488.3"/>
      <point x="346.5" y="421.3"/>
      <point x="217.6" y="302.9" type="curve" smooth="yes"/>
      <point x="10.8" y="113.4" type="line"/>
    </contour>
  </outline>
</glyph>
<glyph name="three" format="2">
  <advance width="524.1999999999999"/>
  <unicode hex="0033"/>
  <outline>
    <contour>
      <point x="204.29999999999998" y="-10.0" type="curve" smooth="yes"/>
      <point x="331.90000000000003" y="-10.0"/>
      <point x="488.1" y="49.4"/>
      <point x="488.1" y="230.6" type="curve" smooth="yes"/>
      <point x="488.1" y="313.09999999999997"/>
      <point x="439.20000000000005" y="360.40000000000003"/>
      <point x="361.2" y="370.40000000000003" type="curve"/>
      <point x="481.20000000000005" y="394.40000000000003"/>
      <point x="542.5999999999999" y="491.5"/>
      <point x="542.5999999999999" y="584.5" type="curve" smooth="yes"/>
      <point x="542.5999999999999" y="673.4"/>
      <point x="466.5" y="724.0"/>
      <point x="352.0" y="724.0" type="curve" smooth="yes"/>
      <point x="221.1" y="724.0"/>
      <point x="116.0" y="653.4"/>
      <point x="116.0" y="571.4" type="curve" smooth="yes"/>
      <point x="116.0" y="523.8"/>
      <point x="170.29999999999998" y="508.8"/>
      <point x="241.2" y="508.8" type="curve"/>
      <point x="253.89999999999998" y="587.8"/>
      <point x="278.5" y="657.8"/>
      <point x="327.7" y="657.8" type="curve" smooth="yes"/>
      <point x="364.6" y="657.8"/>
      <point x="376.5" y="626.3000000000001"/>
      <point x="376.5" y="582.8000000000001" type="curve" smooth="yes"/>
      <point x="376.5" y="474.09999999999997"/>
      <point x="301.2" y="402.6"/>
      <point x="195.8" y="402.6" type="curve" smooth="yes"/>
      <point x="168.0" y="402.6" type="line"/>
      <point x="157.29999999999998" y="335.4" type="line"/>
      <point x="196.1" y="335.4" type="line" smooth="yes"/>
      <point x="276.40000000000003" y="335.4"/>
      <point x="320.0" y="297.2"/>
      <point x="320.0" y="225.2" type="curve" smooth="yes"/>
      <point x="320.0" y="122.3"/>
      <point x="264.6" y="68.8"/>
      <point x="221.3" y="68.8" type="curve" smooth="yes"/>
      <point x="162.1" y="68.8"/>
      <point x="131.4" y="122.2"/>
      <point x="134.2" y="209.0" type="curve"/>
      <point x="52.9" y="209.0"/>
      <point x="10.399999999999999" y="173.1"/>
      <point x="10.399999999999999" y="116.0" type="curve" smooth="yes"/>
      <point x="10.399999999999999" y="59.7"/>
      <point x="60.0" y="-10.0"/>
    </contour>
  </outline>
</glyph>
<glyph name="four" format="2">
  <advance width="524.1999999999999"/>
  <unicode hex="0034"/>
  <outline>
    <contour>
      <point x="124.5" y="0.0" type="line"/>
      <point x="448.0" y="0.0" type="line"/>
      <point x="461.0" y="58.199999999999996" type="line"/>
      <point x="448.8" y="58.199999999999996" type="line" smooth="yes"/>
      <point x="416.4" y="58.199999999999996"/>
      <point x="397.6" y="63.5"/>
      <point x="397.6" y="95.4" type="curve" smooth="yes"/>
      <point x="397.6" y="102.80000000000001"/>
      <point x="399.6" y="121.8"/>
      <point x="401.6" y="130.5" type="curve" smooth="yes"/>
      <point x="525.6" y="714.0" type="line"/>
      <point x="364.1" y="714.0" type="line"/>
      <point x="45.199999999999996" y="253.20000000000002" type="line"/>
      <point x="27.199999999999996" y="181.8" type="line"/>
      <point x="486.6" y="181.8" type="line"/>
      <point x="501.6" y="252.0" type="line"/>
      <point x="79.6" y="252.0" type="line"/>
      <point x="94.5" y="228.9" type="line"/>
      <point x="233.7" y="430.90000000000003" type="line" smooth="yes"/>
      <point x="265.6" y="477.0"/>
      <point x="314.3" y="553.1999999999999"/>
      <point x="344.1" y="612.5" type="curve"/>
      <point x="325.8" y="550.5"/>
      <point x="308.79999999999995" y="471.90000000000003"/>
      <point x="297.79999999999995" y="421.5" type="curve" smooth="yes"/>
      <point x="235.79999999999998" y="130.20000000000002" type="line" smooth="yes"/>
      <point x="220.5" y="59.599999999999994"/>
      <point x="179.39999999999998" y="58.199999999999996"/>
      <point x="150.29999999999998" y="58.199999999999996" type="curve" smooth="yes"/>
      <point x="136.5" y="58.199999999999996" type="line"/>
    </contour>
  </outline>
</glyph>
<glyph name="five" format="2">
  <advance width="524.1999999999999"/>
  <unicode hex="0035"/>
  <outline>
    <contour>
      <point x="202.6" y="-10.0" type="curve" smooth="yes"/>
      <point x="383.59999999999997" y="-10.0"/>
      <point x="487.4" y="105.5"/>
      <point x="487.4" y="255.6" type="curve" smooth="yes"/>
      <point x="487.4" y="372.70000000000005"/>
      <point x="407.1" y="436.90000000000003"/>
      <point x="281.7" y="436.90000000000003" type="curve" smooth="yes"/>
      <point x="236.7" y="436.90000000000003"/>
      <point x="208.2" y="428.9"/>
      <point x="185.0" y="420.9" type="curve"/>
      <point x="230.20000000000002" y="591.7" type="line"/>
      <point x="416.3" y="591.7" type="line" smooth="yes"/>
      <point x="450.0" y="591.7"/>
      <point x="460.3" y="582.4"/>
      <point x="460.3" y="567.1" type="curve" smooth="yes"/>
      <point x="460.3" y="559.8"/>
      <point x="457.9" y="535.1"/>
      <point x="455.90000000000003" y="517.4" type="curve"/>
      <point x="523.2" y="517.4" type="line"/>
      <point x="556.3" y="714.0" type="line"/>
      <point x="193.60000000000002" y="714.0" type="line"/>
      <point x="99.1" y="371.2" type="line"/>
      <point x="141.5" y="344.4" type="line"/>
      <point x="162.0" y="355.4"/>
      <point x="188.2" y="366.4"/>
      <point x="227.20000000000002" y="366.4" type="curve" smooth="yes"/>
      <point x="283.4" y="366.4"/>
      <point x="323.3" y="327.1"/>
      <point x="323.3" y="247.9" type="curve" smooth="yes"/>
      <point x="323.3" y="130.10000000000002"/>
      <point x="280.90000000000003" y="66.8"/>
      <point x="213.29999999999998" y="66.8" type="curve" smooth="yes"/>
      <point x="135.5" y="66.8"/>
      <point x="121.4" y="143.3"/>
      <point x="121.8" y="203.89999999999998" type="curve"/>
      <point x="55.8" y="203.89999999999998"/>
      <point x="25.6" y="162.0"/>
      <point x="25.6" y="112.3" type="curve" smooth="yes"/>
      <point x="25.6" y="45.5"/>
      <point x="76.9" y="-10.0"/>
    </contour>
  </outline>
</glyph>
<glyph name="six" format="2">
  <advance width="524.1999999999999"/>
  <unicode hex="0036"/>
  <outline>
    <contour>
      <point x="249.4" y="-10.0" type="curve" smooth="yes"/>
      <point x="423.8" y="-10.0"/>
      <point x="509.09999999999997" y="126.9"/>
      <point x="509.09999999999997" y="269.0" type="curve" smooth="yes"/>
      <point x="509.09999999999997" y="361.8"/>
      <point x="464.5" y="439.6"/>
      <point x="366.7" y="439.6" type="curve" smooth="yes"/>
      <point x="304.1" y="439.6"/>
      <point x="265.7" y="414.90000000000003"/>
      <point x="239.2" y="390.6" type="curve"/>
      <point x="274.5" y="573.0"/>
      <point x="325.90000000000003" y="659.8000000000001"/>
      <point x="389.7" y="659.8000000000001" type="curve" smooth="yes"/>
      <point x="429.7" y="659.8000000000001"/>
      <point x="432.90000000000003" y="592.9"/>
      <point x="430.8" y="525.3000000000001" type="curve"/>
      <point x="518.4" y="525.3000000000001"/>
      <point x="571.2" y="560.3"/>
      <point x="571.2" y="617.3000000000001" type="curve" smooth="yes"/>
      <point x="571.2" y="674.8000000000001"/>
      <point x="518.6" y="724.0"/>
      <point x="419.0" y="724.0" type="curve" smooth="yes"/>
      <point x="197.8" y="724.0"/>
      <point x="58.6" y="469.79999999999995"/>
      <point x="58.6" y="221.5" type="curve" smooth="yes"/>
      <point x="58.6" y="66.5"/>
      <point x="143.2" y="-10.0"/>
    </contour>
    <contour>
      <point x="269.4" y="59.2" type="curve" smooth="yes"/>
      <point x="233.8" y="59.2"/>
      <point x="211.4" y="98.7"/>
      <point x="211.4" y="187.2" type="curve" smooth="yes"/>
      <point x="211.4" y="235.2"/>
      <point x="216.5" y="274.9"/>
      <point x="225.2" y="325.0" type="curve"/>
      <point x="243.70000000000002" y="348.7"/>
      <point x="274.8" y="374.4"/>
      <point x="305.2" y="374.4" type="curve" smooth="yes"/>
      <point x="338.8" y="374.4"/>
      <point x="355.3" y="335.59999999999997"/>
      <point x="355.3" y="266.3" type="curve" smooth="yes"/>
      <point x="355.3" y="152.0"/>
      <point x="319.4" y="59.2"/>
    </contour>
  </outline>
</glyph>
<glyph name="seven" format="2">
  <advance width="524.1999999999999"/>
  <unicode hex="0037"/>
  <outline>
    <contour>
      <point x="106.69999999999999" y="0.0" type="line"/>
      <point x="191.5" y="0.0" type="line"/>
      <point x="577.5" y="640.6999999999999" type="line"/>
      <point x="592.2" y="714.0" type="line"/>
      <point x="161.1" y="714.0" type="line"/>
      <point x="111.4" y="490.70000000000005" type="line"/>
      <point x="178.7" y="490.70000000000005" type="line"/>
      <point x="192.70000000000002" y="540.7" type="line" smooth="yes"/>
      <point x="201.70000000000002" y="573.7"/>
      <point x="222.89999999999998" y="591.6999999999999"/>
      <point x="254.0" y="591.6999999999999" type="curve" smooth="yes"/>
      <point x="475.4" y="591.6999999999999" type="line"/>
    </contour>
  </outline>
</glyph>
<glyph name="eight" format="2">
  <advance width="524.1999999999999"/>
  <unicode hex="0038"/>
  <outline>
    <contour>
      <point x="250.5" y="-10.0" type="curve" smooth="yes"/>
      <point x="399.5" y="-10.0"/>
      <point x="499.6" y="58.8"/>
      <point x="499.6" y="207.60000000000002" type="curve" smooth="yes"/>
      <point x="499.6" y="285.8"/>
      <point x="456.70000000000005" y="340.7"/>
      <point x="399.59999999999997" y="380.0" type="curve"/>
      <point x="487.8" y="428.7"/>
      <point x="550.8000000000001" y="479.1"/>
      <point x="550.8000000000001" y="581.5" type="curve" smooth="yes"/>
      <point x="550.8000000000001" y="663.4"/>
      <point x="482.0" y="724.0"/>
      <point x="368.2" y="724.0" type="curve" smooth="yes"/>
      <point x="197.5" y="724.0"/>
      <point x="132.5" y="632.2"/>
      <point x="132.5" y="533.3000000000001" type="curve" smooth="yes"/>
      <point x="132.5" y="461.9"/>
      <point x="165.5" y="402.3"/>
      <point x="209.7" y="360.7" type="curve"/>
      <point x="111.89999999999999" y="317.0"/>
      <point x="33.3" y="272.6"/>
      <point x="33.3" y="157.8" type="curve" smooth="yes"/>
      <point x="33.3" y="60.6"/>
      <point x="122.6" y="-10.0"/>
    </contour>
    <contour>
      <point x="254.0" y="52.199999999999996" type="curve" smooth="yes"/>
      <point x="207.5" y="52.199999999999996"/>
      <point x="179.8" y="90.2"/>
      <point x="179.8" y="151.4" type="curve" smooth="yes"/>
      <point x="179.8" y="231.3"/>
      <point x="213.60000000000002" y="286.1"/>
      <point x="271.59999999999997" y="317.2" type="curve"/>
      <point x="322.0" y="278.2"/>
      <point x="349.7" y="236.6"/>
      <point x="349.7" y="177.3" type="curve" smooth="yes"/>
      <point x="349.7" y="94.69999999999999"/>
      <point x="305.29999999999995" y="52.199999999999996"/>
    </contour>
    <contour>
      <point x="340.0" y="418.2" type="curve"/>
      <point x="304.09999999999997" y="449.20000000000005"/>
      <point x="284.7" y="492.1"/>
      <point x="284.7" y="539.4" type="curve" smooth="yes"/>
      <point x="284.7" y="613.9"/>
      <point x="319.5" y="662.1"/>
      <point x="360.5" y="662.1" type="curve" smooth="yes"/>
      <point x="394.8" y="662.1"/>
      <point x="413.2" y="625.1999999999999"/>
      <point x="413.2" y="576.6" type="curve" smooth="yes"/>
      <point x="413.2" y="514.5"/>
      <point x="393.0" y="458.7"/>
    </contour>
  </outline>
</glyph>
<glyph name="nine" format="2">
  <advance width="524.1999999999999"/>
  <unicode hex="0039"/>
  <outline>
    <contour>
      <point x="171.3" y="-10.0" type="curve" smooth="yes"/>
      <point x="429.6" y="-10.0"/>
      <point x="536.6999999999999" y="343.5"/>
      <point x="536.6999999999999" y="535.4000000000001" type="curve" smooth="yes"/>
      <point x="536.6999999999999" y="655.8000000000001"/>
      <point x="469.29999999999995" y="724.0"/>
      <point x="360.8" y="724.0" type="curve" smooth="yes"/>
      <point x="217.4" y="724.0"/>
      <point x="92.4" y="604.5"/>
      <point x="92.4" y="434.0" type="curve" smooth="yes"/>
      <point x="92.4" y="341.2"/>
      <point x="142.5" y="275.0"/>
      <point x="233.60000000000002" y="275.0" type="curve" smooth="yes"/>
      <point x="292.9" y="275.0"/>
      <point x="334.4" y="308.0"/>
      <point x="364.59999999999997" y="343.0" type="curve"/>
      <point x="316.3" y="159.9"/>
      <point x="267.1" y="59.5"/>
      <point x="184.3" y="59.5" type="curve" smooth="yes"/>
      <point x="134.0" y="59.5"/>
      <point x="115.89999999999999" y="120.10000000000001"/>
      <point x="116.30000000000001" y="173.7" type="curve"/>
      <point x="63.900000000000006" y="173.7"/>
      <point x="32.7" y="145.0"/>
      <point x="32.7" y="96.7" type="curve" smooth="yes"/>
      <point x="32.7" y="36.6"/>
      <point x="80.0" y="-10.0"/>
    </contour>
    <contour>
      <point x="295.8" y="355.09999999999997" type="curve" smooth="yes"/>
      <point x="265.8" y="355.09999999999997"/>
      <point x="248.70000000000002" y="384.7"/>
      <point x="248.70000000000002" y="441.5" type="curve" smooth="yes"/>
      <point x="248.70000000000002" y="541.0"/>
      <point x="289.90000000000003" y="651.5"/>
      <point x="342.5" y="651.5" type="curve" smooth="yes"/>
      <point x="370.5" y="651.5"/>
      <point x="389.9" y="619.6"/>
      <point x="389.9" y="545.6" type="curve" smooth="yes"/>
      <point x="389.9" y="511.20000000000005"/>
      <point x="383.2" y="462.0"/>
      <point x="374.5" y="429.2" type="curve"/>
      <point x="357.59999999999997" y="393.5"/>
      <point x="331.8" y="355.09999999999997"/>
    </contour>
  </outline>
</glyph>
<glyph name="colon" format="2">
  <advance width="366.2"/>
  <unicode hex="003A"/>
  <outline>
    <contour>
      <point x="217.2" y="367.3" type="curve" smooth="yes"/>
      <point x="262.0" y="367.3"/>
      <point x="310.8" y="393.3"/>
      <point x="310.8" y="466.6" type="curve" smooth="yes"/>
      <point x="310.8" y="517.4000000000001"/>
      <point x="276.40000000000003" y="541.0"/>
      <point x="228.39999999999998" y="541.0" type="curve" smooth="yes"/>
      <point x="171.29999999999998" y="541.0"/>
      <point x="134.79999999999998" y="501.0"/>
      <point x="134.79999999999998" y="441.70000000000005" type="curve" smooth="yes"/>
      <point x="134.79999999999998" y="391.9"/>
      <point x="168.2" y="367.3"/>
    </contour>
    <contour>
      <point x="131.9" y="-8.0" type="curve" smooth="yes"/>
      <point x="176.7" y="-8.0"/>
      <point x="225.5" y="17.0"/>
      <point x="225.5" y="90.6" type="curve" smooth="yes"/>
      <point x="225.5" y="141.1"/>
      <point x="191.1" y="165.7"/>
      <point x="143.1" y="165.7" type="curve" smooth="yes"/>
      <point x="86.0" y="165.7"/>
      <point x="49.5" y="125.7"/>
      <point x="49.5" y="66.4" type="curve" smooth="yes"/>
      <point x="49.5" y="15.600000000000001"/>
      <point x="83.60000000000001" y="-8.0"/>
    </contour>
  </outline>
</glyph>
<glyph name="semicolon" format="2">
  <advance width="365.5"/>
  <unicode hex="003B"/>
  <outline>
    <contour>
      <point x="-15.8" y="-153.6" type="line"/>
      <point x="130.8" y="-123.3"/>
      <point x="209.8" y="-34.6"/>
      <point x="209.8" y="73.3" type="curve" smooth="yes"/>
      <point x="209.8" y="131.8"/>
      <point x="175.79999999999998" y="164.70000000000002"/>
      <point x="130.8" y="164.70000000000002" type="curve" smooth="yes"/>
      <point x="90.0" y="164.70000000000002"/>
      <point x="53.5" y="135.4"/>
      <point x="53.5" y="88.0" type="curve" smooth="yes"/>
      <point x="53.5" y="31.6"/>
      <point x="92.7" y="31.5"/>
      <point x="92.7" y="-10.3" type="curve" smooth="yes"/>
      <point x="92.7" y="-50.7"/>
      <point x="61.199999999999996" y="-78.4"/>
      <point x="0.2000000000000004" y="-95.4" type="curve"/>
    </contour>
    <contour>
      <point x="217.2" y="367.3" type="curve" smooth="yes"/>
      <point x="261.3" y="367.3"/>
      <point x="310.8" y="393.3"/>
      <point x="310.8" y="466.6" type="curve" smooth="yes"/>
      <point x="310.8" y="517.4000000000001"/>
      <point x="275.7" y="541.0"/>
      <point x="227.7" y="541.0" type="curve" smooth="yes"/>
      <point x="171.29999999999998" y="541.0"/>
      <point x="134.1" y="501.0"/>
      <point x="134.1" y="441.70000000000005" type="curve" smooth="yes"/>
      <point x="134.1" y="391.9"/>
      <point x="168.2" y="367.3"/>
    </contour>
  </outline>
</glyph>
<glyph name="less" format="2">
  <advance width="468.2"/>
  <unicode hex="003C"/>
  <outline>
    <contour>
      <point x="451.6" y="99.1" type="line"/>
      <point x="451.6" y="183.3" type="line"/>
      <point x="170.0" y="357.0" type="line"/>
      <point x="451.6" y="532.7" type="line"/>
      <point x="451.6" y="616.9" type="line"/>
      <point x="67.0" y="379.3" type="line"/>
      <point x="67.0" y="335.7" type="line"/>
    </contour>
  </outline>
</glyph>
<glyph name="equal" format="2">
  <advance width="468.2"/>
  <unicode hex="003D"/>
  <outline>
    <contour>
      <point x="64.0" y="412.79999999999995" type="line"/>
      <point x="454.90000000000003" y="412.79999999999995" type="line"/>
      <point x="454.90000000000003" y="487.3" type="line"/>
      <point x="64.0" y="487.3" type="line"/>
    </contour>
    <contour>
      <point x="64.0" y="226.70000000000002" type="line"/>
      <point x="454.90000000000003" y="226.70000000000002" type="line"/>
      <point x="454.90000000000003" y="301.20000000000005" type="line"/>
      <point x="64.0" y="301.20000000000005" type="line"/>
    </contour>
  </outline>
</glyph>
<glyph name="question" format="2">
  <advance width="492.4"/>
  <unicode hex="003F"/>
  <outline>
    <contour>
      <point x="180.3" y="238.0" type="line"/>
      <point x="250.9" y="238.0" type="line"/>
      <point x="286.59999999999997" y="317.0" type="line"/>
      <point x="415.20000000000005" y="368.7"/>
      <point x="511.70000000000005" y="444.09999999999997"/>
      <point x="511.70000000000005" y="564.3000000000001" type="curve" smooth="yes"/>
      <point x="511.70000000000005" y="674.4000000000001"/>
      <point x="435.0" y="724.0"/>
      <point x="307.9" y="724.0" type="curve" smooth="yes"/>
      <point x="172.4" y="724.0"/>
      <point x="81.8" y="666.9"/>
      <point x="81.8" y="592.9" type="curve" smooth="yes"/>
      <point x="81.8" y="537.1"/>
      <point x="129.2" y="510.2"/>
      <point x="225.29999999999998" y="510.2" type="curve"/>
      <point x="232.70000000000002" y="586.1999999999999"/>
      <point x="252.3" y="657.8000000000001"/>
      <point x="291.90000000000003" y="657.8000000000001" type="curve" smooth="yes"/>
      <point x="315.59999999999997" y="657.8000000000001"/>
      <point x="334.0" y="624.5999999999999"/>
      <point x="334.0" y="566.5" type="curve" smooth="yes"/>
      <point x="334.0" y="448.9"/>
      <point x="266.7" y="396.7"/>
      <point x="162.9" y="353.3" type="curve"/>
    </contour>
    <contour>
      <point x="187.4" y="-8.0" type="curve" smooth="yes"/>
      <point x="232.20000000000002" y="-8.0"/>
      <point x="281.0" y="17.0"/>
      <point x="281.0" y="90.6" type="curve" smooth="yes"/>
      <point x="281.0" y="141.1"/>
      <point x="246.6" y="165.7"/>
      <point x="198.6" y="165.7" type="curve" smooth="yes"/>
      <point x="141.5" y="165.7"/>
      <point x="105.0" y="125.7"/>
      <point x="105.0" y="66.4" type="curve" smooth="yes"/>
      <point x="105.0" y="15.600000000000001"/>
      <point x="138.4" y="-8.0"/>
    </contour>
  </outline>
</glyph>
<glyph name="bracketleft" format="2">
  <advance width="400.8"/>
  <unicode hex="005B"/>
  <outline>
    <contour>
      <point x="26.7" y="-128.0" type="line"/>
      <point x="308.7" y="-128.0" type="line"/>
      <point x="320.7" y="-69.8" type="line"/>
      <point x="283.29999999999995" y="-69.8" type="line" smooth="yes"/>
      <point x="253.89999999999998" y="-69.8"/>
      <point x="226.8" y="-63.800000000000004"/>
      <point x="226.8" y="-22.0" type="curve" smooth="yes"/>
      <point x="226.8" y="-12.600000000000001"/>
      <point x="227.5" y="-6.5"/>
      <point x="229.5" y="3.8" type="curve"/>
      <point x="359.8" y="629.8000000000001" type="line"/>
      <point x="372.8" y="692.8000000000001"/>
      <point x="409.9" y="701.8000000000001"/>
      <point x="446.59999999999997" y="701.8000000000001" type="curve" smooth="yes"/>
      <point x="484.70000000000005" y="701.8000000000001" type="line"/>
      <point x="497.69999999999993" y="760.0" type="line"/>
      <point x="215.70000000000002" y="760.0" type="line"/>
    </contour>
  </outline>
</glyph>
<glyph name="backslash" format="2">
  <advance width="250.9"/>
  <unicode hex="005C"/>
  <outline>
    <contour>
      <point x="143.20000000000002" y="-121.0" type="line"/>
      <point x="212.10000000000002" y="-121.0" type="line"/>
      <point x="180.9" y="760.0" type="line"/>
      <point x="111.0" y="760.0" type="line"/>
    </contour>
  </outline>
</glyph>
<glyph name="bracketright" format="2">
  <advance width="400.8"/>
  <unicode hex="005D"/>
  <outline>
    <contour>
      <point x="-55.2" y="-128.0" type="line"/>
      <point x="225.8" y="-128.0" type="line"/>
      <point x="414.8" y="760.0" type="line"/>
      <point x="132.79999999999998" y="760.0" type="line"/>
      <point x="120.80000000000001" y="701.8000000000001" type="line"/>
      <point x="158.20000000000002" y="701.8000000000001" type="line" smooth="yes"/>
      <point x="187.6" y="701.8000000000001"/>
      <point x="214.4" y="695.8000000000001"/>
      <point x="214.4" y="654.0" type="curve" smooth="yes"/>
      <point x="214.4" y="644.6"/>
      <point x="213.70000000000002" y="638.5"/>
      <point x="211.70000000000002" y="628.1999999999999" type="curve" smooth="yes"/>
      <point x="82.39999999999999" y="2.2" type="line"/>
      <point x="69.39999999999999" y="-60.800000000000004"/>
      <point x="34.3" y="-69.8"/>
      <point x="-4.1" y="-69.8" type="curve" smooth="yes"/>
      <point x="-41.5" y="-69.8" type="line"/>
    </contour>
  </outline>
</glyph>
<glyph name="asciicircum" format="2">
  <advance width="468.2"/>
  <unicode hex="005E"/>
  <outline>
    <contour>
      <point x="46.8" y="254.39999999999998" type="line"/>
      <point x="122.3" y="254.39999999999998" type="line"/>
      <point x="257.8" y="597.6" type="line"/>
      <point x="394.3" y="254.39999999999998" type="line"/>
      <point x="470.5" y="254.39999999999998" type="line"/>
      <point x="280.0" y="714.0" type="line"/>
      <point x="236.6" y="714.0" type="line"/>
    </contour>
  </outline>
</glyph>
<glyph name="underscore" format="2">
  <advance width="399.5"/>
  <unicode hex="005F"/>
  <outline>
    <contour>
      <point x="-83.3" y="-142.0" type="line"/>
      <point x="324.5" y="-142.0" type="line"/>
      <point x="337.5" y="-83.0" type="line"/>
      <point x="-70.3" y="-83.0" type="line"/>
    </contour>
  </outline>
</glyph>
<glyph name="braceleft" format="2">
  <advance width="395.3"/>
  <unicode hex="007B"/>
  <outline>
    <contour>
      <point x="208.7" y="-123.7" type="curve" smooth="yes"/>
      <point x="312.8" y="-123.7" type="line"/>
      <point x="326.8" y="-65.5" type="line"/>
      <point x="286.7" y="-65.5" type="line" smooth="yes"/>
      <point x="255.70000000000002" y="-65.5"/>
      <point x="245.10000000000002" y="-49.5"/>
      <point x="245.10000000000002" y="-21.2" type="curve" smooth="yes"/>
      <point x="245.10000000000002" y="-4.4"/>
      <point x="246.8" y="11.6"/>
      <point x="250.8" y="28.6" type="curve" smooth="yes"/>
      <point x="283.6" y="175.1" type="line" smooth="yes"/>
      <point x="287.0" y="190.4"/>
      <point x="291.5" y="212.4"/>
      <point x="291.5" y="228.79999999999998" type="curve" smooth="yes"/>
      <point x="291.5" y="269.40000000000003"/>
      <point x="268.70000000000005" y="297.09999999999997"/>
      <point x="217.5" y="316.0" type="curve"/>
      <point x="220.1" y="323.5" type="line"/>
      <point x="293.0" y="343.1"/>
      <point x="325.4" y="381.2"/>
      <point x="338.1" y="440.0" type="curve" smooth="yes"/>
      <point x="370.90000000000003" y="590.8000000000001" type="line" smooth="yes"/>
      <point x="388.1" y="670.8"/>
      <point x="399.4" y="702.8000000000001"/>
      <point x="446.7" y="702.8000000000001" type="curve" smooth="yes"/>
      <point x="487.79999999999995" y="702.8000000000001" type="line"/>
      <point x="500.8" y="760.0" type="line"/>
      <point x="413.9" y="760.0" type="line" smooth="yes"/>
      <point x="289.79999999999995" y="760.0"/>
      <point x="219.5" y="726.6"/>
      <point x="196.10000000000002" y="613.7" type="curve" smooth="yes"/>
      <point x="160.4" y="441.0" type="line" smooth="yes"/>
      <point x="145.7" y="369.6"/>
      <point x="100.39999999999999" y="355.2"/>
      <point x="42.8" y="354.2" type="curve"/>
      <point x="26.799999999999997" y="284.09999999999997" type="line"/>
      <point x="74.39999999999999" y="282.09999999999997"/>
      <point x="111.1" y="272.7"/>
      <point x="111.1" y="222.8" type="curve" smooth="yes"/>
      <point x="111.1" y="215.4"/>
      <point x="110.39999999999999" y="205.7"/>
      <point x="108.39999999999999" y="195.60000000000002" type="curve" smooth="yes"/>
      <point x="83.39999999999999" y="79.5" type="line" smooth="yes"/>
      <point x="70.8" y="19.099999999999998"/>
      <point x="69.39999999999999" y="0.8999999999999995"/>
      <point x="69.39999999999999" y="-15.0" type="curve" smooth="yes"/>
      <point x="69.39999999999999" y="-81.5"/>
      <point x="115.4" y="-123.7"/>
    </contour>
  </outline>
</glyph>
<glyph name="braceright" format="2">
  <advance width="395.29999999999995"/>
  <unicode hex="007D"/>
  <outline>
    <contour>
      <point x="-53.5" y="-122.4" type="line"/>
      <point x="32.4" y="-122.4" type="line" smooth="yes"/>
      <point x="157.2" y="-122.4"/>
      <point x="227.20000000000002" y="-86.89999999999999"/>
      <point x="250.90000000000003" y="24.6" type="curve" smooth="yes"/>
      <point x="286.90000000000003" y="195.60000000000002" type="line" smooth="yes"/>
      <point x="301.90000000000003" y="267.7"/>
      <point x="346.9" y="281.09999999999997"/>
      <point x="404.5" y="282.8" type="curve"/>
      <point x="420.5" y="352.2" type="line"/>
      <point x="372.9" y="354.2"/>
      <point x="336.2" y="363.90000000000003"/>
      <point x="336.2" y="414.5" type="curve" smooth="yes"/>
      <point x="336.2" y="421.90000000000003"/>
      <point x="336.90000000000003" y="431.6"/>
      <point x="338.90000000000003" y="441.0" type="curve" smooth="yes"/>
      <point x="370.2" y="592.4000000000001" type="line" smooth="yes"/>
      <point x="377.6" y="627.1999999999999"/>
      <point x="377.59999999999997" y="640.9"/>
      <point x="377.59999999999997" y="652.6" type="curve" smooth="yes"/>
      <point x="377.59999999999997" y="719.8"/>
      <point x="331.6" y="762.0"/>
      <point x="238.6" y="762.0" type="curve" smooth="yes"/>
      <point x="133.5" y="762.0" type="line"/>
      <point x="119.5" y="703.8000000000001" type="line"/>
      <point x="160.60000000000002" y="703.8000000000001" type="line" smooth="yes"/>
      <point x="191.6" y="703.8000000000001"/>
      <point x="201.20000000000002" y="687.8"/>
      <point x="201.20000000000002" y="659.5" type="curve" smooth="yes"/>
      <point x="201.20000000000002" y="642.6999999999999"/>
      <point x="199.5" y="626.6999999999999"/>
      <point x="195.5" y="609.7" type="curve" smooth="yes"/>
      <point x="163.4" y="457.59999999999997" type="line" smooth="yes"/>
      <point x="160.7" y="446.2"/>
      <point x="155.8" y="424.2"/>
      <point x="155.8" y="408.5" type="curve" smooth="yes"/>
      <point x="155.8" y="368.2"/>
      <point x="177.6" y="339.9"/>
      <point x="229.5" y="322.0" type="curve"/>
      <point x="226.5" y="311.7" type="line"/>
      <point x="153.29999999999998" y="291.09999999999997"/>
      <point x="121.2" y="254.7"/>
      <point x="108.5" y="197.3" type="curve" smooth="yes"/>
      <point x="71.5" y="28.6" type="line" smooth="yes"/>
      <point x="58.5" y="-31.800000000000004"/>
      <point x="48.6" y="-64.5"/>
      <point x="-0.3999999999999999" y="-64.5" type="curve" smooth="yes"/>
      <point x="-40.5" y="-64.5" type="line"/>
    </contour>
  </outline>
</glyph>
<glyph name="asciitilde" format="2">
  <advance width="468.2"/>
  <unicode hex="007E"/>
  <outline>
    <contour>
      <point x="42.7" y="259.09999999999997" type="curve"/>
      <point x="118.7" y="259.09999999999997" type="line"/>
      <point x="118.7" y="343.7"/>
      <point x="136.2" y="375.1"/>
      <point x="167.10000000000002" y="375.1" type="curve" smooth="yes"/>
      <point x="187.8" y="375.1"/>
      <point x="199.70000000000002" y="362.6"/>
      <point x="236.8" y="324.40000000000003" type="curve" smooth="yes"/>
      <point x="289.09999999999997" y="271.2"/>
      <point x="315.7" y="259.09999999999997"/>
      <point x="354.5" y="259.09999999999997" type="curve" smooth="yes"/>
      <point x="448.4" y="259.09999999999997"/>
      <point x="475.4" y="339.79999999999995"/>
      <point x="476.3" y="453.9" type="curve"/>
      <point x="399.7" y="453.9" type="line"/>
      <point x="399.70000000000005" y="368.20000000000005"/>
      <point x="384.29999999999995" y="337.9"/>
      <point x="354.40000000000003" y="337.9" type="curve" smooth="yes"/>
      <point x="332.9" y="337.9"/>
      <point x="320.59999999999997" y="352.90000000000003"/>
      <point x="286.0" y="386.2" type="curve" smooth="yes"/>
      <point x="231.29999999999998" y="438.79999999999995"/>
      <point x="206.7" y="453.9"/>
      <point x="166.4" y="453.9" type="curve" smooth="yes"/>
      <point x="73.4" y="453.9"/>
      <point x="42.7" y="369.90000000000003"/>
    </contour>
  </outline>
</glyph>
<glyph name="twosuperior" format="2">
  <advance width="348.5"/>
  <unicode hex="00B2"/>
  <outline>
    <contour>
      <point x="62.5" y="386.0" type="line"/>
      <point x="355.2" y="386.0" type="line"/>
      <point x="383.2" y="535.4" type="line"/>
      <point x="346.09999999999997" y="535.4" type="line"/>
      <point x="338.79999999999995" y="514.4" type="line" smooth="yes"/>
      <point x="331.5" y="492.4"/>
      <point x="318.2" y="473.4"/>
      <point x="291.4" y="473.4" type="curve" smooth="yes"/>
      <point x="156.3" y="473.4" type="line"/>
      <point x="272.0" y="561.8" type="line" smooth="yes"/>
      <point x="377.2" y="642.6"/>
      <point x="412.3" y="683.3000000000001"/>
      <point x="412.3" y="738.6999999999999" type="curve" smooth="yes"/>
      <point x="412.3" y="789.6999999999999"/>
      <point x="366.7" y="824.0"/>
      <point x="292.6" y="824.0" type="curve" smooth="yes"/>
      <point x="205.79999999999998" y="824.0"/>
      <point x="151.1" y="783.3000000000001"/>
      <point x="151.1" y="727.7" type="curve" smooth="yes"/>
      <point x="151.1" y="696.4"/>
      <point x="179.9" y="675.8"/>
      <point x="224.9" y="675.8" type="curve"/>
      <point x="230.6" y="729.1"/>
      <point x="249.5" y="776.4"/>
      <point x="275.6" y="776.4" type="curve" smooth="yes"/>
      <point x="297.4" y="776.4"/>
      <point x="305.3" y="755.0999999999999"/>
      <point x="305.3" y="731.8" type="curve" smooth="yes"/>
      <point x="305.3" y="680.0"/>
      <point x="282.4" y="634.0"/>
      <point x="209.4" y="576.4" type="curve" smooth="yes"/>
      <point x="84.2" y="477.8" type="line"/>
    </contour>
  </outline>
</glyph>
<glyph name="threesuperior" format="2">
  <advance width="348.5"/>
  <unicode hex="00B3"/>
  <outline>
    <contour>
      <point x="205.5" y="380.0" type="curve" smooth="yes"/>
      <point x="308.2" y="380.0"/>
      <point x="387.79999999999995" y="429.4"/>
      <point x="387.79999999999995" y="520.8" type="curve" smooth="yes"/>
      <point x="387.79999999999995" y="573.7"/>
      <point x="354.1" y="603.0"/>
      <point x="302.2" y="610.0" type="curve"/>
      <point x="303.2" y="615.0" type="line"/>
      <point x="368.5" y="630.7"/>
      <point x="414.9" y="664.4"/>
      <point x="414.9" y="735.8" type="curve" smooth="yes"/>
      <point x="414.9" y="783.6999999999999"/>
      <point x="376.9" y="824.0"/>
      <point x="293.9" y="824.0" type="curve" smooth="yes"/>
      <point x="205.1" y="824.0"/>
      <point x="151.39999999999998" y="783.3000000000001"/>
      <point x="151.39999999999998" y="736.3000000000001" type="curve" smooth="yes"/>
      <point x="151.39999999999998" y="705.0"/>
      <point x="182.5" y="689.4"/>
      <point x="232.2" y="689.4" type="curve"/>
      <point x="236.5" y="734.0"/>
      <point x="248.60000000000002" y="774.3"/>
      <point x="283.09999999999997" y="774.3" type="curve" smooth="yes"/>
      <point x="301.3" y="774.3"/>
      <point x="310.9" y="757.0"/>
      <point x="310.9" y="734.8" type="curve" smooth="yes"/>
      <point x="310.9" y="669.1"/>
      <point x="269.79999999999995" y="630.0"/>
      <point x="220.4" y="630.0" type="curve" smooth="yes"/>
      <point x="190.29999999999998" y="630.0" type="line"/>
      <point x="181.6" y="580.4000000000001" type="line"/>
      <point x="210.4" y="580.4000000000001" type="line" smooth="yes"/>
      <point x="264.3" y="580.4000000000001"/>
      <point x="288.1" y="551.1"/>
      <point x="288.1" y="516.1" type="curve" smooth="yes"/>
      <point x="288.1" y="458.3"/>
      <point x="254.6" y="434.9"/>
      <point x="215.5" y="434.9" type="curve" smooth="yes"/>
      <point x="162.89999999999998" y="434.9"/>
      <point x="145.4" y="483.90000000000003"/>
      <point x="146.8" y="520.9" type="curve"/>
      <point x="101.0" y="520.9"/>
      <point x="67.5" y="498.6"/>
      <point x="67.5" y="461.2" type="curve" smooth="yes"/>
      <point x="67.5" y="410.59999999999997"/>
      <point x="112.5" y="380.0"/>
    </contour>
  </outline>
</glyph>
<glyph name="multiply" format="2">
  <advance width="468.2"/>
  <unicode hex="00D7"/>
  <outline>
    <contour>
      <point x="131.2" y="161.2" type="line"/>
      <point x="258.1" y="303.40000000000003" type="line"/>
      <point x="383.90000000000003" y="163.29999999999998" type="line"/>
      <point x="438.5" y="213.0" type="line"/>
      <point x="307.8" y="359.4" type="line"/>
      <point x="438.5" y="505.1" type="line"/>
      <point x="382.90000000000003" y="554.4" type="line"/>
      <point x="258.1" y="415.3" type="line"/>
      <point x="131.9" y="556.1999999999999" type="line"/>
      <point x="76.0" y="507.2" type="line"/>
      <point x="207.8" y="359.7" type="line"/>
      <point x="76.0" y="211.20000000000002" type="line"/>
    </contour>
  </outline>
</glyph>
<glyph name="divide" format="2">
  <advance width="468.2"/>
  <unicode hex="00F7"/>
  <outline>
    <contour>
      <point x="67.0" y="320.09999999999997" type="line"/>
      <point x="451.6" y="320.09999999999997" type="line"/>
      <point x="451.6" y="394.90000000000003" type="line"/>
      <point x="67.0" y="394.90000000000003" type="line"/>
    </contour>
    <contour>
      <point x="259.8" y="102.1" type="curve" smooth="yes"/>
      <point x="289.3" y="102.1"/>
      <point x="313.2" y="118.4"/>
      <point x="313.2" y="165.0" type="curve" smooth="yes"/>
      <point x="313.2" y="212.60000000000002"/>
      <point x="289.3" y="227.9"/>
      <point x="259.8" y="227.9" type="curve" smooth="yes"/>
      <point x="227.6" y="227.9"/>
      <point x="205.39999999999998" y="212.60000000000002"/>
      <point x="205.39999999999998" y="165.0" type="curve" smooth="yes"/>
      <point x="205.39999999999998" y="118.4"/>
      <point x="227.6" y="102.1"/>
    </contour>
    <contour>
      <point x="259.8" y="487.09999999999997" type="curve" smooth="yes"/>
      <point x="289.3" y="487.09999999999997"/>
      <point x="313.2" y="503.4"/>
      <point x="313.2" y="550.0" type="curve" smooth="yes"/>
      <point x="313.2" y="597.5999999999999"/>
      <point x="289.3" y="612.9"/>
      <point x="259.8" y="612.9" type="curve" smooth="yes"/>
      <point x="227.6" y="612.9"/>
      <point x="205.39999999999998" y="597.5999999999999"/>
      <point x="205.39999999999998" y="550.0" type="curve" smooth="yes"/>
      <point x="205.39999999999998" y="503.4"/>
      <point x="227.6" y="487.09999999999997"/>
    </contour>
  </outline>
</glyph>
<glyph name="udatta-deva" format="2">
  <unicode hex="0951"/>
  <anchor x="64.3" y="578.4" name="_vedic"/>
  <outline>
    <contour>
      <point x="108.3" y="960.2" type="line"/>
      <point x="182.20000000000002" y="960.2" type="line"/>
      <point x="226.5" y="1167.5" type="line"/>
      <point x="152.6" y="1167.5" type="line"/>
    </contour>
  </outline>
</glyph>
<glyph name="anudatta-deva" format="2">
  <unicode hex="0952"/>
  <anchor x="-59.0" y="0.0" name="_bottom"/>
  <outline>
    <contour>
      <point x="-375.90000000000003" y="-577.6" type="line"/>
      <point x="13.100000000000001" y="-577.6" type="line"/>
      <point x="33.699999999999996" y="-480.00000000000006" type="line"/>
      <point x="-355.6" y="-480.00000000000006" type="line"/>
    </contour>
  </outline>
</glyph>
<glyph name="danda-deva" format="2">
  <advance width="315.29999999999995"/>
  <unicode hex="0964"/>
  <outline>
    <contour>
      <point x="3.2000000000000006" y="0.0" type="line"/>
      <point x="188.8" y="0.0" type="line"/>
      <point x="312.1" y="578.4" type="line"/>
      <point x="125.8" y="578.4" type="line"/>
    </contour>
  </outline>
</glyph>
<glyph name="dbldanda-deva" format="2">
  <advance width="589.7"/>
  <unicode hex="0965"/>
  <outline>
    <contour>
      <point x="277.59999999999997" y="0.0" type="line"/>
      <point x="463.2" y="0.0" type="line"/>
      <point x="586.5" y="578.4" type="line"/>
      <point x="400.2" y="578.4" type="line"/>
    </contour>
    <contour>
      <point x="3.2000000000000006" y="0.0" type="line"/>
      <point x="188.8" y="0.0" type="line"/>
      <point x="312.1" y="578.4" type="line"/>
      <point x="125.8" y="578.4" type="line"/>
    </contour>
  </outline>
</glyph>
<glyph name="anusvara-tamil" format="2">
  <unicode hex="0B82"/>
  <note>
uni0B82
</note>
  <anchor x="64.3" y="578.4" name="_top"/>
  <outline>
    <contour>
      <point x="102.9" y="625.2" type="curve" smooth="yes"/>
      <point x="183.7" y="625.2"/>
      <point x="249.20000000000002" y="688.6999999999999"/>
      <point x="249.20000000000002" y="772.5" type="curve" smooth="yes"/>
      <point x="249.20000000000002" y="855.9"/>
      <point x="183.7" y="918.4"/>
      <point x="102.9" y="918.4" type="curve" smooth="yes"/>
      <point x="22.1" y="918.4"/>
      <point x="-43.4" y="855.9"/>
      <point x="-43.4" y="772.5" type="curve" smooth="yes"/>
      <point x="-43.4" y="688.6999999999999"/>
      <point x="22.1" y="625.2"/>
    </contour>
    <contour>
      <point x="102.9" y="711.4" type="curve" smooth="yes"/>
      <point x="71.7" y="711.4"/>
      <point x="43.8" y="738.3000000000001"/>
      <point x="43.8" y="771.8000000000001" type="curve" smooth="yes"/>
      <point x="43.8" y="805.0"/>
      <point x="71.7" y="831.9"/>
      <point x="102.9" y="831.9" type="curve" smooth="yes"/>
      <point x="134.1" y="831.9"/>
      <point x="162.0" y="805.0"/>
      <point x="162.0" y="771.8000000000001" type="curve" smooth="yes"/>
      <point x="162.0" y="738.3000000000001"/>
      <point x="134.1" y="711.4"/>
    </contour>
  </outline>
</glyph>
<glyph name="visarga-tamil" format="2">
  <advance width="790.3000000000001"/>
  <unicode hex="0B83"/>
  <note>
uni0B83
</note>
  <outline>
    <contour>
      <point x="143.5" y="-5.0" type="curve" smooth="yes"/>
      <point x="256.0" y="-5.0"/>
      <point x="342.1" y="97.5"/>
      <point x="342.09999999999997" y="227.4" type="curve" smooth="yes"/>
      <point x="342.09999999999997" y="327.0"/>
      <point x="286.2" y="377.9"/>
      <point x="202.0" y="377.9" type="curve" smooth="yes"/>
      <point x="84.4" y="377.9"/>
      <point x="11.9" y="257.5"/>
      <point x="11.9" y="143.1" type="curve" smooth="yes"/>
      <point x="11.9" y="56.1"/>
      <point x="59.1" y="-5.0"/>
    </contour>
    <contour>
      <point x="127.80000000000001" y="74.4" type="curve" smooth="yes"/>
      <point x="94.1" y="74.4"/>
      <point x="81.60000000000001" y="101.60000000000001"/>
      <point x="81.60000000000001" y="148.70000000000002" type="curve" smooth="yes"/>
      <point x="81.60000000000001" y="218.2"/>
      <point x="117.4" y="297.5"/>
      <point x="168.4" y="297.5" type="curve" smooth="yes"/>
      <point x="203.5" y="297.5"/>
      <point x="213.20000000000002" y="269.6"/>
      <point x="213.20000000000002" y="226.39999999999998" type="curve" smooth="yes"/>
      <point x="213.20000000000002" y="151.5"/>
      <point x="178.8" y="74.4"/>
    </contour>
    <contour>
      <point x="535.6999999999999" y="-5.0" type="curve" smooth="yes"/>
      <point x="648.2" y="-5.0"/>
      <point x="734.3" y="97.5"/>
      <point x="734.3000000000001" y="227.4" type="curve" smooth="yes"/>
      <point x="734.3" y="327.0"/>
      <point x="678.4" y="377.9"/>
      <point x="594.1999999999999" y="377.9" type="curve" smooth="yes"/>
      <point x="476.59999999999997" y="377.9"/>
      <point x="404.09999999999997" y="257.5"/>
      <point x="404.09999999999997" y="143.1" type="curve" smooth="yes"/>
      <point x="404.09999999999997" y="56.1"/>
      <point x="451.3" y="-5.0"/>
    </contour>
    <contour>
      <point x="520.0" y="74.4" type="curve" smooth="yes"/>
      <point x="486.3" y="74.4"/>
      <point x="473.8" y="101.60000000000001"/>
      <point x="473.8" y="148.70000000000002" type="curve" smooth="yes"/>
      <point x="473.8" y="218.2"/>
      <point x="509.6" y="297.5"/>
      <point x="560.6" y="297.5" type="curve" smooth="yes"/>
      <point x="595.6999999999999" y="297.5"/>
      <point x="605.4" y="269.6"/>
      <point x="605.4" y="226.39999999999998" type="curve" smooth="yes"/>
      <point x="605.4" y="151.5"/>
      <point x="571.0" y="74.4"/>
    </contour>
    <contour>
      <point x="434.5" y="439.3" type="curve" smooth="yes"/>
      <point x="547.0" y="439.3"/>
      <point x="633.1" y="541.1"/>
      <point x="633.1" y="671.0" type="curve" smooth="yes"/>
      <point x="633.1" y="771.3"/>
      <point x="577.2" y="822.2"/>
      <point x="493.0" y="822.2" type="curve" smooth="yes"/>
      <point x="375.4" y="822.2"/>
      <point x="302.9" y="701.8"/>
      <point x="302.9" y="587.4" type="curve" smooth="yes"/>
      <point x="302.9" y="500.4"/>
      <point x="350.1" y="439.3"/>
    </contour>
    <contour>
      <point x="418.79999999999995" y="518.7" type="curve" smooth="yes"/>
      <point x="385.1" y="518.7"/>
      <point x="372.59999999999997" y="545.9"/>
      <point x="372.59999999999997" y="593.0" type="curve" smooth="yes"/>
      <point x="372.59999999999997" y="662.5"/>
      <point x="408.4" y="741.8"/>
      <point x="459.40000000000003" y="741.8" type="curve" smooth="yes"/>
      <point x="494.5" y="741.8"/>
      <point x="504.2" y="713.9"/>
      <point x="504.2" y="670.7" type="curve" smooth="yes"/>
      <point x="504.2" y="595.8"/>
      <point x="469.79999999999995" y="518.7"/>
    </contour>
  </outline>
</glyph>
<glyph name="a-tamil" format="2">
  <advance width="1241.6"/>
  <unicode hex="0B85"/>
  <note>
uni0B85
</note>
  <anchor x="535.1999999999999" y="0.0" name="bottom"/>
  <anchor x="319.1" y="-166.5" name="nukta"/>
  <anchor x="649.8" y="578.4" name="top"/>
  <anchor x="649.8000000000001" y="578.4" name="vedic"/>
  <outline>
    <contour>
      <point x="883.8" y="-234.5" type="line"/>
      <point x="1068.8" y="-234.5" type="line"/>
      <point x="1242.1000000000001" y="578.4" type="line"/>
      <point x="1056.4" y="578.4" type="line"/>
      <point x="966.2" y="154.3" type="line"/>
      <point x="78.3" y="154.3" type="line" smooth="yes"/>
      <point x="15.3" y="154.3"/>
      <point x="-26.3" y="111.10000000000001"/>
      <point x="-26.3" y="46.7" type="curve" smooth="yes"/>
      <point x="-26.3" y="-75.3"/>
      <point x="136.6" y="-166.5"/>
      <point x="330.2" y="-166.5" type="curve" smooth="yes"/>
      <point x="634.9" y="-166.5"/>
      <point x="892.1" y="-2.6000000000000005"/>
      <point x="892.1" y="292.3" type="curve" smooth="yes"/>
      <point x="892.1" y="475.0"/>
      <point x="761.9000000000001" y="583.4"/>
      <point x="586.5" y="583.4" type="curve" smooth="yes"/>
      <point x="430.59999999999997" y="583.4"/>
      <point x="311.79999999999995" y="488.0"/>
      <point x="311.79999999999995" y="351.0" type="curve" smooth="yes"/>
      <point x="311.79999999999995" y="269.8"/>
      <point x="370.8" y="209.8"/>
      <point x="455.90000000000003" y="209.8" type="curve" smooth="yes"/>
      <point x="562.5" y="209.8"/>
      <point x="635.3" y="279.5"/>
      <point x="635.3" y="390.9" type="curve" smooth="yes"/>
      <point x="635.3" y="456.4"/>
      <point x="595.1" y="511.6"/>
      <point x="547.5" y="542.8000000000001" type="curve"/>
      <point x="484.2" y="531.6999999999999" type="line"/>
      <point x="521.0" y="503.0"/>
      <point x="540.0999999999999" y="456.7"/>
      <point x="540.0999999999999" y="412.9" type="curve" smooth="yes"/>
      <point x="540.0999999999999" y="351.3"/>
      <point x="510.70000000000005" y="297.2"/>
      <point x="452.0" y="297.2" type="curve" smooth="yes"/>
      <point x="419.5" y="297.2"/>
      <point x="392.2" y="320.3"/>
      <point x="392.2" y="365.7" type="curve" smooth="yes"/>
      <point x="392.2" y="448.9"/>
      <point x="461.5" y="511.2"/>
      <point x="558.2" y="511.2" type="curve" smooth="yes"/>
      <point x="658.8" y="511.2"/>
      <point x="725.8000000000001" y="441.2"/>
      <point x="725.8000000000001" y="320.3" type="curve" smooth="yes"/>
      <point x="725.8000000000001" y="68.0"/>
      <point x="571.5" y="-95.0"/>
      <point x="315.6" y="-95.0" type="curve" smooth="yes"/>
      <point x="174.20000000000002" y="-95.0"/>
      <point x="55.6" y="-24.700000000000003"/>
      <point x="55.6" y="44.3" type="curve" smooth="yes"/>
      <point x="55.6" y="70.89999999999999"/>
      <point x="66.5" y="82.9"/>
      <point x="91.2" y="82.9" type="curve" smooth="yes"/>
      <point x="950.9000000000001" y="82.9" type="line"/>
    </contour>
  </outline>
</glyph>
<glyph name="aa-tamil" format="2">
  <advance width="1485.1"/>
  <unicode hex="0B86"/>
  <note>
uni0B86
</note>
  <anchor x="679.9" y="0.0" name="bottom"/>
  <anchor x="305.09999999999997" y="-166.5" name="nukta"/>
  <anchor x="803.1999999999999" y="578.4" name="top"/>
  <anchor x="803.5999999999999" y="578.4" name="vedic"/>
  <outline>
    <contour>
      <point x="832.4000000000001" y="-432.5" type="curve" smooth="yes"/>
      <point x="1114.1000000000001" y="-432.5"/>
      <point x="1403.4" y="-281.59999999999997"/>
      <point x="1403.4" y="-26.799999999999997" type="curve" smooth="yes"/>
      <point x="1403.4" y="67.7"/>
      <point x="1345.8" y="118.8"/>
      <point x="1269.5" y="118.8" type="curve" smooth="yes"/>
      <point x="1181.0" y="118.8"/>
      <point x="1108.5" y="49.8"/>
      <point x="1066.1000000000001" y="-90.7" type="curve"/>
      <point x="1095.5" y="-97.7" type="line"/>
      <point x="1106.6999999999998" y="-37.9"/>
      <point x="1133.7" y="-13.700000000000001"/>
      <point x="1168.1" y="-13.700000000000001" type="curve" smooth="yes"/>
      <point x="1196.3" y="-13.700000000000001"/>
      <point x="1215.1" y="-32.0"/>
      <point x="1215.1" y="-67.2" type="curve" smooth="yes"/>
      <point x="1215.1" y="-242.89999999999998"/>
      <point x="1028.2" y="-361.9"/>
      <point x="835.5" y="-361.9" type="curve" smooth="yes"/>
      <point x="744.0" y="-361.9"/>
      <point x="673.5" y="-336.20000000000005"/>
      <point x="673.5" y="-281.2" type="curve" smooth="yes"/>
      <point x="673.5" y="-235.5"/>
      <point x="719.0" y="-213.1"/>
      <point x="778.4" y="-198.79999999999998" type="curve"/>
      <point x="765.0" y="-133.4" type="line"/>
      <point x="661.9" y="-159.6"/>
      <point x="598.0" y="-204.0"/>
      <point x="598.0" y="-289.2" type="curve" smooth="yes"/>
      <point x="598.0" y="-376.79999999999995"/>
      <point x="689.4" y="-432.5"/>
    </contour>
    <component base="a-tamil"/>
  </outline>
</glyph>
<glyph name="i-tamil" format="2">
  <advance width="960.4"/>
  <unicode hex="0B87"/>
  <note>
uni0B87
</note>
  <anchor x="398.5" y="0.0" name="bottom"/>
  <anchor x="335.0" y="-296.1" name="nukta"/>
  <anchor x="554.7" y="854.7" name="top"/>
  <anchor x="508.1" y="578.4" name="vedic"/>
  <outline>
    <contour>
      <point x="98.19999999999999" y="-333.2" type="curve" smooth="yes"/>
      <point x="426.1" y="-333.2"/>
      <point x="766.6" y="-10.1"/>
      <point x="766.6" y="322.4" type="curve" smooth="yes"/>
      <point x="766.6" y="490.79999999999995"/>
      <point x="666.3" y="583.4"/>
      <point x="499.2" y="583.4" type="curve" smooth="yes"/>
      <point x="360.5" y="583.4"/>
      <point x="238.79999999999998" y="479.0"/>
      <point x="238.79999999999998" y="350.6" type="curve" smooth="yes"/>
      <point x="238.79999999999998" y="268.7"/>
      <point x="292.7" y="209.8"/>
      <point x="375.79999999999995" y="209.8" type="curve" smooth="yes"/>
      <point x="487.09999999999997" y="209.8"/>
      <point x="559.0" y="283.9"/>
      <point x="559.0" y="393.40000000000003" type="curve" smooth="yes"/>
      <point x="559.0" y="459.59999999999997"/>
      <point x="522.0" y="515.4"/>
      <point x="475.8" y="544.2" type="curve"/>
      <point x="411.20000000000005" y="529.7" type="line"/>
      <point x="444.90000000000003" y="503.0"/>
      <point x="463.2" y="454.8"/>
      <point x="463.2" y="411.29999999999995" type="curve" smooth="yes"/>
      <point x="463.2" y="349.1"/>
      <point x="433.3" y="297.20000000000005"/>
      <point x="373.09999999999997" y="297.20000000000005" type="curve" smooth="yes"/>
      <point x="340.40000000000003" y="297.20000000000005"/>
      <point x="319.2" y="321.8"/>
      <point x="319.2" y="362.2" type="curve" smooth="yes"/>
      <point x="319.2" y="441.0"/>
      <point x="383.6" y="511.2"/>
      <point x="480.5" y="511.2" type="curve" smooth="yes"/>
      <point x="568.1999999999999" y="511.2"/>
      <point x="607.6" y="459.5"/>
      <point x="607.6" y="361.09999999999997" type="curve" smooth="yes"/>
      <point x="607.6" y="46.4"/>
      <point x="388.0" y="-256.6"/>
      <point x="106.2" y="-256.6" type="curve" smooth="yes"/>
      <point x="43.900000000000006" y="-256.6"/>
      <point x="14.200000000000001" y="-220.79999999999998"/>
      <point x="14.200000000000001" y="-176.1" type="curve" smooth="yes"/>
      <point x="14.200000000000001" y="-33.300000000000004"/>
      <point x="228.00000000000003" y="40.2"/>
      <point x="390.90000000000003" y="40.2" type="curve" smooth="yes"/>
      <point x="559.5" y="40.2"/>
      <point x="734.8" y="-29.500000000000004"/>
      <point x="734.8" y="-148.89999999999998" type="curve" smooth="yes"/>
      <point x="734.8" y="-219.9"/>
      <point x="686.8" y="-256.6"/>
      <point x="609.2" y="-256.6" type="curve" smooth="yes"/>
      <point x="373.29999999999995" y="-256.6"/>
      <point x="129.2" y="27.299999999999997"/>
      <point x="129.2" y="298.0" type="curve" smooth="yes"/>
      <point x="129.2" y="552.1999999999999"/>
      <point x="284.7" y="708.9"/>
      <point x="539.5" y="708.9" type="curve" smooth="yes"/>
      <point x="763.5999999999999" y="708.9"/>
      <point x="911.4" y="575.7"/>
      <point x="863.3" y="348.40000000000003" type="curve" smooth="yes"/>
      <point x="811.7" y="103.4" type="line"/>
      <point x="885.2" y="103.4" type="line"/>
      <point x="939.1" y="357.7" type="line" smooth="yes"/>
      <point x="1003.2" y="658.9000000000001"/>
      <point x="847.4" y="854.7"/>
      <point x="554.4" y="854.7" type="curve" smooth="yes"/>
      <point x="232.0" y="854.7"/>
      <point x="51.0" y="627.5"/>
      <point x="51.0" y="316.2" type="curve" smooth="yes"/>
      <point x="51.0" y="-22.300000000000004"/>
      <point x="356.2" y="-333.2"/>
      <point x="597.9" y="-333.2" type="curve" smooth="yes"/>
      <point x="724.5" y="-333.2"/>
      <point x="819.7" y="-272.8"/>
      <point x="820.0" y="-146.89999999999998" type="curve" smooth="yes"/>
      <point x="820.3000000000001" y="18.2"/>
      <point x="615.2" y="104.3"/>
      <point x="396.1" y="104.3" type="curve" smooth="yes"/>
      <point x="182.1" y="104.3"/>
      <point x="-69.2" y="8.200000000000001"/>
      <point x="-69.2" y="-190.7" type="curve" smooth="yes"/>
      <point x="-69.2" y="-273.7"/>
      <point x="-9.7" y="-333.2"/>
    </contour>
  </outline>
</glyph>
<glyph name="ii-tamil" format="2">
  <advance width="780.1"/>
  <unicode hex="0B88"/>
  <note>
uni0B88
</note>
  <anchor x="334.7" y="0.0" name="bottom"/>
  <anchor x="335.7" y="0.0" name="nukta"/>
  <anchor x="459.90000000000003" y="578.4" name="top"/>
  <anchor x="460.3" y="578.4" name="vedic"/>
  <outline>
    <contour>
      <point x="-0.4999999999999982" y="0.0" type="line"/>
      <point x="73.8" y="0.0" type="line"/>
      <point x="181.79999999999998" y="509.0" type="line"/>
      <point x="399.5" y="509.0" type="line"/>
      <point x="291.20000000000005" y="0.0" type="line"/>
      <point x="479.5" y="0.0" type="line"/>
      <point x="587.5" y="509.0" type="line"/>
      <point x="780.4" y="509.0" type="line"/>
      <point x="794.6999999999999" y="578.4" type="line"/>
      <point x="122.10000000000001" y="578.4" type="line"/>
    </contour>
    <contour>
      <point x="240.29999999999998" y="201.1" type="curve" smooth="yes"/>
      <point x="281.6" y="201.1"/>
      <point x="316.7" y="234.2"/>
      <point x="316.7" y="275.2" type="curve" smooth="yes"/>
      <point x="316.7" y="315.2"/>
      <point x="281.9" y="348.6"/>
      <point x="240.6" y="348.6" type="curve" smooth="yes"/>
      <point x="199.0" y="348.6"/>
      <point x="164.9" y="315.2"/>
      <point x="164.9" y="275.2" type="curve" smooth="yes"/>
      <point x="164.9" y="234.2"/>
      <point x="198.70000000000002" y="201.1"/>
    </contour>
    <contour>
      <point x="646.8" y="201.1" type="curve" smooth="yes"/>
      <point x="688.0999999999999" y="201.1"/>
      <point x="723.1999999999999" y="234.2"/>
      <point x="723.1999999999999" y="275.2" type="curve" smooth="yes"/>
      <point x="723.1999999999999" y="315.2"/>
      <point x="688.4" y="348.6"/>
      <point x="647.1" y="348.6" type="curve" smooth="yes"/>
      <point x="605.5" y="348.6"/>
      <point x="571.4000000000001" y="315.2"/>
      <point x="571.4000000000001" y="275.2" type="curve" smooth="yes"/>
      <point x="571.4000000000001" y="234.2"/>
      <point x="605.2" y="201.1"/>
    </contour>
  </outline>
</glyph>
<glyph name="u-tamil" format="2">
  <advance width="856.1"/>
  <unicode hex="0B89"/>
  <note>
uni0B89
</note>
  <anchor x="360.5" y="0.0" name="bottom"/>
  <anchor x="360.5" y="0.0" name="nukta"/>
  <anchor x="487.1" y="578.4" name="top"/>
  <anchor x="486.79999999999995" y="578.4" name="vedic"/>
  <outline>
    <contour>
      <point x="82.2" y="0.0" type="curve" smooth="yes"/>
      <point x="788.6" y="0.0" type="line"/>
      <point x="803.9" y="69.4" type="line"/>
      <point x="85.8" y="69.4" type="line" smooth="yes"/>
      <point x="68.4" y="69.4"/>
      <point x="56.400000000000006" y="81.10000000000001"/>
      <point x="56.400000000000006" y="98.6" type="curve" smooth="yes"/>
      <point x="56.400000000000006" y="120.5"/>
      <point x="72.4" y="130.7"/>
      <point x="92.5" y="130.7" type="curve" smooth="yes"/>
      <point x="322.59999999999997" y="130.7" type="line" smooth="yes"/>
      <point x="503.8" y="130.7"/>
      <point x="659.0" y="206.4"/>
      <point x="659.0" y="382.59999999999997" type="curve" smooth="yes"/>
      <point x="659.0" y="511.0"/>
      <point x="547.3000000000001" y="583.4"/>
      <point x="386.8" y="583.4" type="curve" smooth="yes"/>
      <point x="238.7" y="583.4"/>
      <point x="110.89999999999999" y="494.59999999999997"/>
      <point x="110.89999999999999" y="365.4" type="curve" smooth="yes"/>
      <point x="110.89999999999999" y="288.4"/>
      <point x="167.2" y="241.6"/>
      <point x="240.6" y="241.6" type="curve" smooth="yes"/>
      <point x="334.4" y="241.6"/>
      <point x="411.0" y="295.9"/>
      <point x="411.0" y="396.3" type="curve" smooth="yes"/>
      <point x="411.0" y="458.5"/>
      <point x="373.09999999999997" y="509.19999999999993"/>
      <point x="326.8" y="541.6" type="curve"/>
      <point x="256.5" y="535.6" type="line"/>
      <point x="300.70000000000005" y="498.9"/>
      <point x="318.0" y="459.3"/>
      <point x="318.0" y="414.2" type="curve" smooth="yes"/>
      <point x="318.0" y="360.59999999999997"/>
      <point x="290.09999999999997" y="323.0"/>
      <point x="239.0" y="323.0" type="curve" smooth="yes"/>
      <point x="212.0" y="323.0"/>
      <point x="190.29999999999998" y="344.7"/>
      <point x="190.29999999999998" y="381.2" type="curve" smooth="yes"/>
      <point x="190.29999999999998" y="457.6"/>
      <point x="267.1" y="514.3"/>
      <point x="349.7" y="514.3" type="curve" smooth="yes"/>
      <point x="438.1" y="514.3"/>
      <point x="490.0" y="470.8"/>
      <point x="490.0" y="387.5" type="curve" smooth="yes"/>
      <point x="490.0" y="275.79999999999995"/>
      <point x="421.6" y="195.8"/>
      <point x="310.7" y="195.8" type="curve" smooth="yes"/>
      <point x="102.8" y="195.8" type="line" smooth="yes"/>
      <point x="27.500000000000004" y="195.8"/>
      <point x="-13.399999999999999" y="152.60000000000002"/>
      <point x="-13.399999999999999" y="90.60000000000001" type="curve" smooth="yes"/>
      <point x="-13.399999999999999" y="34.6"/>
      <point x="28.700000000000003" y="0.0"/>
    </contour>
  </outline>
</glyph>
<glyph name="uu-tamil" format="2">
  <advance width="1683.6000000000001"/>
  <unicode hex="0B8A"/>
  <note>
uni0B8A
</note>
  <anchor x="783.6" y="0.0" name="bottom"/>
  <anchor x="783.6" y="0.0" name="nukta"/>
  <anchor x="909.6" y="578.4" name="top"/>
  <anchor x="909.9" y="578.4" name="vedic"/>
  <outline>
    <contour>
      <point x="82.2" y="0.0" type="curve" smooth="yes"/>
      <point x="1564.4" y="0.0" type="line"/>
      <point x="1579.7" y="69.4" type="line"/>
      <point x="85.8" y="69.4" type="line" smooth="yes"/>
      <point x="68.4" y="69.4"/>
      <point x="56.400000000000006" y="81.10000000000001"/>
      <point x="56.400000000000006" y="98.6" type="curve" smooth="yes"/>
      <point x="56.400000000000006" y="120.5"/>
      <point x="72.4" y="130.7"/>
      <point x="92.5" y="130.7" type="curve" smooth="yes"/>
      <point x="322.59999999999997" y="130.7" type="line" smooth="yes"/>
      <point x="503.8" y="130.7"/>
      <point x="659.0" y="206.4"/>
      <point x="659.0" y="382.59999999999997" type="curve" smooth="yes"/>
      <point x="659.0" y="511.0"/>
      <point x="547.3000000000001" y="583.4"/>
      <point x="386.8" y="583.4" type="curve" smooth="yes"/>
      <point x="238.7" y="583.4"/>
      <point x="110.89999999999999" y="494.59999999999997"/>
      <point x="110.89999999999999" y="365.4" type="curve" smooth="yes"/>
      <point x="110.89999999999999" y="288.4"/>
      <point x="167.2" y="241.6"/>
      <point x="240.6" y="241.6" type="curve" smooth="yes"/>
      <point x="334.4" y="241.6"/>
      <point x="411.0" y="295.9"/>
      <point x="411.0" y="396.3" type="curve" smooth="yes"/>
      <point x="411.0" y="458.5"/>
      <point x="373.09999999999997" y="509.19999999999993"/>
      <point x="326.8" y="541.6" type="curve"/>
      <point x="256.5" y="535.6" type="line"/>
      <point x="300.70000000000005" y="498.9"/>
      <point x="318.0" y="459.3"/>
      <point x="318.0" y="414.2" type="curve" smooth="yes"/>
      <point x="318.0" y="360.59999999999997"/>
      <point x="290.09999999999997" y="323.0"/>
      <point x="239.0" y="323.0" type="curve" smooth="yes"/>
      <point x="212.0" y="323.0"/>
      <point x="190.29999999999998" y="344.7"/>
      <point x="190.29999999999998" y="381.2" type="curve" smooth="yes"/>
      <point x="190.29999999999998" y="457.6"/>
      <point x="267.1" y="514.3"/>
      <point x="349.7" y="514.3" type="curve" smooth="yes"/>
      <point x="438.1" y="514.3"/>
      <point x="490.0" y="470.8"/>
      <point x="490.0" y="387.5" type="curve" smooth="yes"/>
      <point x="490.0" y="275.79999999999995"/>
      <point x="421.6" y="195.8"/>
      <point x="310.7" y="195.8" type="curve" smooth="yes"/>
      <point x="102.8" y="195.8" type="line" smooth="yes"/>
      <point x="27.500000000000004" y="195.8"/>
      <point x="-13.399999999999999" y="152.60000000000002"/>
      <point x="-13.399999999999999" y="90.60000000000001" type="curve" smooth="yes"/>
      <point x="-13.399999999999999" y="34.6"/>
      <point x="28.700000000000003" y="0.0"/>
    </contour>
    <contour>
      <point x="870.0" y="123.7" type="curve" smooth="yes"/>
      <point x="974.7" y="123.7"/>
      <point x="1052.4" y="188.3"/>
      <point x="1052.4" y="293.8" type="curve" smooth="yes"/>
      <point x="1052.4" y="366.7"/>
      <point x="1002.3" y="410.0"/>
      <point x="936.1999999999999" y="410.0" type="curve" smooth="yes"/>
      <point x="840.3" y="410.0"/>
      <point x="778.7" y="329.5"/>
      <point x="754.8" y="234.20000000000002" type="curve"/>
      <point x="786.5" y="211.9" type="line"/>
      <point x="807.0" y="287.6"/>
      <point x="847.8" y="334.9"/>
      <point x="890.3000000000001" y="334.9" type="curve" smooth="yes"/>
      <point x="921.3000000000001" y="334.9"/>
      <point x="938.7" y="309.4"/>
      <point x="938.7" y="279.3" type="curve" smooth="yes"/>
      <point x="938.7" y="232.3"/>
      <point x="906.8000000000001" y="194.4"/>
      <point x="859.1999999999999" y="194.4" type="curve" smooth="yes"/>
      <point x="815.5" y="194.4"/>
      <point x="771.6999999999999" y="232.5"/>
      <point x="771.6999999999999" y="310.20000000000005" type="curve" smooth="yes"/>
      <point x="771.6999999999999" y="426.0"/>
      <point x="853.8" y="515.0"/>
      <point x="976.3000000000001" y="515.0" type="curve" smooth="yes"/>
      <point x="1085.7" y="515.0"/>
      <point x="1147.8" y="450.3"/>
      <point x="1124.0" y="337.5" type="curve"/>
      <point x="1191.7" y="337.5" type="line"/>
      <point x="1216.9" y="487.9"/>
      <point x="1128.8" y="583.4"/>
      <point x="977.8" y="583.4" type="curve" smooth="yes"/>
      <point x="817.0" y="583.4"/>
      <point x="700.7" y="456.40000000000003"/>
      <point x="700.7" y="299.1" type="curve" smooth="yes"/>
      <point x="700.7" y="193.8"/>
      <point x="779.0" y="123.7"/>
    </contour>
    <contour>
      <point x="1078.8" y="125.0" type="line"/>
      <point x="1233.1" y="125.0" type="line"/>
      <point x="1316.4" y="515.9" type="line"/>
      <point x="1432.8" y="515.9" type="line"/>
      <point x="1349.5" y="125.0" type="line"/>
      <point x="1504.8" y="125.0" type="line"/>
      <point x="1587.8" y="515.9" type="line"/>
      <point x="1673.6" y="515.9" type="line"/>
      <point x="1686.8999999999999" y="578.4" type="line"/>
      <point x="1211.3" y="578.4" type="line"/>
      <point x="1176.3999999999999" y="392.9" type="line"/>
      <point x="1136.0" y="392.9" type="line"/>
    </contour>
  </outline>
</glyph>
<glyph name="e-tamil" format="2">
  <advance width="874.3"/>
  <unicode hex="0B8E"/>
  <note>
uni0B8E
</note>
  <anchor x="395.4" y="0.0" name="bottom"/>
  <anchor x="395.4" y="0.0" name="nukta"/>
  <anchor x="521.2" y="578.4" name="top"/>
  <anchor x="521.0" y="578.4" name="vedic"/>
  <outline>
    <contour>
      <point x="225.7" y="-5.0" type="curve" smooth="yes"/>
      <point x="342.2" y="-5.0"/>
      <point x="433.0" y="74.7"/>
      <point x="433.0" y="202.0" type="curve" smooth="yes"/>
      <point x="433.0" y="288.1"/>
      <point x="380.4" y="345.6"/>
      <point x="292.5" y="345.6" type="curve" smooth="yes"/>
      <point x="192.39999999999998" y="345.6"/>
      <point x="119.5" y="263.4"/>
      <point x="82.8" y="147.5" type="curve"/>
      <point x="117.5" y="115.1" type="line"/>
      <point x="145.8" y="197.70000000000002"/>
      <point x="176.20000000000002" y="233.5"/>
      <point x="216.4" y="233.5" type="curve" smooth="yes"/>
      <point x="246.8" y="233.5"/>
      <point x="265.0" y="206.5"/>
      <point x="265.0" y="172.79999999999998" type="curve" smooth="yes"/>
      <point x="265.0" y="117.5"/>
      <point x="235.0" y="80.3"/>
      <point x="187.5" y="80.3" type="curve" smooth="yes"/>
      <point x="142.5" y="80.3"/>
      <point x="107.5" y="134.5"/>
      <point x="107.5" y="220.29999999999998" type="curve" smooth="yes"/>
      <point x="107.5" y="390.3"/>
      <point x="220.9" y="509.0"/>
      <point x="430.3" y="509.0" type="curve" smooth="yes"/>
      <point x="615.3" y="509.0" type="line"/>
      <point x="507.3" y="0.0" type="line"/>
      <point x="695.6" y="0.0" type="line"/>
      <point x="803.6" y="509.0" type="line"/>
      <point x="908.0" y="509.0" type="line"/>
      <point x="923.3" y="578.4" type="line"/>
      <point x="428.59999999999997" y="578.4" type="line" smooth="yes"/>
      <point x="180.7" y="578.4"/>
      <point x="32.800000000000004" y="424.79999999999995"/>
      <point x="32.800000000000004" y="213.9" type="curve" smooth="yes"/>
      <point x="32.800000000000004" y="89.3"/>
      <point x="112.5" y="-5.0"/>
    </contour>
  </outline>
</glyph>
<glyph name="ee-tamil" format="2">
  <advance width="874.0"/>
  <unicode hex="0B8F"/>
  <note>
uni0B8F
</note>
  <anchor x="397.9" y="0.0" name="bottom"/>
  <anchor x="353.59999999999997" y="-206.2" name="nukta"/>
  <anchor x="523.9" y="578.4" name="top"/>
  <anchor x="523.5" y="578.4" name="vedic"/>
  <outline>
    <contour>
      <point x="333.0" y="-253.3" type="line"/>
      <point x="705.0" y="44.9" type="line"/>
      <point x="804.0" y="509.0" type="line"/>
      <point x="908.4000000000001" y="509.0" type="line"/>
      <point x="923.0" y="578.4" type="line"/>
      <point x="428.59999999999997" y="578.4" type="line" smooth="yes"/>
      <point x="180.7" y="578.4"/>
      <point x="32.800000000000004" y="424.79999999999995"/>
      <point x="32.800000000000004" y="213.9" type="curve" smooth="yes"/>
      <point x="32.800000000000004" y="89.3"/>
      <point x="105.5" y="-5.0"/>
      <point x="225.7" y="-5.0" type="curve" smooth="yes"/>
      <point x="342.2" y="-5.0"/>
      <point x="433.0" y="74.7"/>
      <point x="433.0" y="202.0" type="curve" smooth="yes"/>
      <point x="433.0" y="288.1"/>
      <point x="380.4" y="345.6"/>
      <point x="292.5" y="345.6" type="curve" smooth="yes"/>
      <point x="192.39999999999998" y="345.6"/>
      <point x="119.5" y="263.4"/>
      <point x="82.8" y="147.5" type="curve"/>
      <point x="117.5" y="115.1" type="line"/>
      <point x="145.8" y="197.70000000000002"/>
      <point x="176.20000000000002" y="233.5"/>
      <point x="216.4" y="233.5" type="curve" smooth="yes"/>
      <point x="246.8" y="233.5"/>
      <point x="265.0" y="206.5"/>
      <point x="265.0" y="172.79999999999998" type="curve" smooth="yes"/>
      <point x="265.0" y="117.5"/>
      <point x="235.0" y="80.3"/>
      <point x="187.5" y="80.3" type="curve" smooth="yes"/>
      <point x="142.5" y="80.3"/>
      <point x="107.5" y="134.5"/>
      <point x="107.5" y="220.29999999999998" type="curve" smooth="yes"/>
      <point x="107.5" y="390.3"/>
      <point x="220.9" y="509.0"/>
      <point x="430.3" y="509.0" type="curve" smooth="yes"/>
      <point x="615.3" y="509.0" type="line"/>
      <point x="501.7" y="-29.1" type="line"/>
      <point x="290.2" y="-197.29999999999998" type="line"/>
    </contour>
  </outline>
</glyph>
<glyph name="ai-tamil" format="2">
  <advance width="916.2"/>
  <unicode hex="0B90"/>
  <note>
uni0B90
</note>
  <anchor x="397.8" y="0.0" name="bottom"/>
  <anchor x="322.6" y="-332.2" name="nukta"/>
  <anchor x="525.9" y="578.4" name="top"/>
  <anchor x="523.2" y="578.4" name="vedic"/>
  <outline>
    <contour>
      <point x="142.10000000000002" y="-332.2" type="curve" smooth="yes"/>
      <point x="252.29999999999998" y="-332.2"/>
      <point x="326.2" y="-279.9"/>
      <point x="369.79999999999995" y="-198.4" type="curve"/>
      <point x="379.8" y="-279.79999999999995"/>
      <point x="449.0" y="-332.2"/>
      <point x="542.6" y="-332.2" type="curve" smooth="yes"/>
      <point x="694.6" y="-332.2"/>
      <point x="790.4" y="-227.3"/>
      <point x="790.4" y="-72.30000000000001" type="curve" smooth="yes"/>
      <point x="790.4" y="-23.7"/>
      <point x="778.0" y="25.200000000000003"/>
      <point x="762.3" y="64.7" type="curve"/>
      <point x="688.6" y="35.2" type="line"/>
      <point x="702.6999999999999" y="-1.4000000000000004"/>
      <point x="713.6" y="-41.2"/>
      <point x="713.6" y="-77.39999999999999" type="curve" smooth="yes"/>
      <point x="713.6" y="-182.6"/>
      <point x="653.5" y="-257.1"/>
      <point x="547.1" y="-257.1" type="curve" smooth="yes"/>
      <point x="463.7" y="-257.1"/>
      <point x="433.4" y="-205.4"/>
      <point x="452.6" y="-114.10000000000001" type="curve" smooth="yes"/>
      <point x="471.8" y="-21.5" type="line"/>
      <point x="333.9" y="-21.5" type="line"/>
      <point x="315.40000000000003" y="-108.39999999999999" type="line" smooth="yes"/>
      <point x="296.5" y="-196.39999999999998"/>
      <point x="258.40000000000003" y="-255.8"/>
      <point x="190.2" y="-255.8" type="curve" smooth="yes"/>
      <point x="138.79999999999998" y="-255.8"/>
      <point x="117.19999999999999" y="-216.5"/>
      <point x="117.19999999999999" y="-162.89999999999998" type="curve" smooth="yes"/>
      <point x="117.19999999999999" y="19.8"/>
      <point x="228.6" y="56.9"/>
      <point x="442.5" y="78.39999999999999" type="curve" smooth="yes"/>
      <point x="701.9" y="104.6"/>
      <point x="892.1999999999999" y="173.7"/>
      <point x="892.1999999999999" y="397.5" type="curve" smooth="yes"/>
      <point x="892.1999999999999" y="503.3"/>
      <point x="823.0999999999999" y="584.1"/>
      <point x="703.0" y="584.1" type="curve" smooth="yes"/>
      <point x="618.5" y="584.1"/>
      <point x="545.4000000000001" y="546.4000000000001"/>
      <point x="502.40000000000003" y="467.09999999999997" type="curve"/>
      <point x="483.6" y="544.5"/>
      <point x="413.9" y="584.1"/>
      <point x="320.3" y="584.1" type="curve" smooth="yes"/>
      <point x="160.6" y="584.1"/>
      <point x="52.5" y="455.40000000000003"/>
      <point x="52.5" y="303.8" type="curve" smooth="yes"/>
      <point x="52.5" y="218.6"/>
      <point x="106.10000000000001" y="151.8"/>
      <point x="187.4" y="151.8" type="curve" smooth="yes"/>
      <point x="280.40000000000003" y="151.8"/>
      <point x="347.6" y="216.1"/>
      <point x="347.6" y="307.7" type="curve" smooth="yes"/>
      <point x="347.6" y="370.8"/>
      <point x="307.3" y="409.7"/>
      <point x="249.8" y="409.7" type="curve" smooth="yes"/>
      <point x="175.6" y="409.7"/>
      <point x="122.4" y="354.7"/>
      <point x="87.9" y="249.79999999999998" type="curve"/>
      <point x="117.7" y="233.1" type="line"/>
      <point x="143.8" y="306.8"/>
      <point x="173.29999999999998" y="334.3"/>
      <point x="199.29999999999998" y="334.3" type="curve" smooth="yes"/>
      <point x="222.1" y="334.3"/>
      <point x="233.9" y="318.1"/>
      <point x="233.9" y="293.70000000000005" type="curve" smooth="yes"/>
      <point x="233.9" y="260.4"/>
      <point x="214.7" y="226.9"/>
      <point x="177.8" y="226.9" type="curve" smooth="yes"/>
      <point x="143.6" y="226.9"/>
      <point x="124.60000000000001" y="262.3"/>
      <point x="124.60000000000001" y="309.4" type="curve" smooth="yes"/>
      <point x="124.60000000000001" y="416.0"/>
      <point x="199.2" y="509.3"/>
      <point x="309.0" y="509.3" type="curve" smooth="yes"/>
      <point x="388.8" y="509.3"/>
      <point x="435.7" y="466.6"/>
      <point x="417.9" y="384.7" type="curve" smooth="yes"/>
      <point x="379.6" y="206.5" type="line"/>
      <point x="517.5" y="206.5" type="line"/>
      <point x="557.6" y="393.29999999999995" type="line" smooth="yes"/>
      <point x="572.9" y="465.70000000000005"/>
      <point x="604.5999999999999" y="507.0"/>
      <point x="655.1999999999999" y="507.0" type="curve" smooth="yes"/>
      <point x="704.2" y="507.0"/>
      <point x="726.6" y="470.2"/>
      <point x="726.6" y="415.09999999999997" type="curve" smooth="yes"/>
      <point x="726.6" y="201.0"/>
      <point x="622.8" y="151.29999999999998"/>
      <point x="369.9" y="124.9" type="curve" smooth="yes"/>
      <point x="154.60000000000002" y="102.5"/>
      <point x="-49.1" y="46.2"/>
      <point x="-49.1" y="-155.1" type="curve" smooth="yes"/>
      <point x="-49.1" y="-261.0"/>
      <point x="18.400000000000002" y="-332.2"/>
    </contour>
  </outline>
</glyph>
<glyph name="o-tamil" format="2">
  <advance width="983.4"/>
  <unicode hex="0B92"/>
  <note>
uni0B92
</note>
  <anchor x="426.8" y="0.0" name="bottom"/>
  <anchor x="353.5" y="-335.0" name="nukta"/>
  <anchor x="539.4" y="578.4" name="top"/>
  <anchor x="539.4" y="578.4" name="vedic"/>
  <outline>
    <contour>
      <point x="231.60000000000002" y="-345.09999999999997" type="curve" smooth="yes"/>
      <point x="444.09999999999997" y="-345.09999999999997"/>
      <point x="522.8" y="-138.9"/>
      <point x="670.8" y="-138.9" type="curve" smooth="yes"/>
      <point x="725.0" y="-138.9" type="line"/>
      <point x="739.6" y="-69.3" type="line"/>
      <point x="661.3000000000001" y="-69.3" type="line" smooth="yes"/>
      <point x="493.5" y="-69.3"/>
      <point x="460.40000000000003" y="72.2"/>
      <point x="572.8000000000001" y="228.20000000000002" type="curve"/>
      <point x="577.8" y="224.9" type="line"/>
      <point x="523.8000000000001" y="97.6"/>
      <point x="564.4" y="-2.7"/>
      <point x="695.7" y="-2.7" type="curve" smooth="yes"/>
      <point x="825.8" y="-2.7"/>
      <point x="930.7" y="104.8"/>
      <point x="930.7" y="256.1" type="curve" smooth="yes"/>
      <point x="930.7" y="480.7"/>
      <point x="735.9000000000001" y="584.1"/>
      <point x="503.0" y="584.1" type="curve" smooth="yes"/>
      <point x="234.70000000000002" y="584.1"/>
      <point x="30.6" y="418.9"/>
      <point x="30.6" y="218.2" type="curve" smooth="yes"/>
      <point x="30.6" y="94.8"/>
      <point x="101.89999999999999" y="-5.0"/>
      <point x="222.1" y="-5.0" type="curve" smooth="yes"/>
      <point x="338.59999999999997" y="-5.0"/>
      <point x="428.0" y="74.7"/>
      <point x="428.0" y="202.0" type="curve" smooth="yes"/>
      <point x="428.0" y="288.1"/>
      <point x="376.8" y="345.6"/>
      <point x="288.9" y="345.6" type="curve" smooth="yes"/>
      <point x="188.8" y="345.6"/>
      <point x="117.3" y="263.4"/>
      <point x="80.6" y="147.5" type="curve"/>
      <point x="115.3" y="115.1" type="line"/>
      <point x="143.6" y="197.70000000000002"/>
      <point x="172.6" y="233.5"/>
      <point x="212.8" y="233.5" type="curve" smooth="yes"/>
      <point x="243.20000000000002" y="233.5"/>
      <point x="260.0" y="206.5"/>
      <point x="260.0" y="172.79999999999998" type="curve" smooth="yes"/>
      <point x="260.0" y="117.5"/>
      <point x="231.4" y="80.3"/>
      <point x="183.9" y="80.3" type="curve" smooth="yes"/>
      <point x="138.9" y="80.3"/>
      <point x="105.3" y="140.0"/>
      <point x="105.3" y="224.6" type="curve" smooth="yes"/>
      <point x="105.3" y="388.40000000000003"/>
      <point x="285.5" y="509.5"/>
      <point x="474.4" y="509.5" type="curve" smooth="yes"/>
      <point x="642.5999999999999" y="509.5"/>
      <point x="762.9" y="430.5"/>
      <point x="762.9" y="266.9" type="curve" smooth="yes"/>
      <point x="762.9" y="173.8"/>
      <point x="723.8" y="89.6"/>
      <point x="658.8000000000001" y="89.6" type="curve" smooth="yes"/>
      <point x="594.3" y="89.6"/>
      <point x="609.3000000000001" y="198.7"/>
      <point x="658.0" y="279.8" type="curve"/>
      <point x="582.9000000000001" y="323.1" type="line"/>
      <point x="441.5" y="168.9"/>
      <point x="384.5" y="-21.5"/>
      <point x="534.8000000000001" y="-94.4" type="curve"/>
      <point x="533.8000000000001" y="-99.4" type="line"/>
      <point x="388.09999999999997" y="-127.89999999999999"/>
      <point x="322.40000000000003" y="-266.09999999999997"/>
      <point x="211.70000000000002" y="-266.09999999999997" type="curve" smooth="yes"/>
      <point x="163.3" y="-266.09999999999997"/>
      <point x="135.9" y="-235.6"/>
      <point x="135.9" y="-198.60000000000002" type="curve" smooth="yes"/>
      <point x="135.9" y="-155.60000000000002"/>
      <point x="157.39999999999998" y="-131.5"/>
      <point x="200.29999999999998" y="-98.9" type="curve"/>
      <point x="165.9" y="-53.2" type="line"/>
      <point x="105.5" y="-99.0"/>
      <point x="67.9" y="-138.70000000000002"/>
      <point x="67.9" y="-210.5" type="curve" smooth="yes"/>
      <point x="67.9" y="-282.6"/>
      <point x="125.2" y="-345.09999999999997"/>
    </contour>
  </outline>
</glyph>
<glyph name="oo-tamil" format="2">
  <advance width="983.4"/>
  <unicode hex="0B93"/>
  <note>
uni0B93
</note>
  <anchor x="432.0" y="0.0" name="bottom"/>
  <anchor x="359.59999999999997" y="-330.09999999999997" name="nukta"/>
  <anchor x="540.0999999999999" y="578.4" name="top"/>
  <anchor x="540.1" y="578.4" name="vedic"/>
  <outline>
    <contour>
      <point x="200.5" y="-366.70000000000005" type="curve" smooth="yes"/>
      <point x="431.5" y="-366.70000000000005"/>
      <point x="522.8000000000001" y="-140.10000000000002"/>
      <point x="670.8000000000001" y="-140.10000000000002" type="curve" smooth="yes"/>
      <point x="725.0" y="-140.10000000000002" type="line"/>
      <point x="739.6" y="-70.5" type="line"/>
      <point x="661.3" y="-70.5" type="line" smooth="yes"/>
      <point x="493.5" y="-70.5"/>
      <point x="460.4" y="72.2"/>
      <point x="572.8" y="228.2" type="curve"/>
      <point x="577.8" y="224.9" type="line"/>
      <point x="523.8000000000001" y="97.6"/>
      <point x="564.4" y="-2.7"/>
      <point x="695.7" y="-2.7" type="curve" smooth="yes"/>
      <point x="825.8" y="-2.7"/>
      <point x="930.7" y="104.8"/>
      <point x="930.7" y="256.1" type="curve" smooth="yes"/>
      <point x="930.7" y="480.7"/>
      <point x="735.9000000000001" y="584.1"/>
      <point x="503.0" y="584.1" type="curve" smooth="yes"/>
      <point x="234.70000000000002" y="584.1"/>
      <point x="30.6" y="418.9"/>
      <point x="30.6" y="218.2" type="curve" smooth="yes"/>
      <point x="30.6" y="94.8"/>
      <point x="101.89999999999999" y="-5.0"/>
      <point x="222.1" y="-5.0" type="curve" smooth="yes"/>
      <point x="338.59999999999997" y="-5.0"/>
      <point x="428.0" y="74.7"/>
      <point x="428.0" y="202.0" type="curve" smooth="yes"/>
      <point x="428.0" y="288.1"/>
      <point x="376.8" y="345.6"/>
      <point x="288.9" y="345.6" type="curve" smooth="yes"/>
      <point x="188.8" y="345.6"/>
      <point x="117.3" y="263.4"/>
      <point x="80.6" y="147.5" type="curve"/>
      <point x="115.3" y="115.1" type="line"/>
      <point x="143.6" y="197.70000000000002"/>
      <point x="172.6" y="233.5"/>
      <point x="212.8" y="233.5" type="curve" smooth="yes"/>
      <point x="243.20000000000002" y="233.5"/>
      <point x="260.0" y="206.5"/>
      <point x="260.0" y="172.79999999999998" type="curve" smooth="yes"/>
      <point x="260.0" y="117.5"/>
      <point x="231.4" y="80.3"/>
      <point x="183.9" y="80.3" type="curve" smooth="yes"/>
      <point x="138.9" y="80.3"/>
      <point x="105.3" y="140.0"/>
      <point x="105.3" y="224.6" type="curve" smooth="yes"/>
      <point x="105.3" y="388.40000000000003"/>
      <point x="285.5" y="509.5"/>
      <point x="474.4" y="509.5" type="curve" smooth="yes"/>
      <point x="642.5999999999999" y="509.5"/>
      <point x="762.9" y="430.5"/>
      <point x="762.9" y="266.9" type="curve" smooth="yes"/>
      <point x="762.9" y="173.8"/>
      <point x="723.8" y="89.6"/>
      <point x="658.8000000000001" y="89.6" type="curve" smooth="yes"/>
      <point x="594.3" y="89.6"/>
      <point x="609.3000000000001" y="198.7"/>
      <point x="658.0" y="279.8" type="curve"/>
      <point x="582.9000000000001" y="323.1" type="line"/>
      <point x="441.5" y="168.9"/>
      <point x="384.5" y="-22.7"/>
      <point x="534.8" y="-95.6" type="curve"/>
      <point x="533.8" y="-100.6" type="line"/>
      <point x="388.09999999999997" y="-129.1"/>
      <point x="301.09999999999997" y="-287.70000000000005"/>
      <point x="175.4" y="-287.70000000000005" type="curve" smooth="yes"/>
      <point x="120.69999999999999" y="-287.70000000000005"/>
      <point x="96.5" y="-254.20000000000002"/>
      <point x="96.5" y="-215.7" type="curve" smooth="yes"/>
      <point x="96.5" y="-170.0"/>
      <point x="124.6" y="-135.79999999999998"/>
      <point x="167.6" y="-135.79999999999998" type="curve" smooth="yes"/>
      <point x="206.4" y="-135.79999999999998"/>
      <point x="231.20000000000002" y="-162.3"/>
      <point x="235.6" y="-210.4" type="curve"/>
      <point x="282.2" y="-195.9"/>
      <point x="314.2" y="-164.9"/>
      <point x="314.2" y="-121.30000000000001" type="curve" smooth="yes"/>
      <point x="314.2" y="-75.9"/>
      <point x="270.8" y="-48.8"/>
      <point x="213.8" y="-48.8" type="curve" smooth="yes"/>
      <point x="109.80000000000001" y="-48.8"/>
      <point x="31.5" y="-125.19999999999999"/>
      <point x="31.5" y="-223.5" type="curve" smooth="yes"/>
      <point x="31.5" y="-307.9"/>
      <point x="99.3" y="-366.70000000000005"/>
    </contour>
  </outline>
</glyph>
<glyph name="nga-tamil" format="2">
  <advance width="947.8"/>
  <unicode hex="0B99"/>
  <note>
uni0B99
</note>
  <anchor x="404.6" y="0.0" name="bottom"/>
  <anchor x="568.6999999999999" y="578.4" name="imatra"/>
  <anchor x="407.6" y="0.0" name="nukta"/>
  <anchor x="561.8000000000001" y="578.4" name="top"/>
  <anchor x="534.6999999999999" y="578.4" name="vedic"/>
  <outline>
    <contour>
      <point x="-0.4999999999999982" y="0.0" type="line"/>
      <point x="75.3" y="0.0" type="line"/>
      <point x="183.3" y="509.0" type="line"/>
      <point x="283.3" y="509.0" type="line"/>
      <point x="212.3" y="175.0" type="line"/>
      <point x="382.59999999999997" y="175.0" type="line"/>
      <point x="398.4" y="249.8" type="line" smooth="yes"/>
      <point x="403.0" y="269.8"/>
      <point x="412.8" y="285.9"/>
      <point x="433.20000000000005" y="285.9" type="curve" smooth="yes"/>
      <point x="450.6" y="285.9"/>
      <point x="463.4" y="273.40000000000003"/>
      <point x="463.4" y="245.39999999999998" type="curve" smooth="yes"/>
      <point x="463.4" y="149.2"/>
      <point x="400.6" y="69.4"/>
      <point x="310.8" y="69.4" type="curve" smooth="yes"/>
      <point x="189.9" y="69.4" type="line"/>
      <point x="175.3" y="0.0" type="line"/>
      <point x="825.7" y="0.0" type="line"/>
      <point x="948.3" y="578.4" type="line"/>
      <point x="762.0" y="578.4" type="line"/>
      <point x="653.3000000000001" y="69.4" type="line"/>
      <point x="462.2" y="69.4" type="line"/>
      <point x="564.9000000000001" y="98.6"/>
      <point x="643.3" y="181.8"/>
      <point x="643.3" y="284.0" type="curve" smooth="yes"/>
      <point x="643.3" y="357.09999999999997"/>
      <point x="597.4" y="398.9"/>
      <point x="533.4" y="398.9" type="curve" smooth="yes"/>
      <point x="482.7" y="398.9"/>
      <point x="451.90000000000003" y="376.9"/>
      <point x="424.3" y="344.8" type="curve"/>
      <point x="459.3" y="509.0" type="line"/>
      <point x="581.5" y="509.0" type="line"/>
      <point x="596.1" y="578.4" type="line"/>
      <point x="122.10000000000001" y="578.4" type="line"/>
    </contour>
  </outline>
</glyph>
<glyph name="ja-tamil" format="2">
  <advance width="920.9"/>
  <unicode hex="0B9C"/>
  <note>
uni0B9C
</note>
  <anchor x="398.6" y="0.0" name="bottom"/>
  <anchor x="323.4" y="-332.2" name="nukta"/>
  <anchor x="521.8" y="578.4" name="top"/>
  <anchor x="517.0999999999999" y="578.4" name="vedic"/>
  <outline>
    <contour>
      <point x="125.2" y="-332.2" type="curve" smooth="yes"/>
      <point x="319.3" y="-332.2"/>
      <point x="412.29999999999995" y="-30.499999999999996"/>
      <point x="554.3" y="-30.499999999999996" type="curve" smooth="yes"/>
      <point x="604.0" y="-30.499999999999996"/>
      <point x="625.3000000000001" y="-70.80000000000001"/>
      <point x="625.3000000000001" y="-117.39999999999999" type="curve" smooth="yes"/>
      <point x="625.3000000000001" y="-190.9"/>
      <point x="582.8000000000001" y="-249.8"/>
      <point x="510.70000000000005" y="-249.8" type="curve" smooth="yes"/>
      <point x="482.40000000000003" y="-249.8"/>
      <point x="452.59999999999997" y="-236.4"/>
      <point x="427.8" y="-219.9" type="curve"/>
      <point x="387.9" y="-279.7" type="line"/>
      <point x="428.4" y="-312.0"/>
      <point x="483.29999999999995" y="-332.2"/>
      <point x="549.4" y="-332.2" type="curve" smooth="yes"/>
      <point x="679.1999999999999" y="-332.2"/>
      <point x="791.9" y="-250.7"/>
      <point x="791.9" y="-110.60000000000001" type="curve" smooth="yes"/>
      <point x="791.9" y="-9.1"/>
      <point x="719.9" y="52.2"/>
      <point x="620.2" y="52.5" type="curve" smooth="yes"/>
      <point x="392.0" y="53.4"/>
      <point x="292.7" y="-245.0"/>
      <point x="183.6" y="-245.0" type="curve" smooth="yes"/>
      <point x="140.20000000000002" y="-245.0"/>
      <point x="118.19999999999999" y="-206.39999999999998"/>
      <point x="118.19999999999999" y="-151.3" type="curve" smooth="yes"/>
      <point x="118.19999999999999" y="14.8"/>
      <point x="230.4" y="58.7"/>
      <point x="444.3" y="80.80000000000001" type="curve" smooth="yes"/>
      <point x="703.7" y="107.6"/>
      <point x="891.4" y="173.7"/>
      <point x="891.4" y="397.5" type="curve" smooth="yes"/>
      <point x="891.4" y="503.3"/>
      <point x="822.3" y="584.1"/>
      <point x="702.1999999999999" y="584.1" type="curve" smooth="yes"/>
      <point x="617.7" y="584.1"/>
      <point x="544.5999999999999" y="546.4000000000001"/>
      <point x="501.6" y="467.09999999999997" type="curve"/>
      <point x="482.8" y="544.5"/>
      <point x="413.1" y="584.1"/>
      <point x="319.5" y="584.1" type="curve" smooth="yes"/>
      <point x="159.79999999999998" y="584.1"/>
      <point x="51.7" y="455.40000000000003"/>
      <point x="51.7" y="303.8" type="curve" smooth="yes"/>
      <point x="51.7" y="218.6"/>
      <point x="105.3" y="151.8"/>
      <point x="186.6" y="151.8" type="curve" smooth="yes"/>
      <point x="279.59999999999997" y="151.8"/>
      <point x="346.79999999999995" y="216.1"/>
      <point x="346.79999999999995" y="307.7" type="curve" smooth="yes"/>
      <point x="346.79999999999995" y="370.8"/>
      <point x="306.5" y="409.7"/>
      <point x="249.0" y="409.7" type="curve" smooth="yes"/>
      <point x="174.79999999999998" y="409.7"/>
      <point x="121.6" y="354.7"/>
      <point x="87.1" y="249.79999999999998" type="curve"/>
      <point x="116.9" y="233.1" type="line"/>
      <point x="143.0" y="306.8"/>
      <point x="172.5" y="334.3"/>
      <point x="198.5" y="334.3" type="curve" smooth="yes"/>
      <point x="221.3" y="334.3"/>
      <point x="233.1" y="318.1"/>
      <point x="233.1" y="293.70000000000005" type="curve" smooth="yes"/>
      <point x="233.1" y="260.4"/>
      <point x="213.9" y="226.9"/>
      <point x="177.0" y="226.9" type="curve" smooth="yes"/>
      <point x="142.8" y="226.9"/>
      <point x="123.80000000000001" y="262.3"/>
      <point x="123.80000000000001" y="309.4" type="curve" smooth="yes"/>
      <point x="123.80000000000001" y="416.0"/>
      <point x="198.4" y="509.3"/>
      <point x="308.20000000000005" y="509.3" type="curve" smooth="yes"/>
      <point x="388.0" y="509.3"/>
      <point x="434.90000000000003" y="466.6"/>
      <point x="417.1" y="384.7" type="curve" smooth="yes"/>
      <point x="378.79999999999995" y="206.5" type="line"/>
      <point x="516.6999999999999" y="206.5" type="line"/>
      <point x="556.8" y="393.29999999999995" type="line" smooth="yes"/>
      <point x="572.1" y="465.70000000000005"/>
      <point x="603.8" y="507.0"/>
      <point x="654.4" y="507.0" type="curve" smooth="yes"/>
      <point x="703.4" y="507.0"/>
      <point x="725.8" y="470.2"/>
      <point x="725.8" y="415.09999999999997" type="curve" smooth="yes"/>
      <point x="725.8" y="201.0"/>
      <point x="624.6" y="152.8"/>
      <point x="371.7" y="125.8" type="curve" smooth="yes"/>
      <point x="148.3" y="102.2"/>
      <point x="-48.099999999999994" y="37.0"/>
      <point x="-48.099999999999994" y="-148.3" type="curve" smooth="yes"/>
      <point x="-48.099999999999994" y="-248.9"/>
      <point x="10.000000000000004" y="-332.2"/>
    </contour>
  </outline>
</glyph>
<glyph name="nya-tamil" format="2">
  <advance width="1286.8999999999999"/>
  <unicode hex="0B9E"/>
  <note>
uni0B9E
</note>
  <anchor x="589.5" y="0.0" name="bottom"/>
  <anchor x="1020.2" y="578.4" name="imatra"/>
  <anchor x="532.8000000000001" y="-353.4" name="nukta"/>
  <anchor x="740.1" y="578.4" name="top"/>
  <anchor x="704.1999999999999" y="578.4" name="vedic"/>
  <outline>
    <contour>
      <point x="532.8000000000001" y="-353.4" type="curve" smooth="yes"/>
      <point x="902.3" y="-353.4"/>
      <point x="1218.3999999999999" y="-150.9"/>
      <point x="1218.3999999999999" y="186.0" type="curve" smooth="yes"/>
      <point x="1218.3999999999999" y="296.3"/>
      <point x="1159.8000000000002" y="348.2"/>
      <point x="1085.5" y="348.2" type="curve" smooth="yes"/>
      <point x="987.8" y="348.2"/>
      <point x="921.8" y="258.1"/>
      <point x="899.6" y="160.89999999999998" type="curve" smooth="yes"/>
      <point x="894.5" y="137.7" type="line"/>
      <point x="921.6" y="137.7" type="line"/>
      <point x="926.6999999999999" y="160.89999999999998" type="line" smooth="yes"/>
      <point x="936.2" y="204.1"/>
      <point x="958.0" y="232.79999999999998"/>
      <point x="994.8000000000001" y="232.79999999999998" type="curve" smooth="yes"/>
      <point x="1031.5" y="232.79999999999998"/>
      <point x="1047.6" y="204.5"/>
      <point x="1047.6" y="155.10000000000002" type="curve" smooth="yes"/>
      <point x="1047.6" y="-97.5"/>
      <point x="825.0" y="-277.5"/>
      <point x="538.5" y="-277.5" type="curve" smooth="yes"/>
      <point x="307.0" y="-277.5"/>
      <point x="100.2" y="-138.0"/>
      <point x="100.2" y="134.6" type="curve" smooth="yes"/>
      <point x="100.2" y="323.9"/>
      <point x="186.6" y="489.8"/>
      <point x="336.09999999999997" y="642.0" type="curve"/>
      <point x="286.7" y="689.0" type="line"/>
      <point x="123.5" y="521.3"/>
      <point x="21.8" y="336.3"/>
      <point x="21.8" y="119.89999999999999" type="curve" smooth="yes"/>
      <point x="21.8" y="-176.1"/>
      <point x="252.4" y="-353.4"/>
    </contour>
    <component base="e-tamil" xOffset="198.8"/>
  </outline>
</glyph>
<glyph name="tta-tamil" format="2">
  <advance width="835.3000000000001"/>
  <unicode hex="0B9F"/>
  <note>
uni0B9F
</note>
  <anchor x="363.5" y="0.0" name="bottom"/>
  <anchor x="363.5" y="0.0" name="nukta"/>
  <anchor x="504.3" y="578.4" name="top"/>
  <anchor x="506.09999999999997" y="578.4" name="vedic"/>
  <outline>
    <contour>
      <point x="-0.4999999999999982" y="0.0" type="line"/>
      <point x="767.8" y="0.0" type="line"/>
      <point x="782.4" y="69.4" type="line"/>
      <point x="199.8" y="69.4" type="line"/>
      <point x="308.1" y="578.4" type="line"/>
      <point x="122.10000000000001" y="578.4" type="line"/>
    </contour>
  </outline>
</glyph>
<glyph name="nna-tamil" format="2">
  <advance width="1678.7"/>
  <unicode hex="0BA3"/>
  <note>
uni0BA3
</note>
  <anchor x="809.6" y="0.0" name="bottom"/>
  <anchor x="1624.0" y="578.4" name="imatra"/>
  <anchor x="809.6" y="0.0" name="nukta"/>
  <anchor x="924.0" y="578.4" name="top"/>
  <anchor x="922.5" y="578.4" name="vedic"/>
  <outline>
    <contour>
      <point x="631.1" y="-4.0" type="curve" smooth="yes"/>
      <point x="760.5" y="-4.0"/>
      <point x="848.9000000000001" y="88.4"/>
      <point x="848.9000000000001" y="239.3" type="curve" smooth="yes"/>
      <point x="848.9000000000001" y="461.1"/>
      <point x="674.2" y="584.1"/>
      <point x="448.70000000000005" y="584.1" type="curve" smooth="yes"/>
      <point x="229.5" y="584.1"/>
      <point x="31.200000000000003" y="420.09999999999997"/>
      <point x="31.200000000000003" y="220.9" type="curve" smooth="yes"/>
      <point x="31.200000000000003" y="96.3"/>
      <point x="103.9" y="-5.0"/>
      <point x="224.1" y="-5.0" type="curve" smooth="yes"/>
      <point x="340.59999999999997" y="-5.0"/>
      <point x="431.40000000000003" y="74.7"/>
      <point x="431.40000000000003" y="202.0" type="curve" smooth="yes"/>
      <point x="431.40000000000003" y="288.1"/>
      <point x="378.79999999999995" y="345.6"/>
      <point x="290.9" y="345.6" type="curve" smooth="yes"/>
      <point x="190.79999999999998" y="345.6"/>
      <point x="117.9" y="263.4"/>
      <point x="81.2" y="147.5" type="curve"/>
      <point x="115.89999999999999" y="115.1" type="line"/>
      <point x="144.2" y="197.70000000000002"/>
      <point x="174.6" y="233.5"/>
      <point x="214.79999999999998" y="233.5" type="curve" smooth="yes"/>
      <point x="245.20000000000002" y="233.5"/>
      <point x="263.4" y="206.5"/>
      <point x="263.4" y="172.79999999999998" type="curve" smooth="yes"/>
      <point x="263.4" y="117.5"/>
      <point x="233.39999999999998" y="80.3"/>
      <point x="185.9" y="80.3" type="curve" smooth="yes"/>
      <point x="140.9" y="80.3"/>
      <point x="105.89999999999999" y="141.5"/>
      <point x="105.89999999999999" y="227.29999999999998" type="curve" smooth="yes"/>
      <point x="105.89999999999999" y="380.5"/>
      <point x="256.9" y="508.1"/>
      <point x="429.9" y="508.1" type="curve" smooth="yes"/>
      <point x="606.2" y="508.1"/>
      <point x="686.0" y="401.6"/>
      <point x="686.0" y="256.20000000000005" type="curve" smooth="yes"/>
      <point x="686.0" y="169.89999999999998"/>
      <point x="660.8000000000001" y="85.30000000000001"/>
      <point x="597.6999999999999" y="85.30000000000001" type="curve" smooth="yes"/>
      <point x="567.6" y="85.30000000000001"/>
      <point x="550.5" y="113.9"/>
      <point x="550.5" y="167.5" type="curve" smooth="yes"/>
      <point x="550.5" y="364.0"/>
      <point x="722.0" y="508.1"/>
      <point x="888.3" y="508.1" type="curve" smooth="yes"/>
      <point x="1048.8" y="508.1"/>
      <point x="1099.7" y="411.40000000000003"/>
      <point x="1099.7" y="266.0" type="curve" smooth="yes"/>
      <point x="1099.7" y="170.6"/>
      <point x="1074.5" y="85.30000000000001"/>
      <point x="1011.4" y="85.30000000000001" type="curve" smooth="yes"/>
      <point x="981.3" y="85.30000000000001"/>
      <point x="964.2" y="114.60000000000001"/>
      <point x="964.2" y="168.2" type="curve" smooth="yes"/>
      <point x="964.2" y="364.7"/>
      <point x="1154.5" y="509.0"/>
      <point x="1360.8999999999999" y="509.0" type="curve" smooth="yes"/>
      <point x="1713.1" y="509.0" type="line"/>
      <point x="1727.7" y="578.4" type="line"/>
      <point x="1366.2" y="578.4" type="line" smooth="yes"/>
      <point x="1118.1000000000001" y="578.4"/>
      <point x="891.3000000000001" y="400.8"/>
      <point x="891.3000000000001" y="163.5" type="curve" smooth="yes"/>
      <point x="891.3000000000001" y="67.89999999999999"/>
      <point x="944.8" y="-4.0"/>
      <point x="1044.8" y="-4.0" type="curve" smooth="yes"/>
      <point x="1175.1" y="-4.0"/>
      <point x="1262.6" y="96.1"/>
      <point x="1262.6" y="251.20000000000002" type="curve" smooth="yes"/>
      <point x="1262.6" y="467.40000000000003"/>
      <point x="1118.9" y="584.1"/>
      <point x="905.0" y="584.1" type="curve" smooth="yes"/>
      <point x="692.1" y="584.1"/>
      <point x="477.6" y="400.1"/>
      <point x="477.6" y="162.8" type="curve" smooth="yes"/>
      <point x="477.6" y="67.2"/>
      <point x="531.1" y="-4.0"/>
    </contour>
    <contour>
      <point x="1311.6999999999998" y="0.0" type="line"/>
      <point x="1500.8000000000002" y="0.0" type="line"/>
      <point x="1616.4" y="544.1" type="line"/>
      <point x="1427.0" y="544.1" type="line"/>
    </contour>
  </outline>
</glyph>
<glyph name="ta-tamil" format="2">
  <advance width="821.9"/>
  <unicode hex="0BA4"/>
  <note>
uni0BA4
</note>
  <anchor x="344.7" y="0.0" name="bottom"/>
  <anchor x="618.6" y="578.4" name="imatra"/>
  <anchor x="398.5" y="-134.3" name="nukta"/>
  <anchor x="483.2" y="578.4" name="top"/>
  <anchor x="477.29999999999995" y="578.4" name="vedic"/>
  <outline>
    <contour>
      <point x="85.1" y="-298.9" type="curve"/>
      <point x="104.89999999999999" y="-191.5"/>
      <point x="147.8" y="-129.6"/>
      <point x="261.7" y="-129.6" type="curve" smooth="yes"/>
      <point x="398.1" y="-129.6" type="line" smooth="yes"/>
      <point x="584.3" y="-129.6"/>
      <point x="754.3" y="-33.9"/>
      <point x="754.3" y="156.8" type="curve" smooth="yes"/>
      <point x="754.3" y="290.09999999999997"/>
      <point x="660.9" y="342.4"/>
      <point x="535.8000000000001" y="342.4" type="curve" smooth="yes"/>
      <point x="514.3" y="342.4" type="line"/>
      <point x="549.6999999999999" y="508.7" type="line"/>
      <point x="677.8000000000001" y="508.7" type="line"/>
      <point x="693.0999999999999" y="578.4" type="line"/>
      <point x="196.4" y="578.4" type="line"/>
      <point x="138.4" y="305.1" type="line"/>
      <point x="211.6" y="305.1" type="line"/>
      <point x="254.29999999999998" y="508.7" type="line"/>
      <point x="360.59999999999997" y="508.7" type="line"/>
      <point x="325.9" y="342.4" type="line"/>
      <point x="212.29999999999998" y="342.4" type="line" smooth="yes"/>
      <point x="100.4" y="342.4"/>
      <point x="25.300000000000004" y="262.5"/>
      <point x="25.300000000000004" y="157.7" type="curve" smooth="yes"/>
      <point x="25.300000000000004" y="72.2"/>
      <point x="98.1" y="-4.0"/>
      <point x="229.79999999999998" y="-4.0" type="curve" smooth="yes"/>
      <point x="382.09999999999997" y="-4.0"/>
      <point x="455.8" y="66.9"/>
      <point x="484.50000000000006" y="200.4" type="curve" smooth="yes"/>
      <point x="499.70000000000005" y="272.7" type="line"/>
      <point x="510.79999999999995" y="272.7" type="line" smooth="yes"/>
      <point x="550.8" y="272.7"/>
      <point x="584.6999999999999" y="242.20000000000002"/>
      <point x="584.6999999999999" y="156.5" type="curve" smooth="yes"/>
      <point x="584.6999999999999" y="13.200000000000003"/>
      <point x="502.5" y="-69.2"/>
      <point x="337.1" y="-69.2" type="curve" smooth="yes"/>
      <point x="213.2" y="-69.2" type="line" smooth="yes"/>
      <point x="78.1" y="-69.2"/>
      <point x="-34.1" y="-98.4"/>
      <point x="-34.1" y="-206.5" type="curve" smooth="yes"/>
      <point x="-34.1" y="-264.90000000000003"/>
      <point x="12.400000000000002" y="-298.9"/>
    </contour>
    <contour>
      <point x="189.2" y="79.5" type="curve" smooth="yes"/>
      <point x="137.6" y="79.5"/>
      <point x="98.0" y="112.2"/>
      <point x="98.0" y="168.4" type="curve" smooth="yes"/>
      <point x="98.0" y="229.9"/>
      <point x="133.79999999999998" y="272.7"/>
      <point x="205.7" y="272.7" type="curve" smooth="yes"/>
      <point x="310.59999999999997" y="272.7" type="line"/>
      <point x="294.3" y="191.70000000000002" type="line" smooth="yes"/>
      <point x="277.2" y="107.8"/>
      <point x="248.7" y="79.5"/>
    </contour>
  </outline>
</glyph>
<glyph name="na-tamil" format="2">
  <advance width="778.0"/>
  <unicode hex="0BA8"/>
  <note>
uni0BA8
</note>
  <anchor x="307.0" y="0.0" name="bottom"/>
  <anchor x="551.8" y="578.4" name="imatra"/>
  <anchor x="288.7" y="-234.5" name="nukta"/>
  <anchor x="430.5" y="578.4" name="top"/>
  <anchor x="457.20000000000005" y="578.4" name="vedic"/>
  <outline>
    <contour>
      <point x="80.8" y="-298.90000000000003" type="curve"/>
      <point x="100.6" y="-191.5"/>
      <point x="146.3" y="-128.4"/>
      <point x="260.2" y="-128.4" type="curve" smooth="yes"/>
      <point x="376.0" y="-128.4" type="line" smooth="yes"/>
      <point x="565.1" y="-128.4"/>
      <point x="715.0" y="1.1"/>
      <point x="715.0" y="194.70000000000002" type="curve" smooth="yes"/>
      <point x="715.0" y="297.2"/>
      <point x="663.5" y="357.7"/>
      <point x="576.8000000000001" y="357.7" type="curve" smooth="yes"/>
      <point x="512.6999999999999" y="357.7"/>
      <point x="478.7" y="324.40000000000003"/>
      <point x="440.2" y="282.4" type="curve"/>
      <point x="487.8" y="509.0" type="line"/>
      <point x="602.1" y="509.0" type="line"/>
      <point x="616.7" y="578.4" type="line"/>
      <point x="126.79999999999998" y="578.4" type="line"/>
      <point x="4.200000000000003" y="0.0" type="line"/>
      <point x="77.8" y="0.0" type="line"/>
      <point x="185.8" y="509.0" type="line"/>
      <point x="301.2" y="509.0" type="line"/>
      <point x="193.20000000000002" y="0.0" type="line"/>
      <point x="379.8" y="0.0" type="line"/>
      <point x="416.0" y="169.8" type="line" smooth="yes"/>
      <point x="427.0" y="221.7"/>
      <point x="454.5" y="242.3"/>
      <point x="484.5" y="242.3" type="curve" smooth="yes"/>
      <point x="522.4" y="242.3"/>
      <point x="540.7" y="215.20000000000002"/>
      <point x="540.7" y="169.4" type="curve" smooth="yes"/>
      <point x="540.7" y="27.499999999999996"/>
      <point x="463.70000000000005" y="-68.3"/>
      <point x="322.9" y="-68.3" type="curve" smooth="yes"/>
      <point x="211.7" y="-68.3" type="line" smooth="yes"/>
      <point x="76.6" y="-68.3"/>
      <point x="-38.4" y="-98.39999999999999"/>
      <point x="-38.4" y="-206.5" type="curve" smooth="yes"/>
      <point x="-38.4" y="-264.90000000000003"/>
      <point x="8.1" y="-298.90000000000003"/>
    </contour>
  </outline>
</glyph>
<glyph name="nnna-tamil" format="2">
  <advance width="1268.0"/>
  <unicode hex="0BA9"/>
  <note>
uni0BA9
</note>
  <anchor x="550.0" y="0.0" name="bottom"/>
  <anchor x="1179.7" y="578.4" name="imatra"/>
  <anchor x="552.3" y="0.0" name="nukta"/>
  <anchor x="724.6" y="578.4" name="top"/>
  <anchor x="712.5999999999999" y="578.4" name="vedic"/>
  <outline>
    <contour>
      <point x="224.1" y="-5.0" type="curve" smooth="yes"/>
      <point x="340.59999999999997" y="-5.0"/>
      <point x="431.40000000000003" y="74.7"/>
      <point x="431.40000000000003" y="202.0" type="curve" smooth="yes"/>
      <point x="431.40000000000003" y="288.1"/>
      <point x="378.79999999999995" y="345.6"/>
      <point x="290.9" y="345.6" type="curve" smooth="yes"/>
      <point x="190.79999999999998" y="345.6"/>
      <point x="117.9" y="263.4"/>
      <point x="81.2" y="147.5" type="curve"/>
      <point x="115.89999999999999" y="115.1" type="line"/>
      <point x="144.2" y="197.70000000000002"/>
      <point x="174.6" y="233.5"/>
      <point x="214.79999999999998" y="233.5" type="curve" smooth="yes"/>
      <point x="245.20000000000002" y="233.5"/>
      <point x="263.4" y="206.5"/>
      <point x="263.4" y="172.79999999999998" type="curve" smooth="yes"/>
      <point x="263.4" y="117.5"/>
      <point x="233.39999999999998" y="80.3"/>
      <point x="185.9" y="80.3" type="curve" smooth="yes"/>
      <point x="140.9" y="80.3"/>
      <point x="105.89999999999999" y="141.5"/>
      <point x="105.89999999999999" y="227.29999999999998" type="curve" smooth="yes"/>
      <point x="105.89999999999999" y="380.5"/>
      <point x="254.5" y="508.1"/>
      <point x="426.0" y="508.1" type="curve" smooth="yes"/>
      <point x="599.3000000000001" y="508.1"/>
      <point x="686.0" y="401.6"/>
      <point x="686.0" y="256.20000000000005" type="curve" smooth="yes"/>
      <point x="686.0" y="169.89999999999998"/>
      <point x="660.8" y="85.30000000000001"/>
      <point x="597.7" y="85.30000000000001" type="curve" smooth="yes"/>
      <point x="567.6" y="85.30000000000001"/>
      <point x="550.5" y="114.60000000000001"/>
      <point x="550.5" y="168.2" type="curve" smooth="yes"/>
      <point x="550.5" y="364.7"/>
      <point x="743.8000000000001" y="509.0"/>
      <point x="950.1999999999999" y="509.0" type="curve" smooth="yes"/>
      <point x="1302.3999999999999" y="509.0" type="line"/>
      <point x="1317.0" y="578.4" type="line"/>
      <point x="955.5" y="578.4" type="line" smooth="yes"/>
      <point x="707.4" y="578.4"/>
      <point x="477.6" y="400.8"/>
      <point x="477.6" y="163.5" type="curve" smooth="yes"/>
      <point x="477.6" y="67.89999999999999"/>
      <point x="531.1" y="-4.0"/>
      <point x="631.1" y="-4.0" type="curve" smooth="yes"/>
      <point x="761.4" y="-4.0"/>
      <point x="848.9" y="86.3"/>
      <point x="848.9" y="239.3" type="curve" smooth="yes"/>
      <point x="848.9" y="461.1"/>
      <point x="667.3000000000001" y="584.1"/>
      <point x="444.79999999999995" y="584.1" type="curve" smooth="yes"/>
      <point x="227.1" y="584.1"/>
      <point x="31.200000000000003" y="420.09999999999997"/>
      <point x="31.200000000000003" y="220.9" type="curve" smooth="yes"/>
      <point x="31.200000000000003" y="96.3"/>
      <point x="103.9" y="-5.0"/>
    </contour>
    <contour>
      <point x="901.0" y="0.0" type="line"/>
      <point x="1090.1000000000001" y="0.0" type="line"/>
      <point x="1205.7" y="544.1" type="line"/>
      <point x="1016.3" y="544.1" type="line"/>
    </contour>
  </outline>
</glyph>
<glyph name="pa-tamil" format="2">
  <advance width="832.1999999999999"/>
  <unicode hex="0BAA"/>
  <note>
uni0BAA
</note>
  <anchor x="359.4" y="0.0" name="bottom"/>
  <anchor x="824.4000000000001" y="578.4" name="imatra"/>
  <anchor x="359.4" y="0.0" name="nukta"/>
  <anchor x="485.40000000000003" y="578.4" name="top"/>
  <anchor x="477.9" y="578.4" name="vedic"/>
  <outline>
    <contour>
      <point x="-0.4999999999999982" y="0.0" type="line"/>
      <point x="710.1" y="0.0" type="line"/>
      <point x="832.7" y="578.4" type="line"/>
      <point x="649.1" y="578.4" type="line"/>
      <point x="541.1" y="69.4" type="line"/>
      <point x="200.4" y="69.4" type="line"/>
      <point x="308.40000000000003" y="578.4" type="line"/>
      <point x="122.10000000000001" y="578.4" type="line"/>
    </contour>
  </outline>
</glyph>
<glyph name="ra-tamil" format="2">
  <advance width="584.8000000000001"/>
  <unicode hex="0BB0"/>
  <note>
uni0BB0
</note>
  <anchor x="223.3" y="0.0" name="bottom"/>
  <anchor x="571.0999999999999" y="578.4" name="imatra"/>
  <anchor x="169.4" y="-255.5" name="nukta"/>
  <anchor x="365.5" y="578.4" name="top"/>
  <anchor x="377.59999999999997" y="578.4" name="vedic"/>
  <outline>
    <contour>
      <point x="42.6" y="-253.3" type="line"/>
      <point x="414.6" y="44.9" type="line"/>
      <point x="513.3" y="509.0" type="line"/>
      <point x="619.1999999999999" y="509.0" type="line"/>
      <point x="633.8" y="578.4" type="line"/>
      <point x="125.39999999999999" y="578.4" type="line"/>
      <point x="2.8000000000000025" y="0.0" type="line"/>
      <point x="77.1" y="0.0" type="line"/>
      <point x="185.1" y="509.0" type="line"/>
      <point x="327.6" y="509.0" type="line"/>
      <point x="214.3" y="-27.299999999999997" type="line"/>
      <point x="-0.20000000000000284" y="-197.3" type="line"/>
    </contour>
  </outline>
</glyph>
<glyph name="rra-tamil" format="2">
  <advance width="847.8000000000001"/>
  <unicode hex="0BB1"/>
  <note>
uni0BB1
</note>
  <anchor x="389.40000000000003" y="0.0" name="bottom"/>
  <anchor x="421.6" y="-110.0" name="nukta"/>
  <anchor x="496.4" y="580.5" name="top"/>
  <anchor x="483.4" y="578.4" name="vedic"/>
  <outline>
    <contour>
      <point x="74.3" y="-303.2" type="curve"/>
      <point x="94.1" y="-195.8"/>
      <point x="139.79999999999998" y="-133.9"/>
      <point x="253.70000000000002" y="-133.9" type="curve" smooth="yes"/>
      <point x="366.59999999999997" y="-133.9" type="line" smooth="yes"/>
      <point x="637.5" y="-133.9"/>
      <point x="820.8" y="64.6"/>
      <point x="820.8" y="329.0" type="curve" smooth="yes"/>
      <point x="820.8" y="499.5"/>
      <point x="729.3000000000001" y="584.7"/>
      <point x="599.6999999999999" y="584.7" type="curve" smooth="yes"/>
      <point x="510.7" y="584.7"/>
      <point x="436.7" y="542.4"/>
      <point x="397.5" y="464.09999999999997" type="curve"/>
      <point x="387.40000000000003" y="538.8000000000001"/>
      <point x="337.0" y="583.7"/>
      <point x="262.8" y="583.7" type="curve" smooth="yes"/>
      <point x="179.9" y="583.7"/>
      <point x="113.2" y="532.6999999999999"/>
      <point x="91.39999999999999" y="429.20000000000005" type="curve" smooth="yes"/>
      <point x="-0.1999999999999993" y="0.0" type="line"/>
      <point x="74.3" y="0.0" type="line"/>
      <point x="163.9" y="420.2" type="line" smooth="yes"/>
      <point x="176.7" y="479.59999999999997"/>
      <point x="201.5" y="505.9"/>
      <point x="241.5" y="505.9" type="curve" smooth="yes"/>
      <point x="292.9" y="505.9"/>
      <point x="300.59999999999997" y="455.59999999999997"/>
      <point x="289.09999999999997" y="401.40000000000003" type="curve" smooth="yes"/>
      <point x="203.9" y="0.0" type="line"/>
      <point x="395.29999999999995" y="0.0" type="line"/>
      <point x="478.5" y="388.7" type="line" smooth="yes"/>
      <point x="494.7" y="464.8"/>
      <point x="520.0" y="506.6"/>
      <point x="570.4" y="506.6" type="curve" smooth="yes"/>
      <point x="621.4000000000001" y="506.6"/>
      <point x="639.2" y="459.2"/>
      <point x="639.2" y="382.20000000000005" type="curve" smooth="yes"/>
      <point x="639.2" y="136.9"/>
      <point x="552.9" y="-73.8"/>
      <point x="336.0" y="-73.8" type="curve" smooth="yes"/>
      <point x="205.20000000000002" y="-73.8" type="line" smooth="yes"/>
      <point x="70.1" y="-73.8"/>
      <point x="-44.900000000000006" y="-102.69999999999999"/>
      <point x="-44.900000000000006" y="-210.79999999999998" type="curve" smooth="yes"/>
      <point x="-44.900000000000006" y="-269.20000000000005"/>
      <point x="1.6000000000000005" y="-303.2"/>
    </contour>
  </outline>
</glyph>
<glyph name="la-tamil" format="2">
  <advance width="994.5"/>
  <unicode hex="0BB2"/>
  <note>
uni0BB2
</note>
  <anchor x="430.79999999999995" y="0.0" name="bottom"/>
  <anchor x="427.79999999999995" y="0.0" name="nukta"/>
  <anchor x="550.5999999999999" y="578.4" name="top"/>
  <anchor x="556.1" y="578.4" name="vedic"/>
  <outline>
    <contour>
      <point x="225.1" y="-5.0" type="curve" smooth="yes"/>
      <point x="341.6" y="-5.0"/>
      <point x="432.4" y="74.7"/>
      <point x="432.4" y="202.0" type="curve" smooth="yes"/>
      <point x="432.4" y="288.1"/>
      <point x="379.8" y="345.6"/>
      <point x="291.9" y="345.6" type="curve" smooth="yes"/>
      <point x="191.8" y="345.6"/>
      <point x="118.9" y="263.4"/>
      <point x="82.2" y="147.5" type="curve"/>
      <point x="116.9" y="115.1" type="line"/>
      <point x="145.20000000000002" y="197.70000000000002"/>
      <point x="175.6" y="233.5"/>
      <point x="215.8" y="233.5" type="curve" smooth="yes"/>
      <point x="246.20000000000002" y="233.5"/>
      <point x="264.4" y="206.5"/>
      <point x="264.4" y="172.79999999999998" type="curve" smooth="yes"/>
      <point x="264.4" y="117.5"/>
      <point x="234.4" y="80.3"/>
      <point x="186.89999999999998" y="80.3" type="curve" smooth="yes"/>
      <point x="141.9" y="80.3"/>
      <point x="106.89999999999999" y="141.5"/>
      <point x="106.89999999999999" y="227.29999999999998" type="curve" smooth="yes"/>
      <point x="106.89999999999999" y="380.5"/>
      <point x="235.0" y="503.4"/>
      <point x="379.7" y="503.4" type="curve" smooth="yes"/>
      <point x="515.1" y="503.4"/>
      <point x="555.3000000000001" y="413.7"/>
      <point x="522.8000000000001" y="274.1" type="curve" smooth="yes"/>
      <point x="503.1" y="188.0" type="line" smooth="yes"/>
      <point x="475.7" y="69.5"/>
      <point x="533.3" y="-5.0"/>
      <point x="656.9" y="-5.0" type="curve" smooth="yes"/>
      <point x="840.7" y="-5.0"/>
      <point x="963.1" y="161.70000000000002"/>
      <point x="963.1" y="371.6" type="curve" smooth="yes"/>
      <point x="963.1" y="455.1"/>
      <point x="943.1" y="520.2"/>
      <point x="915.1" y="583.0999999999999" type="curve"/>
      <point x="844.9" y="552.0999999999999" type="line"/>
      <point x="870.0" y="494.90000000000003"/>
      <point x="888.1" y="435.0"/>
      <point x="888.1" y="366.6" type="curve" smooth="yes"/>
      <point x="888.1" y="203.6"/>
      <point x="799.8" y="84.5"/>
      <point x="720.9" y="84.5" type="curve" smooth="yes"/>
      <point x="678.1" y="84.5"/>
      <point x="677.2" y="124.5"/>
      <point x="689.9" y="179.1" type="curve" smooth="yes"/>
      <point x="714.6999999999999" y="285.3" type="line" smooth="yes"/>
      <point x="761.6" y="482.0"/>
      <point x="641.8" y="583.4"/>
      <point x="434.9" y="583.4" type="curve" smooth="yes"/>
      <point x="204.60000000000002" y="583.4"/>
      <point x="32.2" y="421.59999999999997"/>
      <point x="32.2" y="220.9" type="curve" smooth="yes"/>
      <point x="32.2" y="96.3"/>
      <point x="104.9" y="-5.0"/>
    </contour>
  </outline>
</glyph>
<glyph name="va-tamil" format="2">
  <advance width="1055.9"/>
  <unicode hex="0BB5"/>
  <note>
uni0BB5
</note>
  <anchor x="496.6" y="0.0" name="bottom"/>
  <anchor x="879.9" y="578.4" name="imatra"/>
  <anchor x="486.2" y="0.0" name="nukta"/>
  <anchor x="594.7" y="578.4" name="top"/>
  <anchor x="598.6" y="578.4" name="vedic"/>
  <outline>
    <contour>
      <point x="224.79999999999998" y="-5.0" type="curve" smooth="yes"/>
      <point x="341.3" y="-5.0"/>
      <point x="432.1" y="74.7"/>
      <point x="432.1" y="202.0" type="curve" smooth="yes"/>
      <point x="432.1" y="288.1"/>
      <point x="379.5" y="345.6"/>
      <point x="291.59999999999997" y="345.6" type="curve" smooth="yes"/>
      <point x="191.5" y="345.6"/>
      <point x="118.6" y="263.4"/>
      <point x="81.9" y="147.5" type="curve"/>
      <point x="116.6" y="115.1" type="line"/>
      <point x="144.9" y="197.70000000000002"/>
      <point x="175.3" y="233.5"/>
      <point x="215.5" y="233.5" type="curve" smooth="yes"/>
      <point x="245.90000000000003" y="233.5"/>
      <point x="264.09999999999997" y="206.5"/>
      <point x="264.09999999999997" y="172.79999999999998" type="curve" smooth="yes"/>
      <point x="264.09999999999997" y="117.5"/>
      <point x="234.1" y="80.3"/>
      <point x="186.6" y="80.3" type="curve" smooth="yes"/>
      <point x="141.6" y="80.3"/>
      <point x="106.6" y="141.5"/>
      <point x="106.6" y="227.29999999999998" type="curve" smooth="yes"/>
      <point x="106.6" y="374.5"/>
      <point x="230.39999999999998" y="504.0"/>
      <point x="371.20000000000005" y="504.0" type="curve" smooth="yes"/>
      <point x="482.2" y="504.0"/>
      <point x="550.3" y="443.0"/>
      <point x="550.3" y="314.3" type="curve" smooth="yes"/>
      <point x="550.3" y="217.6"/>
      <point x="513.3" y="127.6"/>
      <point x="456.59999999999997" y="48.6" type="curve"/>
      <point x="472.0" y="0.0" type="line"/>
      <point x="933.8" y="0.0" type="line"/>
      <point x="1056.4" y="578.4" type="line"/>
      <point x="870.4" y="578.4" type="line"/>
      <point x="761.7" y="69.4" type="line"/>
      <point x="585.1" y="69.4" type="line"/>
      <point x="665.5" y="131.3"/>
      <point x="733.9" y="221.6"/>
      <point x="733.9" y="337.2" type="curve" smooth="yes"/>
      <point x="733.9" y="508.9"/>
      <point x="589.8" y="584.1"/>
      <point x="419.0" y="584.1" type="curve" smooth="yes"/>
      <point x="198.1" y="584.1"/>
      <point x="31.900000000000002" y="414.09999999999997"/>
      <point x="31.900000000000002" y="220.9" type="curve" smooth="yes"/>
      <point x="31.900000000000002" y="96.3"/>
      <point x="104.6" y="-5.0"/>
    </contour>
  </outline>
</glyph>
<glyph name="ssa-tamil" format="2">
  <advance width="1449.3"/>
  <unicode hex="0BB7"/>
  <note>
uni0BB7
</note>
  <anchor x="667.1999999999999" y="0.0" name="bottom"/>
  <anchor x="525.1999999999999" y="0.0" name="nukta"/>
  <anchor x="814.9" y="578.4" name="top"/>
  <anchor x="789.8" y="578.4" name="vedic"/>
  <outline>
    <contour>
      <point x="224.79999999999998" y="-5.0" type="curve" smooth="yes"/>
      <point x="341.3" y="-5.0"/>
      <point x="432.1" y="74.7"/>
      <point x="432.1" y="202.0" type="curve" smooth="yes"/>
      <point x="432.1" y="288.1"/>
      <point x="379.5" y="345.6"/>
      <point x="291.59999999999997" y="345.6" type="curve" smooth="yes"/>
      <point x="191.5" y="345.6"/>
      <point x="118.6" y="263.4"/>
      <point x="81.9" y="147.5" type="curve"/>
      <point x="116.6" y="115.1" type="line"/>
      <point x="144.9" y="197.70000000000002"/>
      <point x="175.3" y="233.5"/>
      <point x="215.5" y="233.5" type="curve" smooth="yes"/>
      <point x="245.90000000000003" y="233.5"/>
      <point x="264.09999999999997" y="206.5"/>
      <point x="264.09999999999997" y="172.79999999999998" type="curve" smooth="yes"/>
      <point x="264.09999999999997" y="117.5"/>
      <point x="234.1" y="80.3"/>
      <point x="186.6" y="80.3" type="curve" smooth="yes"/>
      <point x="141.6" y="80.3"/>
      <point x="106.6" y="141.5"/>
      <point x="106.6" y="227.29999999999998" type="curve" smooth="yes"/>
      <point x="106.6" y="374.5"/>
      <point x="228.89999999999998" y="504.0"/>
      <point x="368.20000000000005" y="504.0" type="curve" smooth="yes"/>
      <point x="477.7" y="504.0"/>
      <point x="550.3" y="443.0"/>
      <point x="550.3" y="314.29999999999995" type="curve" smooth="yes"/>
      <point x="550.3" y="217.6"/>
      <point x="513.3" y="127.6"/>
      <point x="456.59999999999997" y="48.6" type="curve"/>
      <point x="472.0" y="0.0" type="line"/>
      <point x="1345.5" y="0.0" type="line"/>
      <point x="1416.7" y="331.59999999999997" type="line"/>
      <point x="1236.7" y="283.7" type="line"/>
      <point x="1191.1999999999998" y="69.4" type="line"/>
      <point x="585.1" y="69.4" type="line"/>
      <point x="665.5" y="131.3"/>
      <point x="733.9" y="220.4"/>
      <point x="733.9" y="336.0" type="curve" smooth="yes"/>
      <point x="733.9" y="507.7"/>
      <point x="585.3" y="584.1"/>
      <point x="416.0" y="584.1" type="curve" smooth="yes"/>
      <point x="195.10000000000002" y="584.1"/>
      <point x="31.900000000000002" y="415.6"/>
      <point x="31.900000000000002" y="220.9" type="curve" smooth="yes"/>
      <point x="31.900000000000002" y="96.3"/>
      <point x="104.6" y="-5.0"/>
    </contour>
    <contour>
      <point x="840.4" y="-293.0" type="line"/>
      <point x="1012.0999999999999" y="-293.0" type="line"/>
      <point x="1157.6" y="391.6" type="line" smooth="yes"/>
      <point x="1181.7" y="503.5"/>
      <point x="1138.6" y="584.1"/>
      <point x="1024.6000000000001" y="584.1" type="curve" smooth="yes"/>
      <point x="899.5" y="584.1"/>
      <point x="815.8000000000001" y="488.40000000000003"/>
      <point x="815.8000000000001" y="373.0" type="curve" smooth="yes"/>
      <point x="815.8000000000001" y="268.8"/>
      <point x="895.0999999999999" y="199.0"/>
      <point x="1026.3999999999999" y="199.0" type="curve" smooth="yes"/>
      <point x="1166.0" y="199.0"/>
      <point x="1273.3999999999999" y="247.0"/>
      <point x="1415.0" y="325.2" type="curve"/>
      <point x="1416.3" y="335.9" type="line"/>
      <point x="1388.5" y="389.4" type="line"/>
      <point x="1256.1" y="313.9"/>
      <point x="1144.8" y="267.3"/>
      <point x="1033.3999999999999" y="267.3" type="curve" smooth="yes"/>
      <point x="937.0" y="267.3"/>
      <point x="886.3" y="310.2"/>
      <point x="886.3" y="382.59999999999997" type="curve" smooth="yes"/>
      <point x="886.3" y="427.8"/>
      <point x="911.6999999999999" y="474.40000000000003"/>
      <point x="952.0" y="474.40000000000003" type="curve" smooth="yes"/>
      <point x="984.3000000000001" y="474.40000000000003"/>
      <point x="998.1" y="445.3"/>
      <point x="988.9" y="403.6" type="curve" smooth="yes"/>
    </contour>
  </outline>
</glyph>
<glyph name="sa-tamil" format="2">
  <advance width="1307.3"/>
  <unicode hex="0BB8"/>
  <note>
uni0BB8
</note>
  <anchor x="623.7" y="0.0" name="bottom"/>
  <anchor x="620.2" y="0.0" name="nukta"/>
  <anchor x="735.4" y="578.4" name="top"/>
  <anchor x="736.9000000000001" y="578.4" name="vedic"/>
  <outline>
    <contour>
      <point x="476.0" y="0.0" type="line"/>
      <point x="663.0" y="0.0" type="line"/>
      <point x="755.8000000000001" y="436.6" type="line" smooth="yes"/>
      <point x="767.8" y="492.3"/>
      <point x="788.7" y="509.0"/>
      <point x="824.4" y="509.0" type="curve" smooth="yes"/>
      <point x="858.8000000000001" y="509.0"/>
      <point x="879.4" y="481.4"/>
      <point x="868.5" y="432.2" type="curve" smooth="yes"/>
      <point x="814.7" y="188.0" type="line" smooth="yes"/>
      <point x="788.9" y="69.2"/>
      <point x="844.9" y="-5.0"/>
      <point x="968.5" y="-5.0" type="curve" smooth="yes"/>
      <point x="1156.1999999999998" y="-5.0"/>
      <point x="1274.7" y="157.8"/>
      <point x="1274.7" y="367.70000000000005" type="curve" smooth="yes"/>
      <point x="1274.7" y="451.2"/>
      <point x="1254.7" y="519.6"/>
      <point x="1227.6" y="582.8" type="curve"/>
      <point x="1156.8" y="552.4" type="line"/>
      <point x="1181.3" y="494.90000000000003"/>
      <point x="1199.7" y="431.09999999999997"/>
      <point x="1199.7" y="362.7" type="curve" smooth="yes"/>
      <point x="1199.7" y="199.7"/>
      <point x="1114.4" y="84.5"/>
      <point x="1032.5" y="84.5" type="curve" smooth="yes"/>
      <point x="989.7" y="84.5"/>
      <point x="989.3999999999999" y="124.19999999999999"/>
      <point x="1001.5" y="179.1" type="curve" smooth="yes"/>
      <point x="1045.3" y="380.3" type="line" smooth="yes"/>
      <point x="1075.1" y="515.1"/>
      <point x="975.4" y="582.1"/>
      <point x="846.4" y="582.1" type="curve" smooth="yes"/>
      <point x="726.9" y="582.1"/>
      <point x="629.4000000000001" y="528.2"/>
      <point x="606.7" y="426.4" type="curve" smooth="yes"/>
      <point x="591.0" y="355.29999999999995" type="line"/>
      <point x="551.4" y="355.29999999999995" type="line"/>
    </contour>
    <contour>
      <point x="225.1" y="-5.0" type="curve" smooth="yes"/>
      <point x="341.6" y="-5.0"/>
      <point x="432.4" y="74.7"/>
      <point x="432.4" y="202.0" type="curve" smooth="yes"/>
      <point x="432.4" y="288.1"/>
      <point x="379.8" y="345.6"/>
      <point x="291.90000000000003" y="345.6" type="curve" smooth="yes"/>
      <point x="191.8" y="345.6"/>
      <point x="118.9" y="263.4"/>
      <point x="82.20000000000002" y="147.5" type="curve"/>
      <point x="116.9" y="115.1" type="line"/>
      <point x="145.2" y="197.70000000000002"/>
      <point x="175.6" y="233.5"/>
      <point x="215.79999999999998" y="233.5" type="curve" smooth="yes"/>
      <point x="246.2" y="233.5"/>
      <point x="264.40000000000003" y="206.5"/>
      <point x="264.40000000000003" y="172.79999999999998" type="curve" smooth="yes"/>
      <point x="264.40000000000003" y="117.5"/>
      <point x="234.4" y="80.3"/>
      <point x="186.9" y="80.3" type="curve" smooth="yes"/>
      <point x="141.9" y="80.3"/>
      <point x="106.9" y="141.5"/>
      <point x="106.9" y="227.29999999999998" type="curve" smooth="yes"/>
      <point x="106.9" y="379.6"/>
      <point x="232.0" y="504.3"/>
      <point x="379.1" y="504.3" type="curve" smooth="yes"/>
      <point x="514.7" y="504.3"/>
      <point x="567.0" y="426.3"/>
      <point x="537.8000000000001" y="291.3" type="curve"/>
      <point x="617.9" y="302.2" type="line"/>
      <point x="651.4000000000001" y="507.59999999999997"/>
      <point x="528.0" y="582.8"/>
      <point x="396.4" y="582.8" type="curve" smooth="yes"/>
      <point x="198.0" y="582.8"/>
      <point x="32.2" y="411.3"/>
      <point x="32.2" y="220.9" type="curve" smooth="yes"/>
      <point x="32.2" y="96.3"/>
      <point x="104.9" y="-5.0"/>
    </contour>
  </outline>
</glyph>
<glyph name="ha-tamil" format="2">
  <advance width="1605.1000000000001"/>
  <unicode hex="0BB9"/>
  <note>
uni0BB9
</note>
  <anchor x="752.3" y="0.0" name="bottom"/>
  <anchor x="726.4" y="-133.5" name="nukta"/>
  <anchor x="895.8" y="578.4" name="top"/>
  <anchor x="890.3000000000001" y="578.4" name="vedic"/>
  <outline>
    <contour>
      <point x="124.30000000000001" y="-315.3" type="curve"/>
      <point x="144.1" y="-207.9"/>
      <point x="189.79999999999998" y="-146.0"/>
      <point x="303.7" y="-146.0" type="curve" smooth="yes"/>
      <point x="1061.3" y="-146.0" type="line" smooth="yes"/>
      <point x="1398.7" y="-146.0"/>
      <point x="1577.4" y="62.8"/>
      <point x="1577.4" y="329.0" type="curve" smooth="yes"/>
      <point x="1577.4" y="499.5"/>
      <point x="1485.9" y="584.7"/>
      <point x="1356.3" y="584.7" type="curve" smooth="yes"/>
      <point x="1267.3" y="584.7"/>
      <point x="1193.3" y="542.4"/>
      <point x="1154.1" y="464.09999999999997" type="curve"/>
      <point x="1144.0" y="538.8000000000001"/>
      <point x="1093.6" y="583.7"/>
      <point x="1019.4" y="583.7" type="curve" smooth="yes"/>
      <point x="936.5" y="583.7"/>
      <point x="869.8" y="532.6999999999999"/>
      <point x="848.0" y="429.20000000000005" type="curve" smooth="yes"/>
      <point x="771.4000000000001" y="69.4" type="line"/>
      <point x="585.1" y="69.4" type="line"/>
      <point x="665.5" y="131.3"/>
      <point x="733.9" y="220.4"/>
      <point x="733.9" y="336.0" type="curve" smooth="yes"/>
      <point x="733.9" y="507.7"/>
      <point x="585.3" y="584.1"/>
      <point x="416.0" y="584.1" type="curve" smooth="yes"/>
      <point x="195.10000000000002" y="584.1"/>
      <point x="31.900000000000002" y="415.6"/>
      <point x="31.900000000000002" y="220.9" type="curve" smooth="yes"/>
      <point x="31.900000000000002" y="96.3"/>
      <point x="104.6" y="-5.0"/>
      <point x="224.79999999999998" y="-5.0" type="curve" smooth="yes"/>
      <point x="341.3" y="-5.0"/>
      <point x="432.1" y="74.7"/>
      <point x="432.1" y="202.0" type="curve" smooth="yes"/>
      <point x="432.1" y="288.1"/>
      <point x="379.5" y="345.6"/>
      <point x="291.59999999999997" y="345.6" type="curve" smooth="yes"/>
      <point x="191.5" y="345.6"/>
      <point x="118.6" y="263.4"/>
      <point x="81.9" y="147.5" type="curve"/>
      <point x="116.6" y="115.1" type="line"/>
      <point x="144.9" y="197.70000000000002"/>
      <point x="175.3" y="233.5"/>
      <point x="215.5" y="233.5" type="curve" smooth="yes"/>
      <point x="245.90000000000003" y="233.5"/>
      <point x="264.09999999999997" y="206.5"/>
      <point x="264.09999999999997" y="172.79999999999998" type="curve" smooth="yes"/>
      <point x="264.09999999999997" y="117.5"/>
      <point x="234.1" y="80.3"/>
      <point x="186.6" y="80.3" type="curve" smooth="yes"/>
      <point x="141.6" y="80.3"/>
      <point x="106.6" y="141.5"/>
      <point x="106.6" y="227.29999999999998" type="curve" smooth="yes"/>
      <point x="106.6" y="374.5"/>
      <point x="228.89999999999998" y="504.0"/>
      <point x="368.20000000000005" y="504.0" type="curve" smooth="yes"/>
      <point x="477.7" y="504.0"/>
      <point x="550.3" y="443.0"/>
      <point x="550.3" y="314.29999999999995" type="curve" smooth="yes"/>
      <point x="550.3" y="217.6"/>
      <point x="513.3" y="127.6"/>
      <point x="456.59999999999997" y="48.6" type="curve"/>
      <point x="472.0" y="0.0" type="line"/>
      <point x="830.9" y="0.0" type="line"/>
      <point x="920.5" y="420.2" type="line" smooth="yes"/>
      <point x="933.3000000000001" y="479.59999999999997"/>
      <point x="958.1" y="505.9"/>
      <point x="998.1" y="505.9" type="curve" smooth="yes"/>
      <point x="1049.5" y="505.9"/>
      <point x="1057.2" y="455.59999999999997"/>
      <point x="1045.6999999999998" y="401.40000000000003" type="curve" smooth="yes"/>
      <point x="960.5" y="0.0" type="line"/>
      <point x="1151.8999999999999" y="0.0" type="line"/>
      <point x="1235.1000000000001" y="388.7" type="line" smooth="yes"/>
      <point x="1251.3000000000002" y="464.8"/>
      <point x="1276.6000000000001" y="506.6"/>
      <point x="1327.0" y="506.6" type="curve" smooth="yes"/>
      <point x="1378.0" y="506.6"/>
      <point x="1395.8" y="459.2"/>
      <point x="1395.8" y="382.20000000000005" type="curve" smooth="yes"/>
      <point x="1395.8" y="135.1"/>
      <point x="1311.7" y="-85.9"/>
      <point x="1029.5" y="-85.9" type="curve" smooth="yes"/>
      <point x="255.2" y="-85.9" type="line" smooth="yes"/>
      <point x="120.10000000000001" y="-85.9"/>
      <point x="5.100000000000001" y="-114.8"/>
      <point x="5.100000000000001" y="-222.89999999999998" type="curve" smooth="yes"/>
      <point x="5.100000000000001" y="-281.3"/>
      <point x="51.599999999999994" y="-315.3"/>
    </contour>
  </outline>
</glyph>
<glyph name="aaMatra-tamil" format="2">
  <advance width="580.0"/>
  <unicode hex="0BBE"/>
  <note>
uni0BBE
</note>
  <anchor x="243.0" y="0.0" name="bottom"/>
  <anchor x="242.0" y="0.0" name="nukta"/>
  <anchor x="358.6" y="578.4" name="top"/>
  <anchor x="358.6" y="578.4" name="vedic"/>
  <outline>
    <contour>
      <point x="-0.4999999999999982" y="0.0" type="line"/>
      <point x="73.8" y="0.0" type="line"/>
      <point x="181.79999999999998" y="509.0" type="line"/>
      <point x="324.59999999999997" y="509.0" type="line"/>
      <point x="216.3" y="0.0" type="line"/>
      <point x="403.2" y="0.0" type="line"/>
      <point x="511.2" y="509.0" type="line"/>
      <point x="614.4" y="509.0" type="line"/>
      <point x="628.7" y="578.4" type="line"/>
      <point x="122.10000000000001" y="578.4" type="line"/>
    </contour>
  </outline>
</glyph>
<glyph name="iMatra-tamil" format="2">
  <advance width="200.1"/>
  <unicode hex="0BBF"/>
  <note>
uni0BBF
</note>
  <anchor x="-22.1" y="865.2" name="top"/>
  <outline>
    <contour>
      <point x="-9.899999999999999" y="0.0" type="line"/>
      <point x="65.60000000000001" y="0.0" type="line"/>
      <point x="185.8" y="562.3" type="line" smooth="yes"/>
      <point x="224.70000000000002" y="745.0"/>
      <point x="107.0" y="865.2"/>
      <point x="-76.7" y="865.2" type="curve" smooth="yes"/>
      <point x="-227.8" y="865.2"/>
      <point x="-339.7" y="778.9"/>
      <point x="-339.7" y="658.5999999999999" type="curve" smooth="yes"/>
      <point x="-339.7" y="584.5"/>
      <point x="-289.6" y="524.9"/>
      <point x="-188.3" y="524.9" type="curve" smooth="yes"/>
      <point x="-187.0" y="524.9" type="line"/>
      <point x="-173.7" y="578.1" type="line"/>
      <point x="-175.0" y="578.1" type="line" smooth="yes"/>
      <point x="-214.3" y="578.1"/>
      <point x="-244.2" y="588.6"/>
      <point x="-244.2" y="627.7" type="curve" smooth="yes"/>
      <point x="-244.2" y="679.6"/>
      <point x="-183.1" y="720.3"/>
      <point x="-90.6" y="720.3" type="curve" smooth="yes"/>
      <point x="35.5" y="720.3"/>
      <point x="127.6" y="650.5"/>
      <point x="100.89999999999999" y="523.1" type="curve" smooth="yes"/>
    </contour>
  </outline>
</glyph>
<glyph name="iiMatra-tamil" format="2">
  <unicode hex="0BC0"/>
  <note>
uni0BC0
</note>
  <anchor x="64.3" y="578.4" name="_imatra"/>
  <anchor x="107.9" y="933.8" name="top"/>
  <outline>
    <contour>
      <point x="30.299999999999997" y="509.0" type="curve" smooth="yes"/>
      <point x="47.7" y="509.0" type="line"/>
      <point x="63.0" y="578.4" type="line"/>
      <point x="45.8" y="578.4" type="line" smooth="yes"/>
      <point x="-23.0" y="578.4"/>
      <point x="-62.1" y="626.3000000000001"/>
      <point x="-62.1" y="696.6" type="curve" smooth="yes"/>
      <point x="-62.1" y="785.5"/>
      <point x="-5.3" y="859.2"/>
      <point x="89.2" y="859.2" type="curve" smooth="yes"/>
      <point x="142.0" y="859.2"/>
      <point x="168.2" y="833.5"/>
      <point x="168.2" y="787.0999999999999" type="curve" smooth="yes"/>
      <point x="168.2" y="745.6"/>
      <point x="146.9" y="707.6"/>
      <point x="105.1" y="707.6" type="curve" smooth="yes"/>
      <point x="43.199999999999996" y="707.6"/>
      <point x="54.9" y="811.5"/>
      <point x="102.7" y="882.4" type="curve"/>
      <point x="55.4" y="887.4" type="line"/>
      <point x="-37.7" y="764.9"/>
      <point x="-13.700000000000001" y="613.2"/>
      <point x="132.6" y="613.2" type="curve" smooth="yes"/>
      <point x="220.0" y="613.2"/>
      <point x="303.7" y="676.0"/>
      <point x="303.7" y="778.4" type="curve" smooth="yes"/>
      <point x="303.7" y="877.5"/>
      <point x="222.0" y="933.8"/>
      <point x="107.9" y="933.8" type="curve" smooth="yes"/>
      <point x="-24.9" y="933.8"/>
      <point x="-135.8" y="833.1"/>
      <point x="-135.8" y="688.7" type="curve" smooth="yes"/>
      <point x="-135.8" y="582.5"/>
      <point x="-69.0" y="509.0"/>
    </contour>
  </outline>
</glyph>
<glyph name="uMatra-tamil" format="2">
  <advance width="490.90000000000003"/>
  <unicode hex="0BC1"/>
  <note>
uni0BC1
</note>
  <anchor x="222.8" y="578.4" name="top"/>
  <outline>
    <contour>
      <point x="269.9" y="230.9" type="curve" smooth="yes"/>
      <point x="370.59999999999997" y="230.9"/>
      <point x="457.4" y="273.3"/>
      <point x="482.9" y="391.7" type="curve" smooth="yes"/>
      <point x="523.0" y="578.4" type="line"/>
      <point x="-213.0" y="578.4" type="line"/>
      <point x="-171.0" y="509.0" type="line"/>
      <point x="320.8" y="509.0" type="line"/>
      <point x="295.2" y="391.3" type="line" smooth="yes"/>
      <point x="283.6" y="339.09999999999997"/>
      <point x="259.90000000000003" y="320.20000000000005"/>
      <point x="227.1" y="320.20000000000005" type="curve" smooth="yes"/>
      <point x="186.9" y="320.20000000000005"/>
      <point x="174.20000000000002" y="357.8"/>
      <point x="187.79999999999998" y="419.40000000000003" type="curve" smooth="yes"/>
      <point x="212.6" y="534.0" type="line"/>
      <point x="140.1" y="534.0" type="line"/>
      <point x="118.29999999999998" y="427.9" type="line" smooth="yes"/>
      <point x="93.0" y="303.6"/>
      <point x="152.60000000000002" y="230.9"/>
    </contour>
  </outline>
</glyph>
<glyph name="uuMatra-tamil" format="2">
  <advance width="819.3000000000001"/>
  <unicode hex="0BC2"/>
  <note>
uni0BC2
</note>
  <anchor x="458.6" y="794.0999999999999" name="top"/>
  <outline>
    <contour>
      <point x="311.09999999999997" y="8.7" type="curve" smooth="yes"/>
      <point x="563.1" y="8.7"/>
      <point x="792.1" y="188.9"/>
      <point x="792.1" y="469.3" type="curve" smooth="yes"/>
      <point x="792.1" y="687.8000000000001"/>
      <point x="637.3" y="794.1"/>
      <point x="458.59999999999997" y="794.1" type="curve" smooth="yes"/>
      <point x="255.1" y="794.1"/>
      <point x="152.89999999999998" y="665.5"/>
      <point x="127.1" y="540.1" type="curve" smooth="yes"/>
      <point x="103.9" y="427.9" type="line" smooth="yes"/>
      <point x="78.30000000000001" y="303.6"/>
      <point x="138.2" y="230.9"/>
      <point x="255.5" y="230.9" type="curve" smooth="yes"/>
      <point x="356.2" y="230.9"/>
      <point x="443.0" y="273.3"/>
      <point x="468.5" y="391.7" type="curve" smooth="yes"/>
      <point x="508.6" y="578.4" type="line"/>
      <point x="-228.9" y="578.4" type="line"/>
      <point x="-189.9" y="509.0" type="line"/>
      <point x="306.4" y="509.0" type="line"/>
      <point x="280.8" y="391.3" type="line" smooth="yes"/>
      <point x="269.2" y="339.09999999999997"/>
      <point x="245.5" y="320.20000000000005"/>
      <point x="212.70000000000002" y="320.20000000000005" type="curve" smooth="yes"/>
      <point x="172.5" y="320.20000000000005"/>
      <point x="160.20000000000002" y="357.8"/>
      <point x="173.4" y="419.40000000000003" type="curve" smooth="yes"/>
      <point x="199.6" y="540.1" type="line" smooth="yes"/>
      <point x="218.9" y="630.1"/>
      <point x="281.90000000000003" y="710.4"/>
      <point x="405.59999999999997" y="710.4" type="curve" smooth="yes"/>
      <point x="518.1999999999999" y="710.4"/>
      <point x="594.4" y="640.8"/>
      <point x="594.4" y="499.3" type="curve" smooth="yes"/>
      <point x="594.4" y="279.2"/>
      <point x="474.59999999999997" y="92.7"/>
      <point x="284.7" y="92.7" type="curve" smooth="yes"/>
      <point x="190.00000000000003" y="92.7"/>
      <point x="123.20000000000002" y="124.89999999999999"/>
      <point x="68.6" y="199.0" type="curve"/>
      <point x="2.299999999999997" y="143.39999999999998" type="line"/>
      <point x="65.80000000000001" y="61.699999999999996"/>
      <point x="156.1" y="8.7"/>
    </contour>
  </outline>
</glyph>
<glyph name="eMatra-tamil" format="2">
  <advance width="758.6"/>
  <unicode hex="0BC6"/>
  <note>
uni0BC6
</note>
  <outline>
    <contour>
      <point x="264.59999999999997" y="-5.0" type="curve" smooth="yes"/>
      <point x="381.1" y="-5.0"/>
      <point x="474.7" y="74.7"/>
      <point x="474.7" y="202.0" type="curve" smooth="yes"/>
      <point x="474.7" y="288.09999999999997"/>
      <point x="422.09999999999997" y="345.6"/>
      <point x="334.2" y="345.6" type="curve" smooth="yes"/>
      <point x="234.1" y="345.6"/>
      <point x="161.2" y="263.4"/>
      <point x="124.5" y="147.5" type="curve"/>
      <point x="159.20000000000002" y="115.10000000000001" type="line"/>
      <point x="187.5" y="197.7"/>
      <point x="217.9" y="233.5"/>
      <point x="258.09999999999997" y="233.5" type="curve" smooth="yes"/>
      <point x="288.5" y="233.5"/>
      <point x="306.7" y="206.5"/>
      <point x="306.7" y="172.79999999999998" type="curve" smooth="yes"/>
      <point x="306.7" y="117.5"/>
      <point x="276.7" y="80.3"/>
      <point x="229.20000000000002" y="80.3" type="curve" smooth="yes"/>
      <point x="174.4" y="80.3"/>
      <point x="132.3" y="150.4"/>
      <point x="132.3" y="287.3" type="curve" smooth="yes"/>
      <point x="132.3" y="500.59999999999997"/>
      <point x="258.8" y="700.7"/>
      <point x="470.40000000000003" y="700.7" type="curve" smooth="yes"/>
      <point x="607.6" y="700.7"/>
      <point x="682.0" y="623.5999999999999"/>
      <point x="650.8" y="474.5" type="curve" smooth="yes"/>
      <point x="551.3000000000001" y="0.0" type="line"/>
      <point x="625.1" y="0.0" type="line"/>
      <point x="734.6" y="515.8" type="line" smooth="yes"/>
      <point x="778.0999999999999" y="720.4"/>
      <point x="686.3000000000001" y="854.7"/>
      <point x="495.5" y="854.7" type="curve" smooth="yes"/>
      <point x="219.3" y="854.7"/>
      <point x="58.3" y="560.1999999999999"/>
      <point x="58.3" y="276.7" type="curve" smooth="yes"/>
      <point x="58.3" y="102.19999999999999"/>
      <point x="143.0" y="-5.0"/>
    </contour>
  </outline>
</glyph>
<glyph name="eeMatra-tamil" format="2">
  <advance width="585.7"/>
  <unicode hex="0BC7"/>
  <note>
uni0BC7
</note>
  <outline>
    <contour>
      <point x="310.4" y="-5.0" type="curve" smooth="yes"/>
      <point x="427.8" y="-5.0"/>
      <point x="532.3" y="73.19999999999999"/>
      <point x="532.3" y="202.89999999999998" type="curve" smooth="yes"/>
      <point x="532.3" y="289.3"/>
      <point x="479.2" y="345.59999999999997"/>
      <point x="396.3" y="345.59999999999997" type="curve" smooth="yes"/>
      <point x="282.0" y="345.59999999999997"/>
      <point x="211.4" y="242.2"/>
      <point x="173.5" y="109.5" type="curve"/>
      <point x="215.3" y="79.9" type="line"/>
      <point x="244.8" y="178.2"/>
      <point x="275.2" y="233.5"/>
      <point x="318.09999999999997" y="233.5" type="curve" smooth="yes"/>
      <point x="348.7" y="233.5"/>
      <point x="364.0" y="209.1"/>
      <point x="364.0" y="173.4" type="curve" smooth="yes"/>
      <point x="364.0" y="116.9"/>
      <point x="330.7" y="80.3"/>
      <point x="284.1" y="80.3" type="curve" smooth="yes"/>
      <point x="195.20000000000002" y="80.3"/>
      <point x="145.20000000000002" y="195.0"/>
      <point x="145.20000000000002" y="355.09999999999997" type="curve" smooth="yes"/>
      <point x="145.20000000000002" y="525.2"/>
      <point x="274.1" y="780.8"/>
      <point x="428.0" y="780.8" type="curve" smooth="yes"/>
      <point x="465.5" y="780.8"/>
      <point x="483.9" y="760.3"/>
      <point x="483.9" y="716.4" type="curve" smooth="yes"/>
      <point x="483.9" y="666.6"/>
      <point x="453.9" y="626.9"/>
      <point x="416.59999999999997" y="626.9" type="curve" smooth="yes"/>
      <point x="367.40000000000003" y="626.9"/>
      <point x="366.3" y="718.9"/>
      <point x="375.59999999999997" y="787.5" type="curve"/>
      <point x="324.5" y="763.6" type="line"/>
      <point x="307.5" y="636.0"/>
      <point x="339.7" y="515.5"/>
      <point x="459.3" y="515.5" type="curve" smooth="yes"/>
      <point x="561.3" y="515.5"/>
      <point x="645.5" y="597.6999999999999"/>
      <point x="645.5" y="707.2" type="curve" smooth="yes"/>
      <point x="645.5" y="813.7"/>
      <point x="577.6" y="866.1"/>
      <point x="475.40000000000003" y="866.1" type="curve" smooth="yes"/>
      <point x="240.8" y="866.1"/>
      <point x="69.6" y="574.7"/>
      <point x="69.6" y="345.7" type="curve" smooth="yes"/>
      <point x="69.6" y="143.6"/>
      <point x="148.7" y="-5.0"/>
    </contour>
  </outline>
</glyph>
<glyph name="aiMatra-tamil" format="2">
  <advance width="1227.8"/>
  <unicode hex="0BC8"/>
  <note>
uni0BC8
</note>
  <outline>
    <contour>
      <point x="911.9" y="-14.400000000000002" type="line"/>
      <point x="1075.7" y="50.4"/>
      <point x="1189.3" y="160.5"/>
      <point x="1189.3" y="324.1" type="curve" smooth="yes"/>
      <point x="1189.3" y="504.2"/>
      <point x="1038.1" y="584.1"/>
      <point x="877.1" y="584.1" type="curve" smooth="yes"/>
      <point x="690.0" y="584.1"/>
      <point x="477.0" y="397.5"/>
      <point x="477.0" y="163.79999999999998" type="curve" smooth="yes"/>
      <point x="477.0" y="68.2"/>
      <point x="529.3000000000001" y="-4.0"/>
      <point x="629.6" y="-4.0" type="curve" smooth="yes"/>
      <point x="759.9" y="-4.0"/>
      <point x="848.3" y="92.60000000000001"/>
      <point x="848.3" y="242.9" type="curve" smooth="yes"/>
      <point x="848.3" y="462.59999999999997"/>
      <point x="680.2" y="584.1"/>
      <point x="452.3" y="584.1" type="curve" smooth="yes"/>
      <point x="235.20000000000002" y="584.1"/>
      <point x="30.6" y="419.5"/>
      <point x="30.6" y="217.9" type="curve" smooth="yes"/>
      <point x="30.6" y="93.3"/>
      <point x="101.5" y="-5.0"/>
      <point x="221.7" y="-5.0" type="curve" smooth="yes"/>
      <point x="338.20000000000005" y="-5.0"/>
      <point x="430.8" y="74.7"/>
      <point x="430.8" y="202.0" type="curve" smooth="yes"/>
      <point x="430.8" y="288.1"/>
      <point x="378.2" y="345.6"/>
      <point x="290.3" y="345.6" type="curve" smooth="yes"/>
      <point x="190.2" y="345.6"/>
      <point x="117.3" y="263.4"/>
      <point x="80.60000000000001" y="147.5" type="curve"/>
      <point x="115.3" y="115.1" type="line"/>
      <point x="143.6" y="197.70000000000002"/>
      <point x="174.0" y="233.5"/>
      <point x="214.2" y="233.5" type="curve" smooth="yes"/>
      <point x="244.60000000000002" y="233.5"/>
      <point x="262.8" y="206.5"/>
      <point x="262.8" y="172.79999999999998" type="curve" smooth="yes"/>
      <point x="262.8" y="117.5"/>
      <point x="232.20000000000002" y="80.3"/>
      <point x="184.70000000000002" y="80.3" type="curve" smooth="yes"/>
      <point x="139.70000000000002" y="80.3"/>
      <point x="105.3" y="138.5"/>
      <point x="105.3" y="224.29999999999998" type="curve" smooth="yes"/>
      <point x="105.3" y="381.09999999999997"/>
      <point x="261.09999999999997" y="508.1"/>
      <point x="435.0" y="508.1" type="curve" smooth="yes"/>
      <point x="611.3000000000001" y="508.1"/>
      <point x="685.4" y="402.8"/>
      <point x="685.4" y="257.4" type="curve" smooth="yes"/>
      <point x="685.4" y="170.5"/>
      <point x="660.2" y="85.30000000000001"/>
      <point x="597.0999999999999" y="85.30000000000001" type="curve" smooth="yes"/>
      <point x="567.0" y="85.30000000000001"/>
      <point x="549.9" y="114.9"/>
      <point x="549.9" y="168.5" type="curve" smooth="yes"/>
      <point x="549.9" y="361.4"/>
      <point x="720.0" y="508.1"/>
      <point x="859.1999999999999" y="508.1" type="curve" smooth="yes"/>
      <point x="960.2" y="508.1"/>
      <point x="1030.5" y="451.6"/>
      <point x="1030.5" y="339.0" type="curve" smooth="yes"/>
      <point x="1030.5" y="214.5"/>
      <point x="983.7" y="119.89999999999999"/>
      <point x="885.3" y="34.0" type="curve"/>
    </contour>
  </outline>
</glyph>
<glyph name="halant-tamil" format="2">
  <unicode hex="0BCD"/>
  <note>
uni0BCD
</note>
  <anchor x="64.3" y="578.4" name="_top"/>
  <outline>
    <contour>
      <point x="94.10000000000001" y="642.6" type="curve" smooth="yes"/>
      <point x="145.2" y="642.6"/>
      <point x="188.29999999999998" y="684.1"/>
      <point x="188.29999999999998" y="733.5" type="curve" smooth="yes"/>
      <point x="188.29999999999998" y="783.3"/>
      <point x="145.5" y="825.1"/>
      <point x="95.10000000000001" y="825.1" type="curve" smooth="yes"/>
      <point x="43.0" y="825.1"/>
      <point x="0.8999999999999995" y="783.3"/>
      <point x="0.8999999999999995" y="733.5" type="curve" smooth="yes"/>
      <point x="0.8999999999999995" y="684.1"/>
      <point x="42.699999999999996" y="642.6"/>
    </contour>
  </outline>
</glyph>
<glyph name="om-tamil" format="2">
  <advance width="985.1"/>
  <unicode hex="0BD0"/>
  <note>
uni0BD0
</note>
  <outline>
    <contour>
      <point x="208.0" y="-398.59999999999997" type="curve" smooth="yes"/>
      <point x="478.90000000000003" y="-398.59999999999997"/>
      <point x="531.1999999999999" y="-166.4"/>
      <point x="679.1999999999999" y="-166.4" type="curve" smooth="yes"/>
      <point x="725.4" y="-166.4" type="line"/>
      <point x="739.7" y="-98.0" type="line"/>
      <point x="669.4" y="-98.0" type="line" smooth="yes"/>
      <point x="501.59999999999997" y="-98.0"/>
      <point x="462.1" y="72.2"/>
      <point x="574.5" y="228.20000000000002" type="curve"/>
      <point x="579.5" y="224.9" type="line"/>
      <point x="525.5" y="97.6"/>
      <point x="566.1" y="-2.7"/>
      <point x="697.4" y="-2.7" type="curve" smooth="yes"/>
      <point x="827.5" y="-2.7"/>
      <point x="932.4" y="104.80000000000001"/>
      <point x="932.4" y="256.09999999999997" type="curve" smooth="yes"/>
      <point x="932.4" y="474.7"/>
      <point x="738.5" y="584.1"/>
      <point x="506.5" y="584.1" type="curve" smooth="yes"/>
      <point x="246.0" y="584.1"/>
      <point x="32.3" y="426.2"/>
      <point x="32.3" y="227.9" type="curve" smooth="yes"/>
      <point x="32.3" y="103.3"/>
      <point x="103.60000000000001" y="5.0"/>
      <point x="223.8" y="5.0" type="curve" smooth="yes"/>
      <point x="340.3" y="5.0"/>
      <point x="429.70000000000005" y="84.7"/>
      <point x="429.70000000000005" y="212.0" type="curve" smooth="yes"/>
      <point x="429.70000000000005" y="298.09999999999997"/>
      <point x="378.5" y="355.6"/>
      <point x="290.6" y="355.6" type="curve" smooth="yes"/>
      <point x="190.5" y="355.6"/>
      <point x="116.3" y="270.4"/>
      <point x="79.6" y="154.5" type="curve"/>
      <point x="113.4" y="122.1" type="line"/>
      <point x="141.7" y="204.70000000000002"/>
      <point x="174.3" y="243.5"/>
      <point x="214.5" y="243.5" type="curve" smooth="yes"/>
      <point x="244.90000000000003" y="243.5"/>
      <point x="261.7" y="216.5"/>
      <point x="261.7" y="182.79999999999998" type="curve" smooth="yes"/>
      <point x="261.7" y="127.50000000000001"/>
      <point x="233.10000000000002" y="90.3"/>
      <point x="185.6" y="90.3" type="curve" smooth="yes"/>
      <point x="140.6" y="90.3"/>
      <point x="107.0" y="146.7"/>
      <point x="107.0" y="232.5" type="curve" smooth="yes"/>
      <point x="107.0" y="396.90000000000003"/>
      <point x="293.8" y="511.6"/>
      <point x="478.79999999999995" y="511.6" type="curve" smooth="yes"/>
      <point x="646.6999999999999" y="511.6"/>
      <point x="764.6" y="424.5"/>
      <point x="764.6" y="266.90000000000003" type="curve" smooth="yes"/>
      <point x="764.6" y="173.8"/>
      <point x="725.5" y="89.6"/>
      <point x="660.5" y="89.6" type="curve" smooth="yes"/>
      <point x="596.0" y="89.6"/>
      <point x="611.0" y="198.70000000000002"/>
      <point x="659.7" y="279.8" type="curve"/>
      <point x="584.6" y="323.1" type="line"/>
      <point x="443.2" y="168.9"/>
      <point x="384.90000000000003" y="-43.0"/>
      <point x="542.9" y="-123.1" type="curve"/>
      <point x="541.9" y="-128.1" type="line"/>
      <point x="396.2" y="-156.6"/>
      <point x="386.3" y="-322.3"/>
      <point x="186.5" y="-322.3" type="curve" smooth="yes"/>
      <point x="76.3" y="-322.3"/>
      <point x="23.599999999999998" y="-263.1"/>
      <point x="57.900000000000006" y="-166.4" type="curve"/>
      <point x="-2.8999999999999986" y="-156.0" type="line"/>
      <point x="-51.699999999999996" y="-301.5"/>
      <point x="34.9" y="-398.59999999999997"/>
    </contour>
    <contour>
      <point x="91.0" y="-259.4" type="line"/>
      <point x="144.79999999999998" y="-259.4" type="line"/>
      <point x="178.1" y="-102.4" type="line"/>
      <point x="124.3" y="-102.4" type="line"/>
    </contour>
    <contour>
      <point x="108.5" y="-259.4" type="line"/>
      <point x="296.4" y="-259.4" type="line"/>
      <point x="306.7" y="-212.6" type="line"/>
      <point x="119.5" y="-212.6" type="line"/>
    </contour>
    <contour>
      <point x="180.9" y="-259.4" type="line"/>
      <point x="231.70000000000002" y="-259.4" type="line"/>
      <point x="252.79999999999998" y="-161.2" type="line" smooth="yes"/>
      <point x="255.1" y="-149.6"/>
      <point x="262.0" y="-143.9"/>
      <point x="272.0" y="-143.9" type="curve" smooth="yes"/>
      <point x="285.0" y="-143.9"/>
      <point x="287.90000000000003" y="-155.0"/>
      <point x="285.6" y="-167.20000000000002" type="curve" smooth="yes"/>
      <point x="266.5" y="-259.4" type="line"/>
      <point x="319.59999999999997" y="-259.4" type="line"/>
      <point x="336.0" y="-177.9" type="line" smooth="yes"/>
      <point x="347.2" y="-124.1"/>
      <point x="315.7" y="-100.1"/>
      <point x="277.3" y="-100.1" type="curve" smooth="yes"/>
      <point x="238.2" y="-100.1"/>
      <point x="210.9" y="-121.1"/>
      <point x="200.3" y="-169.8" type="curve" smooth="yes"/>
    </contour>
    <contour>
      <point x="252.1" y="-83.2" type="curve" smooth="yes"/>
      <point x="271.0" y="-83.2"/>
      <point x="285.59999999999997" y="-68.6"/>
      <point x="286.3" y="-51.7" type="curve" smooth="yes"/>
      <point x="287.0" y="-34.099999999999994"/>
      <point x="271.0" y="-18.5"/>
      <point x="252.1" y="-18.5" type="curve" smooth="yes"/>
      <point x="234.20000000000002" y="-18.5"/>
      <point x="218.6" y="-34.099999999999994"/>
      <point x="218.6" y="-51.7" type="curve" smooth="yes"/>
      <point x="218.6" y="-68.6"/>
      <point x="234.20000000000002" y="-83.2"/>
    </contour>
  </outline>
</glyph>
<glyph name="zero-tamil" format="2">
  <advance width="576.7"/>
  <unicode hex="0BE6"/>
  <note>
uni0BE6
</note>
  <outline>
    <contour>
      <point x="239.1" y="-5.0" type="curve" smooth="yes"/>
      <point x="408.1" y="-5.0"/>
      <point x="544.6" y="149.0"/>
      <point x="544.6" y="349.3" type="curve" smooth="yes"/>
      <point x="544.6" y="499.2"/>
      <point x="457.2" y="584.4"/>
      <point x="327.59999999999997" y="584.4" type="curve" smooth="yes"/>
      <point x="147.8" y="584.4"/>
      <point x="33.9" y="402.09999999999997"/>
      <point x="33.9" y="225.3" type="curve" smooth="yes"/>
      <point x="33.9" y="88.69999999999999"/>
      <point x="104.4" y="-5.0"/>
    </contour>
    <contour>
      <point x="210.0" y="80.2" type="curve" smooth="yes"/>
      <point x="139.79999999999998" y="80.2"/>
      <point x="107.8" y="142.5"/>
      <point x="107.8" y="230.5" type="curve" smooth="yes"/>
      <point x="107.8" y="356.2"/>
      <point x="176.6" y="498.2"/>
      <point x="283.4" y="498.2" type="curve" smooth="yes"/>
      <point x="355.7" y="498.2"/>
      <point x="387.0" y="444.3"/>
      <point x="387.0" y="353.5" type="curve" smooth="yes"/>
      <point x="387.0" y="210.70000000000002"/>
      <point x="320.0" y="80.2"/>
    </contour>
  </outline>
</glyph>
<glyph name="one-tamil" format="2">
  <advance width="815.1999999999999"/>
  <unicode hex="0BE7"/>
  <note>
uni0BE7
</note>
  <outline>
    <contour>
      <point x="226.3" y="-4.0" type="curve" smooth="yes"/>
      <point x="378.6" y="-4.0"/>
      <point x="452.3" y="66.9"/>
      <point x="481.0" y="200.4" type="curve" smooth="yes"/>
      <point x="496.2" y="272.7" type="line"/>
      <point x="520.3000000000001" y="272.7" type="line" smooth="yes"/>
      <point x="558.8" y="272.7"/>
      <point x="580.5" y="246.1"/>
      <point x="580.5" y="197.39999999999998" type="curve" smooth="yes"/>
      <point x="580.5" y="126.89999999999999"/>
      <point x="552.0" y="76.7"/>
      <point x="495.40000000000003" y="76.7" type="curve" smooth="yes"/>
      <point x="460.9" y="76.7"/>
      <point x="440.09999999999997" y="97.3"/>
      <point x="425.4" y="128.70000000000002" type="curve"/>
      <point x="370.0" y="90.6" type="line"/>
      <point x="394.6" y="45.199999999999996"/>
      <point x="432.8" y="-5.0"/>
      <point x="528.4" y="-5.0" type="curve" smooth="yes"/>
      <point x="651.9" y="-5.0"/>
      <point x="756.9" y="62.699999999999996"/>
      <point x="756.9" y="195.1" type="curve" smooth="yes"/>
      <point x="756.9" y="298.7"/>
      <point x="673.1" y="342.4"/>
      <point x="548.9" y="342.4" type="curve" smooth="yes"/>
      <point x="510.8" y="342.4" type="line"/>
      <point x="546.2" y="508.7" type="line"/>
      <point x="674.3" y="508.7" type="line"/>
      <point x="689.6" y="578.4" type="line"/>
      <point x="192.9" y="578.4" type="line"/>
      <point x="134.9" y="305.1" type="line"/>
      <point x="208.10000000000002" y="305.1" type="line"/>
      <point x="250.79999999999998" y="508.7" type="line"/>
      <point x="357.09999999999997" y="508.7" type="line"/>
      <point x="322.40000000000003" y="342.4" type="line"/>
      <point x="208.8" y="342.4" type="line" smooth="yes"/>
      <point x="96.9" y="342.4"/>
      <point x="21.799999999999997" y="262.5"/>
      <point x="21.799999999999997" y="157.7" type="curve" smooth="yes"/>
      <point x="21.799999999999997" y="72.2"/>
      <point x="94.6" y="-4.0"/>
    </contour>
    <contour>
      <point x="185.70000000000002" y="79.5" type="curve" smooth="yes"/>
      <point x="134.10000000000002" y="79.5"/>
      <point x="94.5" y="112.2"/>
      <point x="94.5" y="168.4" type="curve" smooth="yes"/>
      <point x="94.5" y="229.9"/>
      <point x="130.3" y="272.7"/>
      <point x="202.20000000000002" y="272.7" type="curve" smooth="yes"/>
      <point x="307.09999999999997" y="272.7" type="line"/>
      <point x="290.8" y="191.70000000000002" type="line" smooth="yes"/>
      <point x="273.7" y="107.8"/>
      <point x="245.2" y="79.5"/>
    </contour>
  </outline>
</glyph>
<glyph name="two-tamil" format="2">
  <advance width="907.6"/>
  <unicode hex="0BE8"/>
  <note>
uni0BE8
</note>
  <outline>
    <contour>
      <point x="106.3" y="0.0" type="curve" smooth="yes"/>
      <point x="827.4" y="0.0" type="line"/>
      <point x="842.6999999999999" y="69.4" type="line"/>
      <point x="109.89999999999999" y="69.4" type="line" smooth="yes"/>
      <point x="92.5" y="69.4"/>
      <point x="80.5" y="81.10000000000001"/>
      <point x="80.5" y="98.6" type="curve" smooth="yes"/>
      <point x="80.5" y="120.5"/>
      <point x="96.5" y="130.7"/>
      <point x="116.60000000000001" y="130.7" type="curve" smooth="yes"/>
      <point x="343.8" y="130.7" type="line" smooth="yes"/>
      <point x="524.7" y="130.7"/>
      <point x="672.5" y="206.8"/>
      <point x="672.5" y="382.4" type="curve" smooth="yes"/>
      <point x="672.5" y="516.8"/>
      <point x="563.6" y="583.4"/>
      <point x="420.3" y="583.4" type="curve" smooth="yes"/>
      <point x="248.9" y="583.4"/>
      <point x="136.5" y="471.3"/>
      <point x="136.5" y="326.0" type="curve" smooth="yes"/>
      <point x="136.5" y="224.7"/>
      <point x="188.5" y="152.6"/>
      <point x="309.0" y="152.6" type="curve"/>
      <point x="319.29999999999995" y="195.8" type="line"/>
      <point x="237.0" y="195.8"/>
      <point x="204.20000000000002" y="256.4"/>
      <point x="204.20000000000002" y="325.9" type="curve" smooth="yes"/>
      <point x="204.20000000000002" y="421.9"/>
      <point x="272.0" y="513.6"/>
      <point x="376.29999999999995" y="513.6" type="curve" smooth="yes"/>
      <point x="456.7" y="513.6"/>
      <point x="502.0" y="468.7"/>
      <point x="502.0" y="391.0" type="curve" smooth="yes"/>
      <point x="502.0" y="275.1"/>
      <point x="431.6" y="195.8"/>
      <point x="325.59999999999997" y="195.8" type="curve" smooth="yes"/>
      <point x="126.89999999999999" y="195.8" type="line" smooth="yes"/>
      <point x="51.6" y="195.8"/>
      <point x="10.7" y="152.60000000000002"/>
      <point x="10.7" y="90.60000000000001" type="curve" smooth="yes"/>
      <point x="10.7" y="34.6"/>
      <point x="52.800000000000004" y="0.0"/>
    </contour>
  </outline>
</glyph>
<glyph name="four-tamil" format="2">
  <advance width="803.4"/>
  <unicode hex="0BEA"/>
  <note>
uni0BEA
</note>
  <outline>
    <contour>
      <point x="226.3" y="-4.0" type="curve" smooth="yes"/>
      <point x="378.6" y="-4.0"/>
      <point x="452.3" y="66.9"/>
      <point x="481.0" y="200.4" type="curve" smooth="yes"/>
      <point x="496.2" y="272.7" type="line"/>
      <point x="776.6" y="272.7" type="line"/>
      <point x="841.2" y="578.4" type="line"/>
      <point x="764.1999999999999" y="578.4" type="line"/>
      <point x="714.1999999999999" y="342.4" type="line"/>
      <point x="510.8" y="342.4" type="line"/>
      <point x="546.2" y="508.7" type="line"/>
      <point x="674.3" y="508.7" type="line"/>
      <point x="689.6" y="578.4" type="line"/>
      <point x="192.9" y="578.4" type="line"/>
      <point x="134.9" y="305.1" type="line"/>
      <point x="208.10000000000002" y="305.1" type="line"/>
      <point x="250.79999999999998" y="508.7" type="line"/>
      <point x="357.09999999999997" y="508.7" type="line"/>
      <point x="322.40000000000003" y="342.4" type="line"/>
      <point x="208.8" y="342.4" type="line" smooth="yes"/>
      <point x="96.9" y="342.4"/>
      <point x="21.799999999999997" y="262.5"/>
      <point x="21.799999999999997" y="157.7" type="curve" smooth="yes"/>
      <point x="21.799999999999997" y="72.2"/>
      <point x="94.6" y="-4.0"/>
    </contour>
    <contour>
      <point x="185.70000000000002" y="79.5" type="curve" smooth="yes"/>
      <point x="134.10000000000002" y="79.5"/>
      <point x="94.5" y="112.2"/>
      <point x="94.5" y="168.4" type="curve" smooth="yes"/>
      <point x="94.5" y="229.9"/>
      <point x="130.3" y="272.7"/>
      <point x="202.20000000000002" y="272.7" type="curve" smooth="yes"/>
      <point x="307.09999999999997" y="272.7" type="line"/>
      <point x="290.8" y="191.70000000000002" type="line" smooth="yes"/>
      <point x="273.7" y="107.8"/>
      <point x="245.2" y="79.5"/>
    </contour>
  </outline>
</glyph>
<glyph name="five-tamil" format="2">
  <advance width="1088.6"/>
  <unicode hex="0BEB"/>
  <note>
uni0BEB
</note>
  <outline>
    <contour>
      <point x="437.6" y="-293.3" type="curve" smooth="yes"/>
      <point x="710.5" y="-293.3"/>
      <point x="947.8" y="-94.5"/>
      <point x="947.8" y="184.8" type="curve" smooth="yes"/>
      <point x="947.8" y="298.1"/>
      <point x="889.9" y="357.4"/>
      <point x="800.0" y="357.4" type="curve" smooth="yes"/>
      <point x="697.8" y="357.4"/>
      <point x="640.8000000000001" y="267.3"/>
      <point x="618.6" y="170.79999999999998" type="curve" smooth="yes"/>
      <point x="612.8" y="145.5" type="line"/>
      <point x="634.6" y="145.5" type="line"/>
      <point x="639.7" y="168.0" type="line" smooth="yes"/>
      <point x="650.6" y="216.79999999999998"/>
      <point x="675.4" y="242.0"/>
      <point x="713.6999999999999" y="242.0" type="curve" smooth="yes"/>
      <point x="755.8000000000001" y="242.0"/>
      <point x="777.2" y="211.8"/>
      <point x="777.2" y="159.4" type="curve" smooth="yes"/>
      <point x="777.2" y="-47.400000000000006"/>
      <point x="644.8" y="-217.4"/>
      <point x="431.0" y="-217.4" type="curve" smooth="yes"/>
      <point x="230.1" y="-217.4"/>
      <point x="115.10000000000001" y="-58.5"/>
      <point x="115.10000000000001" y="172.3" type="curve" smooth="yes"/>
      <point x="115.10000000000001" y="465.9"/>
      <point x="283.0" y="708.9"/>
      <point x="605.0" y="708.9" type="curve" smooth="yes"/>
      <point x="791.9" y="708.9"/>
      <point x="979.9" y="647.0"/>
      <point x="984.5" y="396.9" type="curve"/>
      <point x="1058.6" y="396.9" type="line"/>
      <point x="1072.8" y="680.4"/>
      <point x="897.1999999999999" y="854.7"/>
      <point x="624.6" y="854.7" type="curve" smooth="yes"/>
      <point x="241.90000000000003" y="854.7"/>
      <point x="34.0" y="525.1"/>
      <point x="34.0" y="165.0" type="curve" smooth="yes"/>
      <point x="34.0" y="-96.80000000000001"/>
      <point x="180.3" y="-293.3"/>
    </contour>
    <contour>
      <point x="227.9" y="0.0" type="line"/>
      <point x="301.5" y="0.0" type="line"/>
      <point x="410.5" y="509.0" type="line"/>
      <point x="526.6" y="509.0" type="line"/>
      <point x="418.3" y="0.0" type="line"/>
      <point x="604.1999999999999" y="0.0" type="line"/>
      <point x="712.1999999999999" y="509.0" type="line"/>
      <point x="832.8" y="509.0" type="line"/>
      <point x="847.4000000000001" y="578.4" type="line"/>
      <point x="350.5" y="578.4" type="line"/>
    </contour>
  </outline>
</glyph>
<glyph name="eight-tamil" format="2">
  <advance width="1244.0"/>
  <unicode hex="0BEE"/>
  <note>
uni0BEE
</note>
  <outline>
    <contour>
      <point x="885.3000000000001" y="-237.2" type="line"/>
      <point x="1070.3" y="-237.2" type="line"/>
      <point x="1244.5" y="578.4" type="line"/>
      <point x="1058.8000000000002" y="578.4" type="line"/>
      <point x="968.6" y="154.3" type="line"/>
      <point x="78.3" y="154.3" type="line" smooth="yes"/>
      <point x="15.3" y="154.3"/>
      <point x="-26.3" y="111.10000000000001"/>
      <point x="-26.3" y="46.7" type="curve" smooth="yes"/>
      <point x="-26.3" y="-75.3"/>
      <point x="136.6" y="-166.5"/>
      <point x="330.2" y="-166.5" type="curve" smooth="yes"/>
      <point x="634.9" y="-166.5"/>
      <point x="892.1" y="0.1999999999999993"/>
      <point x="892.1" y="295.1" type="curve" smooth="yes"/>
      <point x="892.1" y="477.8"/>
      <point x="779.5" y="583.4"/>
      <point x="602.9" y="583.4" type="curve" smooth="yes"/>
      <point x="417.5" y="583.4"/>
      <point x="317.79999999999995" y="424.3"/>
      <point x="317.79999999999995" y="274.8" type="curve" smooth="yes"/>
      <point x="317.79999999999995" y="217.79999999999998"/>
      <point x="330.2" y="164.4"/>
      <point x="348.1" y="121.6" type="curve"/>
      <point x="421.40000000000003" y="121.3" type="line"/>
      <point x="400.3" y="168.29999999999998"/>
      <point x="391.1" y="216.39999999999998"/>
      <point x="391.1" y="270.1" type="curve" smooth="yes"/>
      <point x="391.1" y="388.6"/>
      <point x="453.90000000000003" y="509.9"/>
      <point x="574.8000000000001" y="509.9" type="curve" smooth="yes"/>
      <point x="675.1" y="509.9"/>
      <point x="725.8" y="444.0"/>
      <point x="725.8" y="323.1" type="curve" smooth="yes"/>
      <point x="725.8" y="70.80000000000001"/>
      <point x="571.5" y="-95.0"/>
      <point x="315.6" y="-95.0" type="curve" smooth="yes"/>
      <point x="174.20000000000002" y="-95.0"/>
      <point x="55.6" y="-24.700000000000003"/>
      <point x="55.6" y="44.3" type="curve" smooth="yes"/>
      <point x="55.6" y="70.89999999999999"/>
      <point x="66.5" y="82.9"/>
      <point x="91.2" y="82.9" type="curve" smooth="yes"/>
      <point x="953.3000000000001" y="82.9" type="line"/>
    </contour>
  </outline>
</glyph>
<glyph name="nine-tamil" format="2">
  <advance width="1153.4"/>
  <unicode hex="0BEF"/>
  <note>
uni0BEF
</note>
  <outline>
    <contour>
      <point x="900.0" y="-15.100000000000001" type="line"/>
      <point x="1026.6000000000001" y="33.0"/>
      <point x="1110.1" y="117.3"/>
      <point x="1110.1" y="240.29999999999998" type="curve" smooth="yes"/>
      <point x="1110.1" y="376.5"/>
      <point x="986.9" y="441.4"/>
      <point x="845.2" y="441.4" type="curve" smooth="yes"/>
      <point x="665.1" y="441.4"/>
      <point x="527.4000000000001" y="315.0"/>
      <point x="527.4000000000001" y="142.6" type="curve" smooth="yes"/>
      <point x="527.4000000000001" y="60.699999999999996"/>
      <point x="574.6" y="-4.7"/>
      <point x="663.8000000000001" y="-4.7" type="curve" smooth="yes"/>
      <point x="773.9" y="-4.7"/>
      <point x="853.8" y="73.3"/>
      <point x="853.8" y="183.89999999999998" type="curve" smooth="yes"/>
      <point x="853.8" y="304.6"/>
      <point x="760.0" y="342.4"/>
      <point x="645.6" y="342.4" type="curve" smooth="yes"/>
      <point x="510.8" y="342.4" type="line"/>
      <point x="546.2" y="508.7" type="line"/>
      <point x="674.3" y="508.7" type="line"/>
      <point x="689.6" y="578.4" type="line"/>
      <point x="192.9" y="578.4" type="line"/>
      <point x="134.9" y="305.1" type="line"/>
      <point x="208.10000000000002" y="305.1" type="line"/>
      <point x="250.79999999999998" y="508.7" type="line"/>
      <point x="357.09999999999997" y="508.7" type="line"/>
      <point x="322.40000000000003" y="342.4" type="line"/>
      <point x="208.8" y="342.4" type="line" smooth="yes"/>
      <point x="96.9" y="342.4"/>
      <point x="21.799999999999997" y="262.5"/>
      <point x="21.799999999999997" y="157.7" type="curve" smooth="yes"/>
      <point x="21.799999999999997" y="72.2"/>
      <point x="94.6" y="-4.0"/>
      <point x="226.3" y="-4.0" type="curve" smooth="yes"/>
      <point x="378.6" y="-4.0"/>
      <point x="452.3" y="66.9"/>
      <point x="481.0" y="200.4" type="curve" smooth="yes"/>
      <point x="496.2" y="272.7" type="line"/>
      <point x="620.0999999999999" y="272.7" type="line" smooth="yes"/>
      <point x="673.3000000000001" y="272.7"/>
      <point x="701.5" y="245.6"/>
      <point x="701.5" y="183.2" type="curve" smooth="yes"/>
      <point x="701.5" y="132.4"/>
      <point x="677.8" y="78.4"/>
      <point x="635.9" y="78.4" type="curve" smooth="yes"/>
      <point x="610.4" y="78.4"/>
      <point x="594.1" y="105.60000000000001"/>
      <point x="594.1" y="150.3" type="curve" smooth="yes"/>
      <point x="594.1" y="256.5"/>
      <point x="682.4" y="365.3"/>
      <point x="802.9" y="365.3" type="curve" smooth="yes"/>
      <point x="881.9" y="365.3"/>
      <point x="947.9" y="326.20000000000005"/>
      <point x="947.9" y="230.10000000000002" type="curve" smooth="yes"/>
      <point x="947.9" y="153.1"/>
      <point x="921.4" y="94.2"/>
      <point x="872.5" y="34.400000000000006" type="curve"/>
    </contour>
    <contour>
      <point x="185.70000000000002" y="79.5" type="curve" smooth="yes"/>
      <point x="134.10000000000002" y="79.5"/>
      <point x="94.5" y="112.2"/>
      <point x="94.5" y="168.4" type="curve" smooth="yes"/>
      <point x="94.5" y="229.9"/>
      <point x="130.3" y="272.7"/>
      <point x="202.20000000000002" y="272.7" type="curve" smooth="yes"/>
      <point x="307.09999999999997" y="272.7" type="line"/>
      <point x="290.8" y="191.70000000000002" type="line" smooth="yes"/>
      <point x="273.7" y="107.8"/>
      <point x="245.2" y="79.5"/>
    </contour>
  </outline>
</glyph>
<glyph name="ten-tamil" format="2">
  <advance width="856.2"/>
  <unicode hex="0BF0"/>
  <note>
uni0BF0
</note>
  <outline>
    <contour>
      <point x="479.3" y="-5.0" type="curve" smooth="yes"/>
      <point x="694.5999999999999" y="-5.0"/>
      <point x="834.5999999999999" y="216.4"/>
      <point x="834.5999999999999" y="447.9" type="curve" smooth="yes"/>
      <point x="834.5999999999999" y="676.5"/>
      <point x="714.9" y="803.0"/>
      <point x="469.40000000000003" y="840.1" type="curve"/>
      <point x="447.5" y="766.4" type="line"/>
      <point x="661.2" y="733.2"/>
      <point x="758.8" y="640.7"/>
      <point x="758.8" y="442.0" type="curve" smooth="yes"/>
      <point x="758.8" y="267.3"/>
      <point x="658.8000000000001" y="80.0"/>
      <point x="537.5" y="80.0" type="curve" smooth="yes"/>
      <point x="503.8" y="80.0"/>
      <point x="495.90000000000003" y="106.1"/>
      <point x="502.79999999999995" y="137.6" type="curve" smooth="yes"/>
      <point x="597.0" y="578.4" type="line"/>
      <point x="418.70000000000005" y="578.4" type="line"/>
      <point x="332.9" y="174.89999999999998" type="line" smooth="yes"/>
      <point x="311.1" y="70.8"/>
      <point x="356.6" y="-5.0"/>
    </contour>
    <contour>
      <point x="182.70000000000002" y="-10.9" type="curve" smooth="yes"/>
      <point x="254.1" y="-10.9"/>
      <point x="338.5" y="24.5"/>
      <point x="361.3" y="132.2" type="curve" smooth="yes"/>
      <point x="376.7" y="205.2" type="line"/>
      <point x="339.1" y="205.2" type="line"/>
      <point x="324.0" y="133.4" type="line" smooth="yes"/>
      <point x="316.0" y="95.39999999999999"/>
      <point x="290.9" y="80.0"/>
      <point x="267.0" y="80.0" type="curve" smooth="yes"/>
      <point x="231.6" y="80.0"/>
      <point x="219.4" y="108.8"/>
      <point x="229.7" y="155.29999999999998" type="curve" smooth="yes"/>
      <point x="319.4" y="578.4" type="line"/>
      <point x="133.1" y="578.4" type="line"/>
      <point x="48.0" y="178.20000000000002" type="line" smooth="yes"/>
      <point x="24.5" y="68.39999999999999"/>
      <point x="79.1" y="-10.9"/>
    </contour>
  </outline>
</glyph>
<glyph name="onehundred-tamil" format="2">
  <advance width="799.8"/>
  <unicode hex="0BF1"/>
  <note>
uni0BF1
</note>
  <outline>
    <contour>
      <point x="185.6" y="0.0" type="line"/>
      <point x="257.8" y="0.0" type="line"/>
      <point x="366.8" y="509.0" type="line"/>
      <point x="513.5" y="509.0" type="line"/>
      <point x="405.5" y="0.0" type="line"/>
      <point x="592.1" y="0.0" type="line"/>
      <point x="700.1" y="509.0" type="line"/>
      <point x="799.9" y="509.0" type="line"/>
      <point x="815.2" y="578.4" type="line"/>
      <point x="308.20000000000005" y="578.4" type="line"/>
    </contour>
    <contour>
      <point x="-6.699999999999998" y="0.0" type="line"/>
      <point x="67.6" y="0.0" type="line"/>
      <point x="164.0" y="453.4" type="line" smooth="yes"/>
      <point x="174.0" y="499.59999999999997"/>
      <point x="198.4" y="519.9"/>
      <point x="231.5" y="519.9" type="curve" smooth="yes"/>
      <point x="265.0" y="519.9"/>
      <point x="290.3" y="493.5"/>
      <point x="279.0" y="440.1" type="curve"/>
      <point x="305.5" y="440.1" type="line"/>
      <point x="324.2" y="534.9"/>
      <point x="281.0" y="587.0"/>
      <point x="215.29999999999998" y="587.0" type="curve" smooth="yes"/>
      <point x="140.29999999999998" y="587.0"/>
      <point x="105.0" y="527.0"/>
      <point x="90.5" y="458.4" type="curve" smooth="yes"/>
    </contour>
  </outline>
</glyph>
<glyph name="onethousand-tamil" format="2">
  <advance width="1132.7"/>
  <unicode hex="0BF2"/>
  <note>
uni0BF2
</note>
  <outline>
    <contour>
      <point x="243.10000000000002" y="-4.0" type="curve" smooth="yes"/>
      <point x="395.40000000000003" y="-4.0"/>
      <point x="469.1" y="66.9"/>
      <point x="497.79999999999995" y="200.4" type="curve" smooth="yes"/>
      <point x="513.0" y="272.7" type="line"/>
      <point x="987.5" y="272.7" type="line"/>
      <point x="1002.1999999999999" y="342.4" type="line"/>
      <point x="527.6" y="342.4" type="line"/>
      <point x="563.0" y="508.7" type="line"/>
      <point x="691.0999999999999" y="508.7" type="line"/>
      <point x="706.4" y="578.4" type="line"/>
      <point x="209.7" y="578.4" type="line"/>
      <point x="151.7" y="305.1" type="line"/>
      <point x="224.9" y="305.1" type="line"/>
      <point x="267.59999999999997" y="508.7" type="line"/>
      <point x="373.9" y="508.7" type="line"/>
      <point x="339.20000000000005" y="342.4" type="line"/>
      <point x="225.60000000000002" y="342.4" type="line" smooth="yes"/>
      <point x="113.7" y="342.4"/>
      <point x="38.6" y="262.5"/>
      <point x="38.6" y="157.7" type="curve" smooth="yes"/>
      <point x="38.6" y="72.2"/>
      <point x="111.39999999999999" y="-4.0"/>
    </contour>
    <contour>
      <point x="202.5" y="79.5" type="curve" smooth="yes"/>
      <point x="150.9" y="79.5"/>
      <point x="111.3" y="112.2"/>
      <point x="111.3" y="168.4" type="curve" smooth="yes"/>
      <point x="111.3" y="229.9"/>
      <point x="147.10000000000002" y="272.7"/>
      <point x="219.0" y="272.7" type="curve" smooth="yes"/>
      <point x="323.9" y="272.7" type="line"/>
      <point x="307.6" y="191.70000000000002" type="line" smooth="yes"/>
      <point x="290.5" y="107.8"/>
      <point x="262.0" y="79.5"/>
    </contour>
    <contour>
      <point x="362.0" y="-330.8" type="curve"/>
      <point x="381.8" y="-223.4"/>
      <point x="427.5" y="-161.5"/>
      <point x="541.4" y="-161.5" type="curve" smooth="yes"/>
      <point x="677.1" y="-161.5" type="line" smooth="yes"/>
      <point x="884.1" y="-161.5"/>
      <point x="1028.4" y="-106.30000000000001"/>
      <point x="1028.4" y="61.1" type="curve" smooth="yes"/>
      <point x="1028.4" y="165.0"/>
      <point x="946.9" y="209.9"/>
      <point x="816.1" y="209.9" type="curve" smooth="yes"/>
      <point x="645.1999999999999" y="209.9" type="line" smooth="yes"/>
      <point x="570.2" y="209.9"/>
      <point x="508.1" y="163.3"/>
      <point x="508.1" y="85.10000000000001" type="curve" smooth="yes"/>
      <point x="508.1" y="25.7"/>
      <point x="557.5" y="-23.0"/>
      <point x="649.6999999999999" y="-23.0" type="curve" smooth="yes"/>
      <point x="758.2" y="-23.0"/>
      <point x="811.5" y="27.0"/>
      <point x="831.0" y="119.8" type="curve" smooth="yes"/>
      <point x="868.6" y="297.0" type="line"/>
      <point x="716.0" y="297.0" type="line"/>
      <point x="677.1" y="112.5" type="line" smooth="yes"/>
      <point x="667.3" y="66.7"/>
      <point x="653.9000000000001" y="43.9"/>
      <point x="619.9" y="43.9" type="curve" smooth="yes"/>
      <point x="590.0" y="43.9"/>
      <point x="574.3" y="68.2"/>
      <point x="574.3" y="91.89999999999999" type="curve" smooth="yes"/>
      <point x="574.3" y="125.8"/>
      <point x="596.3" y="148.0"/>
      <point x="633.2" y="148.0" type="curve" smooth="yes"/>
      <point x="807.4" y="148.0" type="line" smooth="yes"/>
      <point x="853.0" y="148.0"/>
      <point x="874.5" y="122.69999999999999"/>
      <point x="874.5" y="68.2" type="curve" smooth="yes"/>
      <point x="874.5" y="-43.10000000000001"/>
      <point x="818.2" y="-102.0"/>
      <point x="694.8000000000001" y="-102.0" type="curve" smooth="yes"/>
      <point x="492.0" y="-102.0" type="line" smooth="yes"/>
      <point x="356.6" y="-102.0"/>
      <point x="242.8" y="-134.5"/>
      <point x="242.8" y="-239.3" type="curve" smooth="yes"/>
      <point x="242.8" y="-297.7"/>
      <point x="289.59999999999997" y="-330.8"/>
    </contour>
  </outline>
</glyph>
<glyph name="day-tamil" format="2">
  <advance width="790.9000000000001"/>
  <unicode hex="0BF3"/>
  <note>
uni0BF3
</note>
  <outline>
    <contour>
      <point x="186.10000000000002" y="-5.0" type="curve" smooth="yes"/>
      <point x="290.1" y="-5.0"/>
      <point x="374.1" y="79.8"/>
      <point x="374.1" y="203.5" type="curve" smooth="yes"/>
      <point x="374.1" y="290.8"/>
      <point x="326.2" y="345.6"/>
      <point x="249.39999999999998" y="345.6" type="curve" smooth="yes"/>
      <point x="166.4" y="345.6"/>
      <point x="112.80000000000001" y="274.8"/>
      <point x="73.4" y="172.1" type="curve"/>
      <point x="93.3" y="134.6" type="line"/>
      <point x="118.19999999999999" y="204.60000000000002"/>
      <point x="140.4" y="234.4"/>
      <point x="172.4" y="234.4" type="curve" smooth="yes"/>
      <point x="197.9" y="234.4"/>
      <point x="206.1" y="210.7"/>
      <point x="206.1" y="177.0" type="curve" smooth="yes"/>
      <point x="206.1" y="121.7"/>
      <point x="183.39999999999998" y="80.3"/>
      <point x="151.9" y="80.3" type="curve" smooth="yes"/>
      <point x="120.2" y="80.3"/>
      <point x="105.5" y="119.1"/>
      <point x="105.5" y="205.9" type="curve" smooth="yes"/>
      <point x="105.5" y="354.9"/>
      <point x="210.0" y="504.0"/>
      <point x="337.59999999999997" y="504.0" type="curve" smooth="yes"/>
      <point x="439.9" y="504.0"/>
      <point x="485.40000000000003" y="436.6"/>
      <point x="485.40000000000003" y="318.8" type="curve" smooth="yes"/>
      <point x="485.40000000000003" y="218.5"/>
      <point x="448.70000000000005" y="130.6"/>
      <point x="390.5" y="48.6" type="curve"/>
      <point x="405.90000000000003" y="0.0" type="line"/>
      <point x="717.8000000000001" y="0.0" type="line"/>
      <point x="732.4" y="69.4" type="line"/>
      <point x="516.2" y="69.4" type="line"/>
      <point x="598.0999999999999" y="132.5"/>
      <point x="666.1999999999999" y="227.0"/>
      <point x="666.1999999999999" y="343.3" type="curve" smooth="yes"/>
      <point x="666.1999999999999" y="508.7"/>
      <point x="538.5" y="584.1"/>
      <point x="382.5" y="584.1" type="curve" smooth="yes"/>
      <point x="173.0" y="584.1"/>
      <point x="30.800000000000004" y="396.0"/>
      <point x="30.800000000000004" y="199.5" type="curve" smooth="yes"/>
      <point x="30.800000000000004" y="81.6"/>
      <point x="76.9" y="-5.0"/>
    </contour>
  </outline>
</glyph>
